# Blender 4.0.2
# www.blender.org
mtllib battery.mtl
o Cylinder
v 0.000000 -0.752233 -0.500000
v 0.000000 0.752233 -0.302765
v 0.097545 -0.752233 -0.490393
v 0.059067 0.752233 -0.296948
v 0.191342 -0.752233 -0.461940
v 0.115863 0.752233 -0.279719
v 0.277785 -0.752233 -0.415735
v 0.168207 0.752233 -0.251740
v 0.353553 -0.752233 -0.353553
v 0.214087 0.752233 -0.214087
v 0.415735 -0.752233 -0.277785
v 0.251740 0.752233 -0.168207
v 0.461940 -0.752233 -0.191342
v 0.279719 0.752233 -0.115863
v 0.490393 -0.752233 -0.097545
v 0.296948 0.752233 -0.059067
v 0.500000 -0.752233 0.000000
v 0.302765 0.752233 0.000000
v 0.490393 -0.752233 0.097545
v 0.296948 0.752233 0.059067
v 0.461940 -0.752233 0.191342
v 0.279719 0.752233 0.115863
v 0.415735 -0.752233 0.277785
v 0.251740 0.752233 0.168207
v 0.353553 -0.752233 0.353553
v 0.214087 0.752233 0.214087
v 0.277785 -0.752233 0.415735
v 0.168207 0.752233 0.251740
v 0.191342 -0.752233 0.461940
v 0.115863 0.752233 0.279719
v 0.097545 -0.752233 0.490393
v 0.059067 0.752233 0.296948
v 0.000000 -0.752233 0.500000
v 0.000000 0.752233 0.302765
v -0.097545 -0.752233 0.490393
v -0.059067 0.752233 0.296948
v -0.191342 -0.752233 0.461940
v -0.115863 0.752233 0.279719
v -0.277785 -0.752233 0.415735
v -0.168207 0.752233 0.251740
v -0.353553 -0.752233 0.353553
v -0.214087 0.752233 0.214087
v -0.415735 -0.752233 0.277785
v -0.251740 0.752233 0.168207
v -0.461940 -0.752233 0.191342
v -0.279719 0.752233 0.115863
v -0.490393 -0.752233 0.097545
v -0.296948 0.752233 0.059067
v -0.500000 -0.752233 0.000000
v -0.302765 0.752233 0.000000
v -0.490393 -0.752233 -0.097545
v -0.296948 0.752233 -0.059067
v -0.461940 -0.752233 -0.191342
v -0.279719 0.752233 -0.115863
v -0.415735 -0.752233 -0.277785
v -0.251740 0.752233 -0.168207
v -0.353553 -0.752233 -0.353553
v -0.214087 0.752233 -0.214087
v -0.277785 -0.752233 -0.415735
v -0.168207 0.752233 -0.251740
v -0.191342 -0.752233 -0.461940
v -0.115863 0.752233 -0.279719
v -0.097545 -0.752233 -0.490393
v -0.059067 0.752233 -0.296948
v 0.097545 0.752233 -0.490393
v 0.000000 0.752233 -0.500000
v 0.191342 0.752233 -0.461940
v 0.277785 0.752233 -0.415735
v 0.353553 0.752233 -0.353553
v 0.415735 0.752233 -0.277785
v 0.461940 0.752233 -0.191342
v 0.490393 0.752233 -0.097545
v 0.500000 0.752233 0.000000
v 0.490393 0.752233 0.097545
v 0.461940 0.752233 0.191342
v 0.415735 0.752233 0.277785
v 0.353553 0.752233 0.353553
v 0.277785 0.752233 0.415735
v 0.191342 0.752233 0.461940
v 0.097545 0.752233 0.490393
v 0.000000 0.752233 0.500000
v -0.097545 0.752233 0.490393
v -0.191342 0.752233 0.461940
v -0.277785 0.752233 0.415735
v -0.353553 0.752233 0.353553
v -0.415735 0.752233 0.277785
v -0.461940 0.752233 0.191342
v -0.490393 0.752233 0.097545
v -0.500000 0.752233 0.000000
v -0.490393 0.752233 -0.097545
v -0.461940 0.752233 -0.191342
v -0.415735 0.752233 -0.277785
v -0.353553 0.752233 -0.353553
v -0.277785 0.752233 -0.415735
v -0.191342 0.752233 -0.461940
v -0.097545 0.752233 -0.490393
v 0.059067 0.944354 -0.296948
v 0.000000 0.944354 -0.302765
v 0.115863 0.944354 -0.279719
v 0.168207 0.944354 -0.251740
v 0.214087 0.944354 -0.214087
v 0.251740 0.944354 -0.168207
v 0.279719 0.944354 -0.115863
v 0.296948 0.944354 -0.059067
v 0.302765 0.944354 0.000000
v 0.296948 0.944354 0.059067
v 0.279719 0.944354 0.115863
v 0.251740 0.944354 0.168207
v 0.214087 0.944354 0.214087
v 0.168207 0.944354 0.251740
v 0.115863 0.944354 0.279719
v 0.059067 0.944354 0.296948
v 0.000000 0.944354 0.302765
v -0.059067 0.944354 0.296948
v -0.115863 0.944354 0.279719
v -0.168207 0.944354 0.251740
v -0.214087 0.944354 0.214087
v -0.251740 0.944354 0.168207
v -0.279718 0.944354 0.115863
v -0.296948 0.944354 0.059067
v -0.302765 0.944354 0.000000
v -0.296948 0.944354 -0.059067
v -0.279718 0.944354 -0.115863
v -0.251740 0.944354 -0.168207
v -0.214087 0.944354 -0.214087
v -0.168207 0.944354 -0.251740
v -0.115863 0.944354 -0.279719
v -0.059067 0.944354 -0.296948
vn 0.0980 -0.0000 -0.9952
vn 0.2903 -0.0000 -0.9569
vn 0.4714 -0.0000 -0.8819
vn 0.6344 -0.0000 -0.7730
vn 0.7730 -0.0000 -0.6344
vn 0.8819 -0.0000 -0.4714
vn 0.9569 -0.0000 -0.2903
vn 0.9952 -0.0000 -0.0980
vn 0.9952 -0.0000 0.0980
vn 0.9569 -0.0000 0.2903
vn 0.8819 -0.0000 0.4714
vn 0.7730 -0.0000 0.6344
vn 0.6344 -0.0000 0.7730
vn 0.4714 -0.0000 0.8819
vn 0.2903 -0.0000 0.9569
vn 0.0980 -0.0000 0.9952
vn -0.0980 -0.0000 0.9952
vn -0.2903 -0.0000 0.9569
vn -0.4714 -0.0000 0.8819
vn -0.6344 -0.0000 0.7730
vn -0.7730 -0.0000 0.6344
vn -0.8819 -0.0000 0.4714
vn -0.9569 -0.0000 0.2903
vn -0.9952 -0.0000 0.0980
vn -0.9952 -0.0000 -0.0980
vn -0.9569 -0.0000 -0.2903
vn -0.8819 -0.0000 -0.4714
vn -0.7730 -0.0000 -0.6344
vn -0.6344 -0.0000 -0.7730
vn -0.4714 -0.0000 -0.8819
vn -0.2903 -0.0000 -0.9569
vn -0.0980 -0.0000 -0.9952
vn -0.0000 -1.0000 -0.0000
vn -0.0000 1.0000 -0.0000
vt 0.057433 0.901623
vt 0.057433 0.687471
vt 0.078424 0.687471
vt 0.078424 0.901623
vt 0.099011 0.687471
vt 0.099011 0.901623
vt 0.118403 0.687471
vt 0.118403 0.901623
vt 0.135856 0.687471
vt 0.135856 0.901623
vt 0.150699 0.687471
vt 0.150699 0.901623
vt 0.864144 0.881957
vt 0.864144 0.667805
vt 0.881597 0.667805
vt 0.881597 0.881957
vt 0.900989 0.667805
vt 0.900989 0.881957
vt 0.921577 0.667805
vt 0.921577 0.881957
vt 0.942567 0.667805
vt 0.942567 0.881957
vt 0.963154 0.667805
vt 0.963154 0.881957
vt 0.982547 0.667805
vt 0.982547 0.881957
vt 1.000000 0.667805
vt 1.000000 0.881957
vt 0.838045 0.214152
vt 0.838045 0.000000
vt 0.855498 0.000000
vt 0.855498 0.214152
vt 0.874890 0.000000
vt 0.874890 0.214152
vt 0.895477 0.000000
vt 0.895477 0.214152
vt 0.916468 0.000000
vt 0.916468 0.214152
vt 0.937055 0.000000
vt 0.937055 0.214152
vt 0.956448 0.000000
vt 0.956448 0.214152
vt 0.973901 0.000000
vt 0.973901 0.214152
vt 0.988744 0.000000
vt 0.988744 0.214152
vt 0.672503 0.214152
vt 0.672503 0.000000
vt 0.687346 0.000000
vt 0.687346 0.214152
vt 0.704798 0.000000
vt 0.704798 0.214152
vt 0.724191 0.000000
vt 0.724191 0.214152
vt 0.744778 0.000000
vt 0.744778 0.214152
vt 0.765769 0.000000
vt 0.765769 0.214152
vt 0.786356 0.000000
vt 0.786356 0.214152
vt 0.805749 0.000000
vt 0.805749 0.214152
vt 0.823202 0.000000
vt 0.823202 0.214152
vt 0.000000 0.901623
vt 0.000000 0.687471
vt 0.017453 0.687471
vt 0.017453 0.901623
vt 0.178046 0.813501
vt 0.178046 0.801035
vt 0.205394 0.801035
vt 0.205394 0.813501
vt 0.036846 0.687471
vt 0.036846 0.901623
vt 0.649992 0.784861
vt 0.645897 0.805448
vt 0.637864 0.824841
vt 0.626202 0.842294
vt 0.611360 0.857136
vt 0.593907 0.868798
vt 0.574514 0.876831
vt 0.553927 0.880926
vt 0.532936 0.880926
vt 0.512349 0.876831
vt 0.492956 0.868798
vt 0.475503 0.857136
vt 0.460661 0.842294
vt 0.448999 0.824841
vt 0.440966 0.805448
vt 0.436871 0.784861
vt 0.436871 0.763870
vt 0.440966 0.743283
vt 0.448999 0.723890
vt 0.460661 0.706437
vt 0.475503 0.691595
vt 0.492956 0.679933
vt 0.512349 0.671900
vt 0.532936 0.667805
vt 0.553927 0.667805
vt 0.574514 0.671901
vt 0.593907 0.679933
vt 0.611360 0.691595
vt 0.626202 0.706438
vt 0.637864 0.723890
vt 0.645897 0.743283
vt 0.649992 0.763870
vt 0.822109 0.780721
vt 0.822109 0.768010
vt 0.864144 0.763870
vt 0.864144 0.784861
vt 0.819629 0.755544
vt 0.860049 0.743283
vt 0.814765 0.743801
vt 0.852016 0.723890
vt 0.807704 0.733233
vt 0.840354 0.706437
vt 0.798716 0.724245
vt 0.825512 0.691595
vt 0.788148 0.717184
vt 0.808059 0.679933
vt 0.776405 0.712320
vt 0.788666 0.671900
vt 0.763939 0.709840
vt 0.768079 0.667805
vt 0.751228 0.709840
vt 0.747088 0.667805
vt 0.738762 0.712320
vt 0.726501 0.671900
vt 0.727019 0.717184
vt 0.707108 0.679933
vt 0.716451 0.724245
vt 0.689655 0.691595
vt 0.707463 0.733233
vt 0.674813 0.706437
vt 0.700402 0.743801
vt 0.663151 0.723890
vt 0.695538 0.755544
vt 0.655118 0.743283
vt 0.693058 0.768010
vt 0.651023 0.763870
vt 0.693058 0.780721
vt 0.651023 0.784861
vt 0.695538 0.793187
vt 0.655118 0.805448
vt 0.700402 0.804930
vt 0.663151 0.824841
vt 0.707463 0.815498
vt 0.674813 0.842294
vt 0.716451 0.824486
vt 0.689655 0.857136
vt 0.727019 0.831547
vt 0.707108 0.868798
vt 0.738762 0.836411
vt 0.726501 0.876831
vt 0.751228 0.838891
vt 0.747088 0.880926
vt 0.763939 0.838891
vt 0.768079 0.880926
vt 0.776405 0.836412
vt 0.788666 0.876831
vt 0.788148 0.831547
vt 0.808059 0.868798
vt 0.798716 0.824486
vt 0.825512 0.857136
vt 0.807704 0.815498
vt 0.840354 0.842294
vt 0.814765 0.804930
vt 0.852016 0.824841
vt 0.819629 0.793187
vt 0.860049 0.805448
vt 0.872519 0.334592
vt 0.867654 0.322849
vt 0.865175 0.310382
vt 0.865175 0.297672
vt 0.867654 0.285206
vt 0.872519 0.273463
vt 0.879580 0.262895
vt 0.888568 0.253907
vt 0.899136 0.246846
vt 0.910879 0.241981
vt 0.923345 0.239502
vt 0.936055 0.239502
vt 0.948522 0.241981
vt 0.960265 0.246846
vt 0.970833 0.253907
vt 0.979820 0.262895
vt 0.986882 0.273463
vt 0.991746 0.285206
vt 0.994226 0.297672
vt 0.994226 0.310382
vt 0.991746 0.322849
vt 0.986882 0.334592
vt 0.979820 0.345160
vt 0.970833 0.354147
vt 0.960265 0.361209
vt 0.948522 0.366073
vt 0.936055 0.368553
vt 0.923345 0.368553
vt 0.910879 0.366073
vt 0.899136 0.361209
vt 0.888568 0.354147
vt 0.879580 0.345160
vt 0.178046 0.747425
vt 0.178046 0.734959
vt 0.205394 0.734959
vt 0.205394 0.747425
vt 0.178046 0.687471
vt 0.178046 0.696459
vt 0.150699 0.696459
vt 0.178046 0.826212
vt 0.205394 0.826212
vt 0.178046 0.759168
vt 0.205394 0.759168
vt 0.178046 0.698040
vt 0.178046 0.687471
vt 0.205394 0.687471
vt 0.205394 0.698040
vt 0.178046 0.838678
vt 0.205394 0.838678
vt 0.178046 0.769736
vt 0.205394 0.769736
vt 0.178046 0.709782
vt 0.205394 0.709782
vt 0.178046 0.850421
vt 0.205394 0.850421
vt 0.178046 0.778724
vt 0.205394 0.778724
vt 0.178046 0.722249
vt 0.205394 0.722249
vt 0.178046 0.860989
vt 0.205394 0.860989
vt 0.178046 0.859408
vt 0.178046 0.869977
vt 0.150699 0.869977
vt 0.150699 0.859408
vt 0.178046 0.869977
vt 0.205394 0.869977
vt 0.178046 0.847666
vt 0.150699 0.847666
vt 0.178046 0.778724
vt 0.178046 0.787712
vt 0.150699 0.787712
vt 0.150699 0.778724
vt 0.178046 0.835199
vt 0.150699 0.835199
vt 0.178046 0.768156
vt 0.150699 0.768156
vt 0.178046 0.822489
vt 0.150699 0.822489
vt 0.178046 0.756413
vt 0.150699 0.756413
vt 0.178046 0.810023
vt 0.150699 0.810023
vt 0.178046 0.743947
vt 0.150699 0.743947
vt 0.178046 0.798280
vt 0.150699 0.798280
vt 0.178046 0.731236
vt 0.150699 0.731236
vt 0.178046 0.787712
vt 0.150699 0.787712
vt 0.178046 0.718770
vt 0.150699 0.718770
vt 0.178046 0.789292
vt 0.178046 0.778724
vt 0.205394 0.778724
vt 0.205394 0.789292
vt 0.178046 0.707027
vt 0.150699 0.707027
s 0
usemtl Material.002
f 1/1/1 66/2/1 65/3/1 3/4/1
f 3/4/2 65/3/2 67/5/2 5/6/2
f 5/6/3 67/5/3 68/7/3 7/8/3
f 7/8/4 68/7/4 69/9/4 9/10/4
f 9/10/5 69/9/5 70/11/5 11/12/5
f 11/13/6 70/14/6 71/15/6 13/16/6
f 13/16/7 71/15/7 72/17/7 15/18/7
f 15/18/8 72/17/8 73/19/8 17/20/8
f 17/20/9 73/19/9 74/21/9 19/22/9
f 19/22/10 74/21/10 75/23/10 21/24/10
f 21/24/11 75/23/11 76/25/11 23/26/11
f 23/26/12 76/25/12 77/27/12 25/28/12
f 25/29/13 77/30/13 78/31/13 27/32/13
f 27/32/14 78/31/14 79/33/14 29/34/14
f 29/34/15 79/33/15 80/35/15 31/36/15
f 31/36/16 80/35/16 81/37/16 33/38/16
f 33/38/17 81/37/17 82/39/17 35/40/17
f 35/40/18 82/39/18 83/41/18 37/42/18
f 37/42/19 83/41/19 84/43/19 39/44/19
f 39/44/20 84/43/20 85/45/20 41/46/20
f 41/47/21 85/48/21 86/49/21 43/50/21
f 43/50/22 86/49/22 87/51/22 45/52/22
f 45/52/23 87/51/23 88/53/23 47/54/23
f 47/54/24 88/53/24 89/55/24 49/56/24
f 49/56/25 89/55/25 90/57/25 51/58/25
f 51/58/26 90/57/26 91/59/26 53/60/26
f 53/60/27 91/59/27 92/61/27 55/62/27
f 55/62/28 92/61/28 93/63/28 57/64/28
f 57/64/29 93/63/29 94/30/29 59/29/29
f 59/65/30 94/66/30 95/67/30 61/68/30
f 32/69/15 30/70/15 111/71/15 112/72/15
f 61/68/31 95/67/31 96/73/31 63/74/31
f 63/74/32 96/73/32 66/2/32 1/1/32
f 1/75/33 3/76/33 5/77/33 7/78/33 9/79/33 11/80/33 13/81/33 15/82/33 17/83/33 19/84/33 21/85/33 23/86/33 25/87/33 27/88/33 29/89/33 31/90/33 33/91/33 35/92/33 37/93/33 39/94/33 41/95/33 43/96/33 45/97/33 47/98/33 49/99/33 51/100/33 53/101/33 55/102/33 57/103/33 59/104/33 61/105/33 63/106/33
f 2/107/34 4/108/34 65/109/34 66/110/34
f 4/108/34 6/111/34 67/112/34 65/109/34
f 6/111/34 8/113/34 68/114/34 67/112/34
f 8/113/34 10/115/34 69/116/34 68/114/34
f 10/115/34 12/117/34 70/118/34 69/116/34
f 12/117/34 14/119/34 71/120/34 70/118/34
f 14/119/34 16/121/34 72/122/34 71/120/34
f 16/121/34 18/123/34 73/124/34 72/122/34
f 18/123/34 20/125/34 74/126/34 73/124/34
f 20/125/34 22/127/34 75/128/34 74/126/34
f 22/127/34 24/129/34 76/130/34 75/128/34
f 24/129/34 26/131/34 77/132/34 76/130/34
f 26/131/34 28/133/34 78/134/34 77/132/34
f 28/133/34 30/135/34 79/136/34 78/134/34
f 30/135/34 32/137/34 80/138/34 79/136/34
f 32/137/34 34/139/34 81/140/34 80/138/34
f 34/139/34 36/141/34 82/142/34 81/140/34
f 36/141/34 38/143/34 83/144/34 82/142/34
f 38/143/34 40/145/34 84/146/34 83/144/34
f 40/145/34 42/147/34 85/148/34 84/146/34
f 42/147/34 44/149/34 86/150/34 85/148/34
f 44/149/34 46/151/34 87/152/34 86/150/34
f 46/151/34 48/153/34 88/154/34 87/152/34
f 48/153/34 50/155/34 89/156/34 88/154/34
f 50/155/34 52/157/34 90/158/34 89/156/34
f 52/157/34 54/159/34 91/160/34 90/158/34
f 54/159/34 56/161/34 92/162/34 91/160/34
f 56/161/34 58/163/34 93/164/34 92/162/34
f 58/163/34 60/165/34 94/166/34 93/164/34
f 60/165/34 62/167/34 95/168/34 94/166/34
f 62/167/34 64/169/34 96/170/34 95/168/34
f 64/169/34 2/107/34 66/110/34 96/170/34
f 97/171/34 98/172/34 128/173/34 127/174/34 126/175/34 125/176/34 124/177/34 123/178/34 122/179/34 121/180/34 120/181/34 119/182/34 118/183/34 117/184/34 116/185/34 115/186/34 114/187/34 113/188/34 112/189/34 111/190/34 110/191/34 109/192/34 108/193/34 107/194/34 106/195/34 105/196/34 104/197/34 103/198/34 102/199/34 101/200/34 100/201/34 99/202/34
f 6/203/2 4/204/2 97/205/2 99/206/2
f 60/207/29 58/208/29 125/209/29 126/11/29
f 34/210/16 32/69/16 112/72/16 113/211/16
f 8/212/3 6/203/3 99/206/3 100/213/3
f 62/214/30 60/215/30 126/216/30 127/217/30
f 36/218/17 34/210/17 113/211/17 114/219/17
f 10/220/4 8/212/4 100/213/4 101/221/4
f 64/222/31 62/214/31 127/217/31 128/223/31
f 38/224/18 36/218/18 114/219/18 115/225/18
f 12/226/5 10/220/5 101/221/5 102/227/5
f 2/228/32 64/222/32 128/223/32 98/229/32
f 40/230/19 38/224/19 115/225/19 116/231/19
f 14/232/6 12/233/6 102/234/6 103/235/6
f 42/236/20 40/230/20 116/231/20 117/237/20
f 16/238/7 14/232/7 103/235/7 104/239/7
f 44/240/21 42/241/21 117/242/21 118/243/21
f 18/244/8 16/238/8 104/239/8 105/245/8
f 46/246/22 44/240/22 118/243/22 119/247/22
f 20/248/9 18/244/9 105/245/9 106/249/9
f 48/250/23 46/246/23 119/247/23 120/251/23
f 22/252/10 20/248/10 106/249/10 107/253/10
f 50/254/24 48/250/24 120/251/24 121/255/24
f 24/256/11 22/252/11 107/253/11 108/257/11
f 52/258/25 50/254/25 121/255/25 122/259/25
f 26/260/12 24/256/12 108/257/12 109/261/12
f 54/262/26 52/258/26 122/259/26 123/263/26
f 28/264/13 26/265/13 109/266/13 110/267/13
f 56/268/27 54/262/27 123/263/27 124/269/27
f 30/70/14 28/264/14 110/267/14 111/71/14
f 4/204/1 2/228/1 98/229/1 97/205/1
f 58/208/28 56/268/28 124/269/28 125/209/28
o Cube
v -0.069809 0.395865 0.528677
v -0.073856 0.513357 0.530675
v -0.069809 0.395865 0.487946
v -0.073856 0.513357 0.487583
v 0.069809 0.395865 0.528677
v 0.073856 0.513357 0.530675
v 0.069809 0.395865 0.487946
v 0.073856 0.513357 0.487583
v -0.201371 0.513357 0.531898
v -0.201371 0.513357 0.414406
v 0.201371 0.513357 0.414406
v 0.201371 0.513357 0.531898
v -0.073856 0.644757 0.530675
v -0.073856 0.644757 0.487583
v 0.073856 0.644757 0.487583
v 0.073856 0.644757 0.530675
v -0.201371 0.395865 0.414406
v -0.201371 0.395865 0.531898
v 0.201371 0.395865 0.414406
v 0.201371 0.395865 0.531898
v -0.069809 0.253676 0.487946
v -0.069809 0.253676 0.528677
v 0.069809 0.253676 0.487946
v 0.069809 0.253676 0.528677
vn -1.0000 -0.0000 -0.0000
vn -0.0000 -0.0000 -1.0000
vn 1.0000 -0.0000 -0.0000
vn -0.0000 -0.0000 1.0000
vn -0.0000 1.0000 -0.0000
vn -0.0000 -1.0000 -0.0000
vt 0.458351 0.214152
vt 0.458351 0.000000
vt 0.672503 0.000000
vt 0.672503 0.214152
vt 0.375000 0.250000
vt 0.625000 0.250000
vt 0.625000 0.500000
vt 0.375000 0.500000
vt 0.000000 0.687471
vt 0.000000 0.473319
vt 0.214152 0.473319
vt 0.214152 0.687471
vt 0.651023 0.453654
vt 0.651023 0.239502
vt 0.865175 0.239502
vt 0.865175 0.453654
vt 0.206666 0.581666
vt 0.293334 0.581666
vt 0.301263 0.239502
vt 0.222719 0.239502
vt 0.222719 0.000000
vt 0.301263 0.000000
vt 0.718827 0.455882
vt 0.718827 0.534426
vt 0.651023 0.667805
vt 0.815036 0.605955
vt 0.904093 0.605955
vt 0.980972 0.757186
vt 0.738157 0.757186
vt 0.797371 0.534426
vt 0.797371 0.455882
vt 0.865175 0.667805
vt 0.943719 0.447097
vt 0.865175 0.447097
vt 0.865175 0.368553
vt 0.943719 0.368553
vt 0.704154 0.579154
vt 0.795846 0.579154
vt 0.379807 0.239502
vt 0.379807 0.000000
vt 0.458351 0.239502
vt 0.379807 0.239502
vt 0.379807 0.000000
vt 0.366915 0.747916
vt 0.366915 0.673676
vt 0.436871 0.667805
vt 0.436871 0.881957
vt 0.331848 0.848019
vt 0.416024 0.848019
vt 0.495343 1.000000
vt 0.252529 1.000000
vt 0.292675 0.673676
vt 0.292675 0.747916
vt 0.222719 0.881957
vt 0.222719 0.667805
vt 0.939415 0.521336
vt 0.865175 0.521336
vt 0.865175 0.447097
vt 0.939415 0.447097
vt 0.000000 -0.000000
vt 0.074240 -0.000000
vt 0.074240 0.259168
vt 0.000000 0.259168
vt 0.148480 -0.000000
vt 0.148480 0.259168
vt 0.148480 -0.000000
vt 0.222719 -0.000000
vt 0.222719 0.259168
vt 0.148480 0.259168
s 0
f 146/270/35 137/271/35 138/272/35 145/273/35
f 145/274/36 138/275/36 139/276/36 147/277/36
f 147/278/37 139/279/37 140/280/37 148/281/37
f 148/282/38 140/283/38 137/284/38 146/285/38
f 131/286/36 135/287/36 151/287/36 149/286/36
f 130/288/38 134/289/38 144/290/38 141/291/38
f 130/292/39 132/293/39 138/294/39 137/282/39
f 132/295/39 136/296/39 139/297/39 138/298/39
f 136/299/39 134/300/39 140/285/39 139/301/39
f 134/300/39 130/292/39 137/282/39 140/285/39
f 143/302/39 142/303/39 141/304/39 144/305/39
f 136/306/36 132/307/36 142/307/36 143/306/36
f 134/308/37 136/288/37 143/291/37 144/309/37
f 132/310/35 130/311/35 141/312/35 142/271/35
f 131/313/40 129/314/40 146/315/40 145/316/40
f 135/317/40 131/318/40 145/319/40 147/320/40
f 133/321/40 135/322/40 147/323/40 148/324/40
f 129/314/40 133/321/40 148/324/40 146/315/40
f 149/325/40 151/326/40 152/327/40 150/328/40
f 135/329/37 133/330/37 152/331/37 151/332/37
f 129/330/35 131/333/35 149/334/35 150/331/35
f 133/335/38 129/336/38 150/337/38 152/338/38
o Cube.001
v -0.185664 -0.595208 0.529050
v -0.185664 -0.459627 0.529050
v -0.185664 -0.595208 0.393468
v -0.185664 -0.459627 0.393468
v 0.185664 -0.595208 0.529050
v 0.185664 -0.459627 0.529050
v 0.185664 -0.595208 0.393468
v 0.185664 -0.459627 0.393468
vn -1.0000 -0.0000 -0.0000
vn -0.0000 -0.0000 -1.0000
vn 1.0000 -0.0000 -0.0000
vn -0.0000 -0.0000 1.0000
vn -0.0000 -1.0000 -0.0000
vn -0.0000 1.0000 -0.0000
vt 0.222719 0.453654
vt 0.222719 0.239502
vt 0.436871 0.239502
vt 0.436871 0.453654
vt 0.375000 0.250000
vt 0.625000 0.250000
vt 0.625000 0.500000
vt 0.375000 0.500000
vt 0.000000 0.473319
vt 0.000000 0.259168
vt 0.214152 0.259168
vt 0.214152 0.473319
vt 0.651023 0.239502
vt 0.651023 0.453654
vt 0.436871 0.667805
vt 0.222719 0.667805
vt 0.651023 0.667805
s 0
usemtl Material.001
f 153/339/41 154/340/41 156/341/41 155/342/41
f 155/343/42 156/344/42 160/345/42 159/346/42
f 159/347/43 160/348/43 158/349/43 157/350/43
f 157/342/44 158/341/44 154/351/44 153/352/44
f 155/353/45 159/354/45 157/339/45 153/342/45
f 160/355/46 156/353/46 154/342/46 158/352/46
