# Blender 4.1.0
# www.blender.org
mtllib cube.mtl
o Cube
v -1.000000 -1.000000 1.000000
v -1.000000 1.000000 1.000000
v -1.000000 -1.000000 -1.000000
v -1.000000 1.000000 -1.000000
v 1.000000 -1.000000 1.000000
v 1.000000 1.000000 1.000000
v 1.000000 -1.000000 -1.000000
v 1.000000 1.000000 -1.000000
vn -1.0000 -0.0000 -0.0000
vn -0.0000 -0.0000 -1.0000
vn 1.0000 -0.0000 -0.0000
vn -0.0000 -0.0000 1.0000
vn -0.0000 -1.0000 -0.0000
vn -0.0000 1.0000 -0.0000
vt 0.002191 0.000000
vt 0.997809 0.002461
vt 0.996578 0.998078
vt 0.002191 0.994387
vt 0.002191 0.005152
vt 1.000269 0.001461
vt 0.996578 0.999539
vt 0.003422 0.998309
vt 0.000961 0.000461
vt 0.999039 -0.004461
vt 0.996578 0.996078
vt 0.002191 0.993618
vt 0.003422 -0.001769
vt 1.001500 0.001922
vt 0.996578 0.997539
vt 0.002191 1.001230
vt 0.005652 0.000461
vt 0.997578 0.000461
vt 0.995117 1.001000
vt 0.000730 0.998539
vt 0.001191 -0.000769
vt 1.000000 0.000000
vt 0.997479 0.997489
vt 0.006113 0.997309
s 0
f 1/1/1 2/2/1 4/3/1 3/4/1
f 3/5/2 4/6/2 8/7/2 7/8/2
f 7/9/3 8/10/3 6/11/3 5/12/3
f 5/13/4 6/14/4 2/15/4 1/16/4
f 3/17/5 7/18/5 5/19/5 1/20/5
f 8/21/6 4/22/6 2/23/6 6/24/6