# Blender 4.0.2
# www.blender.org
mtllib sock.mtl
o Cube
v 1.000000 0.127871 -1.000000
v 1.000000 -0.127871 -1.000000
v 1.000000 0.127871 1.000000
v 1.000000 -0.127871 1.000000
v -1.000000 0.127871 -1.000000
v -1.000000 -0.127871 -1.000000
v -1.000000 0.127871 1.000000
v -1.000000 -0.127871 1.000000
v -0.425293 -0.127871 2.982570
v -1.000000 -0.127871 2.407863
v -1.000000 0.127871 2.407863
v -0.425293 0.127871 2.982570
v 0.425293 0.127871 2.982570
v 1.000000 0.127871 2.407863
v 1.000000 -0.127871 2.407863
v 0.425293 -0.127871 2.982570
v -1.000000 -0.127871 3.210704
v -0.425293 -0.127871 3.785411
v -0.425293 0.127871 3.785411
v -1.000000 0.127871 3.210704
v -2.448691 0.176476 3.856554
v 0.425293 0.127871 3.785411
v 0.425293 -0.127871 3.785411
v -2.448691 0.176476 4.659394
v -1.000000 0.127871 3.210704
v -1.000000 0.127871 2.407863
v -1.000000 -0.127871 2.407863
v -1.000000 -0.127871 3.210704
v -0.425293 -0.127871 3.785411
v -0.425293 0.127871 3.785411
v 0.425293 0.127871 3.785411
v 0.425293 -0.127871 3.785411
v -2.448691 0.127871 4.659394
v -2.448691 0.127871 3.856554
v -2.448691 -0.127871 3.856554
v -2.448691 -0.127871 4.659394
v -1.873984 -0.127871 5.234101
v -1.873984 0.127871 5.234101
v -1.023398 0.127871 5.234101
v -1.023398 -0.127871 5.234101
v -3.169864 0.127871 5.380568
v -3.169864 0.127871 4.577727
v -3.169864 -0.127871 4.577727
v -3.169864 -0.127871 5.380568
v -2.595157 -0.127871 5.955275
v -2.595157 0.127871 5.955275
v -1.744571 0.127871 5.955275
v -1.744571 -0.127871 5.955275
v 0.819017 0.127871 3.602413
v 1.084955 0.127871 3.125825
v 1.084955 -0.127871 3.125825
v 0.819017 -0.127871 3.602413
v -1.744571 0.176476 5.955275
v -1.023398 0.176476 5.234101
v -1.873984 0.176476 5.234101
v -2.595157 0.176476 5.955275
v -3.169864 0.176476 5.380568
v -3.169864 0.176476 4.577727
v -2.448691 -0.182464 3.856554
v -2.448691 -0.182464 4.659394
v -1.873984 -0.182464 5.234101
v -1.023398 -0.182464 5.234101
v -3.169864 -0.182464 4.577727
v -3.169864 -0.182464 5.380568
v -2.595157 -0.182464 5.955275
v -1.744571 -0.182464 5.955275
v 1.000000 0.178050 2.407863
v 0.425293 0.178050 2.982570
v 0.425293 0.178050 3.785411
v 1.084955 0.178050 3.125825
v 0.819017 0.178050 3.602413
v 0.425293 -0.175045 2.982570
v 1.000000 -0.175045 2.407863
v 0.425293 -0.175045 3.785411
v 0.819017 -0.175045 3.602413
v 1.084955 -0.175045 3.125825
vn -0.0000 1.0000 -0.0000
vn 1.0000 -0.0000 -0.0000
vn -1.0000 -0.0000 -0.0000
vn -0.0000 -1.0000 -0.0000
vn -0.0000 -0.0000 -1.0000
vn 0.9931 -0.0000 -0.1175
vn -0.7071 -0.0000 -0.7071
vn 0.7071 -0.0000 0.7071
vn -0.0000 -0.0000 1.0000
vn -0.7071 -0.0000 0.7071
vn 0.8732 -0.0000 0.4873
vn 0.7071 -0.0000 -0.7071
vn 0.6630 -0.0000 0.7486
vn 0.4215 -0.0000 0.9068
vt 0.625000 0.500000
vt 0.875000 0.500000
vt 0.875000 0.750000
vt 0.625000 0.750000
vt 0.375000 0.750000
vt 0.375000 0.000000
vt 0.625000 0.000000
vt 0.625000 0.250000
vt 0.375000 0.250000
vt 0.125000 0.500000
vt 0.375000 0.500000
vt 0.125000 0.750000
vt 0.303162 0.750000
vt 0.196838 0.750000
vt 0.803162 0.750000
vt 0.696838 0.750000
vt 0.656389 0.750000
vt 0.375000 0.821838
vt 0.625000 0.821838
vt 0.625000 0.928162
vt 0.375000 0.928162
vt 0.625000 0.781389
vt 0.375000 0.781389
vt 0.343611 0.750000
s 0
usemtl Material
f 1/1/1 5/2/1 7/3/1 3/4/1
f 4/5/2 3/4/2 14/4/2 15/5/2
f 8/6/3 7/7/3 5/8/3 6/9/3
f 6/10/4 2/11/4 4/5/4 8/12/4
f 2/11/2 1/1/2 3/4/2 4/5/2
f 6/9/5 5/8/5 1/1/5 2/11/5
f 8/12/4 4/5/4 15/5/4 16/13/4 9/14/4 10/12/4
f 55/15/1 24/3/1 57/3/1 56/15/1
f 3/4/1 7/3/1 11/3/1 12/15/1 13/16/1 14/4/1
f 9/14/4 16/13/4 23/13/4 18/14/4
f 11/7/1 10/6/1 27/6/1 26/7/1
f 7/7/3 8/6/3 10/6/3 11/7/3
f 10/12/1 17/12/1 28/12/1 27/12/1
f 19/15/1 20/3/1 25/3/1 30/15/1
f 15/5/6 14/4/6 50/4/6 51/5/6
f 67/4/1 68/16/1 69/16/1 71/17/1 70/4/1
f 12/15/1 11/3/1 20/3/1 19/15/1
f 13/16/1 12/15/1 19/15/1 22/16/1
f 10/12/4 9/14/4 18/14/4 17/12/4
f 23/13/3 16/13/3 72/13/3 74/13/3
f 29/14/4 32/13/4 40/13/4 37/14/4
f 26/7/7 27/6/7 35/6/7 34/7/7
f 28/12/4 29/14/4 37/14/4 36/12/4
f 17/12/1 18/14/1 29/14/1 28/12/1
f 22/16/1 19/15/1 30/15/1 31/16/1
f 20/3/1 11/3/1 26/3/1 25/3/1
f 18/14/1 23/13/1 32/13/1 29/14/1
f 33/3/2 34/3/2 21/3/2 24/3/2
f 40/18/8 39/19/8 47/19/8 48/18/8
f 47/19/8 39/19/8 54/19/8 53/19/8
f 27/12/4 28/12/4 36/12/4 35/12/4
f 25/3/1 26/3/1 34/3/1 33/3/1
f 31/16/1 30/15/1 38/15/1 39/16/1
f 30/15/1 25/3/1 33/3/1 38/15/1
f 42/7/3 43/6/3 44/6/3 41/7/3
f 48/18/9 47/19/9 46/20/9 45/21/9
f 45/6/10 46/7/10 41/7/10 44/6/10
f 37/14/5 40/13/5 62/13/5 61/14/5
f 34/7/7 35/6/7 43/6/7 42/7/7
f 45/6/10 44/6/10 64/6/10 65/6/10
f 43/6/7 35/6/7 59/6/7 63/6/7
f 41/7/10 46/7/10 56/7/10 57/7/10
f 51/5/11 50/4/11 49/22/11 52/23/11
f 14/4/7 13/16/7 68/16/7 67/4/7
f 54/16/1 55/15/1 56/15/1 53/16/1
f 24/3/1 21/3/1 58/3/1 57/3/1
f 34/7/7 42/7/7 58/7/7 21/7/7
f 39/16/5 38/15/5 55/15/5 54/16/5
f 42/7/3 41/7/3 57/7/3 58/7/3
f 38/15/12 33/3/12 24/3/12 55/15/12
f 46/20/9 47/19/9 53/19/9 56/20/9
f 60/12/4 61/14/4 65/14/4 64/12/4
f 61/14/4 62/13/4 66/13/4 65/14/4
f 59/12/4 60/12/4 64/12/4 63/12/4
f 40/18/8 48/18/8 66/18/8 62/18/8
f 48/18/9 45/21/9 65/21/9 66/18/9
f 35/12/2 36/12/2 60/12/2 59/12/2
f 44/6/3 43/6/3 63/6/3 64/6/3
f 36/12/12 37/14/12 61/14/12 60/12/12
f 50/4/6 14/4/6 67/4/6 70/4/6
f 31/19/13 39/19/13 40/18/13 32/18/13 23/18/13 52/23/13 49/22/13 22/19/13
f 49/22/11 50/4/11 70/4/11 71/22/11
f 22/19/14 49/22/14 71/22/14 69/19/14
f 13/16/3 22/16/3 69/16/3 68/16/3
f 72/13/4 73/5/4 76/5/4 75/24/4 74/13/4
f 51/5/11 52/23/11 75/23/11 76/5/11
f 15/5/6 51/5/6 76/5/6 73/5/6
f 16/13/7 15/5/7 73/5/7 72/13/7
f 52/23/14 23/18/14 74/18/14 75/23/14
