# Blender 4.0.2
# www.blender.org
mtllib box_three_lid.mtl
o Cube
v 1.300992 -0.319612 -0.800992
v 1.300992 -0.319612 0.800992
v -1.300992 -0.319612 -0.800992
v -1.300992 -0.319612 0.800992
v -1.500000 -0.319612 -1.000000
v -1.500000 -0.319612 1.000000
v 1.500000 -0.319612 -1.000000
v 1.500000 -0.319612 1.000000
v -1.300992 -0.056243 -0.800992
v -1.300992 -0.056243 0.800992
v 1.300992 -0.056243 -0.800992
v 1.300992 -0.056243 0.800992
v 1.289320 0.319612 -0.789320
v 1.500000 0.108932 -1.000000
v 1.289320 0.319612 0.789320
v 1.500000 0.108932 1.000000
v -1.289320 0.319612 -0.789320
v -1.500000 0.108932 -1.000000
v -1.289320 0.319612 0.789320
v -1.500000 0.108932 1.000000
vn -0.0000 -0.0000 1.0000
vn -1.0000 -0.0000 -0.0000
vn -0.0000 1.0000 -0.0000
vn 1.0000 -0.0000 -0.0000
vn -0.0000 -1.0000 -0.0000
vn -0.0000 -0.0000 -1.0000
vn -0.0000 0.7071 0.7071
vn 0.7071 0.7071 -0.0000
vn -0.7071 0.7071 -0.0000
vn -0.0000 0.7071 -0.7071
vt 0.375000 0.750000
vt 0.542603 0.750000
vt 0.542603 1.000000
vt 0.375000 1.000000
vt 0.375000 0.000000
vt 0.542603 0.000000
vt 0.542603 0.250000
vt 0.375000 0.250000
vt 0.358416 0.524876
vt 0.358416 0.725124
vt 0.642557 0.526335
vt 0.857443 0.526335
vt 0.857443 0.723665
vt 0.642557 0.723665
vt 0.375000 0.500000
vt 0.542603 0.500000
vt 0.542603 0.750000
vt 0.141584 0.524876
vt 0.141584 0.725124
vt 0.125000 0.750000
vt 0.125000 0.500000
vt 0.875000 0.750000
vt 0.625000 0.750000
vt 0.875000 0.500000
vt 0.625000 0.500000
vt 0.542603 0.250000
vt 0.542603 0.500000
s 0
usemtl Material
f 8/1/1 16/2/1 20/3/1 6/4/1
f 6/5/2 20/6/2 18/7/2 5/8/2
f 1/9/2 2/10/2 12/10/2 11/9/2
f 13/11/3 17/12/3 19/13/3 15/14/3
f 7/15/4 14/16/4 16/17/4 8/1/4
f 3/18/5 4/19/5 6/20/5 5/21/5
f 1/9/5 3/18/5 5/21/5 7/15/5
f 4/19/5 2/10/5 8/1/5 6/20/5
f 2/10/5 1/9/5 7/15/5 8/1/5
f 9/18/5 11/9/5 12/10/5 10/19/5
f 3/18/1 1/9/1 11/9/1 9/18/1
f 2/10/6 4/19/6 10/19/6 12/10/6
f 4/19/4 3/18/4 9/18/4 10/19/4
f 15/14/7 19/13/7 20/22/7 16/23/7
f 13/11/8 15/14/8 16/17/8 14/16/8
f 19/13/9 17/12/9 18/24/9 20/22/9
f 17/12/10 13/11/10 14/25/10 18/24/10
f 5/8/6 18/26/6 14/27/6 7/15/6
