# Blender 3.3.1
# www.blender.org
mtllib closet_001.mtl
o closet_001
v 0.022933 1.463086 0.296390
v 0.594568 1.463086 0.296389
v 0.022933 1.904951 0.296389
v 0.594568 1.904951 0.296389
v 0.594568 1.904951 0.339672
v 0.594568 1.463086 0.339672
v 0.022933 1.904951 0.339672
v 0.022933 1.463086 0.339672
v 0.022933 2.366706 0.296389
v 0.594573 2.366706 0.296389
v 0.594573 2.366706 0.339672
v 0.022933 2.366706 0.339674
v 0.022933 2.366589 0.296389
v 0.594571 2.366590 0.296389
v 0.594571 2.366590 0.339672
v 0.022933 2.366589 0.339674
v 0.022933 1.913097 0.296389
v 0.594568 1.913097 0.296389
v 0.594568 1.913097 0.339672
v 0.022933 1.913097 0.339672
v 0.022933 1.012886 0.296390
v 0.594568 1.012887 0.296390
v 0.022933 1.454752 0.296390
v 0.594568 1.454752 0.296389
v 0.594568 1.454752 0.339672
v 0.594568 1.012887 0.339672
v 0.022933 1.454752 0.339672
v 0.022933 1.012886 0.339672
v 0.022928 0.562688 0.296390
v 0.594569 0.562688 0.296390
v 0.022933 1.004552 0.296390
v 0.594568 1.004553 0.296390
v 0.594568 1.004553 0.339672
v 0.594569 0.562688 0.339672
v 0.022933 1.004552 0.339672
v 0.022928 0.562688 0.339672
v 0.022931 0.100934 0.296390
v 0.594571 0.100934 0.296390
v 0.022931 0.100934 0.339672
v 0.594571 0.100934 0.339672
v 0.022928 0.101050 0.296390
v 0.594569 0.101050 0.296390
v 0.594569 0.101050 0.339672
v 0.022928 0.101050 0.339672
v 0.022930 0.554543 0.296390
v 0.594571 0.554543 0.296390
v 0.594571 0.554543 0.339672
v 0.022930 0.554543 0.339672
v -0.020387 0.000000 0.320526
v 0.020391 0.000000 0.320526
v -0.020385 2.647522 0.320525
v 0.020393 2.647522 0.320525
v -0.020385 2.647522 -0.306795
v 0.020393 2.647522 -0.306795
v -0.020387 -0.000000 -0.306795
v 0.020391 -0.000000 -0.306795
v 0.592032 0.000000 0.320525
v 0.632804 0.000000 0.320525
v 0.592032 2.688297 0.320525
v 0.632803 2.688297 0.320525
v 0.592032 2.688297 -0.306795
v 0.632803 2.688297 -0.306796
v 0.592032 -0.000000 -0.306795
v 0.632804 -0.000000 -0.306795
v -0.632802 -0.000000 0.320526
v -0.592028 -0.000000 0.320526
v -0.632802 2.647522 0.320525
v -0.592026 2.647522 0.320525
v -0.632802 2.647522 -0.306795
v -0.592026 2.647522 -0.306795
v -0.632802 -0.000000 -0.306795
v -0.592028 -0.000000 -0.306795
v -0.632802 2.688297 0.320525
v -0.632802 2.647522 0.320525
v 0.020393 2.688297 0.320525
v 0.020393 2.647522 0.320525
v 0.020393 2.688297 -0.306795
v 0.020393 2.647522 -0.306795
v -0.632802 2.688297 -0.306795
v -0.632802 2.647522 -0.306795
v -0.595929 0.108209 0.255832
v -0.024286 0.108209 0.255831
v -0.595930 2.359431 0.255832
v -0.024284 2.359430 0.255832
v -0.595929 0.108209 0.299107
v -0.024286 0.108209 0.299107
v -0.024284 2.359430 0.299107
v -0.595930 2.359431 0.299107
v -0.619184 0.108209 0.306798
v -0.619184 -0.000000 0.306798
v 0.619185 0.108209 0.306797
v 0.619185 0.000000 0.306797
v -0.619184 0.108208 -0.306795
v 0.619185 0.108208 -0.306795
v -0.619184 2.400208 0.306797
v -0.619184 2.359431 0.306797
v 0.619185 2.400206 0.306797
v 0.619185 2.359430 0.306797
v 0.619185 2.400206 -0.293070
v 0.619185 2.359430 -0.293070
v -0.619184 2.400208 -0.293067
v -0.619184 2.359431 -0.293067
v -0.638593 -0.000000 -0.306795
v 0.638595 -0.000000 -0.306795
v -0.638584 2.688297 -0.306795
v 0.638594 2.688297 -0.306796
v 0.272794 1.676123 0.367309
v 0.352567 1.676123 0.367309
v 0.272791 1.699960 0.367309
v 0.352564 1.699960 0.367309
v 0.206324 1.699960 0.323487
v 0.419031 1.699960 0.323487
v 0.206326 1.676123 0.323487
v 0.419034 1.676123 0.323487
v 0.270281 1.676123 0.381409
v 0.355076 1.676123 0.381409
v 0.355074 1.699960 0.381409
v 0.270281 1.699960 0.381409
v 0.423795 1.676123 0.336107
v 0.423792 1.699960 0.336107
v 0.201566 1.676123 0.336107
v 0.201563 1.699960 0.336107
v -0.085168 1.271762 0.327054
v -0.085168 1.191987 0.327054
v -0.061330 1.271762 0.327054
v -0.061330 1.191987 0.327054
v -0.061330 1.338230 0.283234
v -0.061330 1.125519 0.283234
v -0.085163 1.338230 0.283234
v -0.085163 1.125519 0.283234
v -0.085168 1.274272 0.341155
v -0.085168 1.189476 0.341155
v -0.061330 1.189476 0.341158
v -0.061330 1.274272 0.341158
v -0.085170 1.120761 0.295852
v -0.061330 1.120761 0.295852
v -0.085168 1.342988 0.295852
v -0.061330 1.342988 0.295852
v 0.272791 0.307624 0.367309
v 0.352564 0.307624 0.367309
v 0.272791 0.331461 0.367309
v 0.352564 0.331461 0.367309
v 0.206324 0.331461 0.323487
v 0.419032 0.331461 0.323487
v 0.206324 0.307624 0.323487
v 0.419032 0.307624 0.323487
v 0.270282 0.307624 0.381409
v 0.355074 0.307624 0.381409
v 0.355074 0.331461 0.381409
v 0.270282 0.331461 0.381409
v 0.423792 0.307624 0.336108
v 0.423792 0.331461 0.336108
v 0.201563 0.307624 0.336108
v 0.201563 0.331461 0.336108
v 0.272791 1.219956 0.367309
v 0.352564 1.219956 0.367309
v 0.272791 1.243793 0.367309
v 0.352564 1.243793 0.367309
v 0.206324 1.243793 0.323487
v 0.419031 1.243793 0.323487
v 0.206324 1.219956 0.323487
v 0.419031 1.219956 0.323487
v 0.270281 1.219956 0.381409
v 0.355074 1.219956 0.381409
v 0.355074 1.243793 0.381409
v 0.270281 1.243793 0.381409
v 0.423792 1.219956 0.336108
v 0.423792 1.243793 0.336108
v 0.201563 1.219956 0.336108
v 0.201563 1.243793 0.336108
v 0.272794 0.763790 0.367309
v 0.352567 0.763790 0.367309
v 0.272791 0.787627 0.367309
v 0.352564 0.787627 0.367309
v 0.206324 0.787627 0.323487
v 0.419031 0.787627 0.323487
v 0.206326 0.763790 0.323487
v 0.419034 0.763790 0.323487
v 0.270281 0.763790 0.381409
v 0.355076 0.763790 0.381409
v 0.355074 0.787627 0.381409
v 0.270281 0.787627 0.381409
v 0.423795 0.763790 0.336108
v 0.423792 0.787627 0.336108
v 0.201566 0.763790 0.336108
v 0.201563 0.787627 0.336108
v 0.272791 2.132289 0.367309
v 0.352564 2.132289 0.367309
v 0.272793 2.156126 0.367309
v 0.352566 2.156126 0.367309
v 0.206326 2.156126 0.323487
v 0.419034 2.156126 0.323487
v 0.206324 2.132289 0.323487
v 0.419031 2.132289 0.323487
v 0.270281 2.132289 0.381409
v 0.355074 2.132289 0.381409
v 0.355076 2.156126 0.381409
v 0.270284 2.156126 0.381409
v 0.423792 2.132289 0.336107
v 0.423794 2.156126 0.336107
v 0.201563 2.132289 0.336107
v 0.201565 2.156126 0.336107
v -0.638593 -0.000000 -0.347499
v 0.638595 -0.000000 -0.347499
v 0.638594 2.688297 -0.347500
v -0.638584 2.688297 -0.347500
v -0.619184 -0.000000 -0.306797
v 0.619185 -0.000000 -0.306798
vn 1.0000 -0.0000 -0.0000
vn -0.0000 -0.0000 1.0000
vn -1.0000 -0.0000 -0.0000
vn -0.0000 1.0000 -0.0000
vn -0.0000 0.0002 -1.0000
vn 0.9999 -0.0103 -0.0000
vn 0.9998 -0.0205 -0.0000
vn -0.0000 -0.0001 1.0000
vn -0.0000 -0.0002 1.0000
vn -0.0000 0.0001 -1.0000
vn 0.9998 0.0210 -0.0000
vn 0.9999 0.0105 -0.0000
vn -0.9999 -0.0104 -0.0000
vn -0.9998 -0.0209 -0.0000
vn -0.0000 -1.0000 -0.0000
vn -0.0000 -0.0000 -1.0000
vn -0.2873 -0.0000 0.9578
vn 0.2873 -0.0000 0.9578
vn 0.5504 0.0001 0.8349
vn -0.5504 -0.0000 0.8349
vn 0.2873 -0.0000 -0.9578
vn 0.2874 -0.0000 -0.9578
vn -0.2873 -0.0000 -0.9578
vn -0.2874 -0.0000 -0.9578
vn -0.5504 -0.0001 -0.8349
vn 0.5504 0.0001 -0.8349
vn -0.0001 0.2873 0.9578
vn -0.0001 -0.2873 0.9578
vn -0.0000 -0.5504 0.8349
vn -0.0000 0.5504 0.8349
vn -0.0000 -0.2873 -0.9578
vn -0.0000 0.2873 -0.9578
vn -0.0000 0.5504 -0.8349
vn -0.0000 -0.5504 -0.8349
vn -1.0000 -0.0000 -0.0001
vn -1.0000 0.0001 -0.0001
vn -1.0000 0.0001 -0.0002
vn -1.0000 -0.0001 -0.0002
vn 0.5504 -0.0000 0.8349
vn -0.5504 -0.0000 -0.8349
vn 0.5504 -0.0000 -0.8349
vn 0.5504 -0.0001 0.8349
vn -0.5504 0.0001 0.8349
vn -0.5504 0.0001 -0.8349
vn 0.5504 -0.0001 -0.8349
vt 0.872732 0.067343
vt 0.872731 0.067343
vt 0.872732 0.067343
vt 0.872731 0.067343
vt 0.872731 0.067343
vt 0.872731 0.067343
vt 0.872732 0.067343
vt 0.872732 0.067343
vt 0.872732 0.067343
vt 0.872731 0.067343
vt 0.872731 0.067343
vt 0.872732 0.067343
vt 0.872732 0.067343
vt 0.872731 0.067343
vt 0.872731 0.067343
vt 0.872732 0.067343
vt 0.872732 0.067343
vt 0.872731 0.067343
vt 0.872731 0.067343
vt 0.872732 0.067343
vt 0.872732 0.067343
vt 0.872731 0.067343
vt 0.872732 0.067343
vt 0.872731 0.067343
vt 0.872731 0.067343
vt 0.872731 0.067343
vt 0.872732 0.067343
vt 0.872732 0.067343
vt 0.872732 0.067343
vt 0.872731 0.067343
vt 0.872732 0.067343
vt 0.872731 0.067343
vt 0.872731 0.067343
vt 0.872731 0.067343
vt 0.872732 0.067343
vt 0.872732 0.067343
vt 0.872732 0.067344
vt 0.872731 0.067344
vt 0.872732 0.067344
vt 0.872731 0.067344
vt 0.872732 0.067344
vt 0.872731 0.067344
vt 0.872731 0.067344
vt 0.872732 0.067344
vt 0.872732 0.067343
vt 0.872731 0.067343
vt 0.872731 0.067343
vt 0.872732 0.067343
vt 0.894537 0.794496
vt 0.894440 0.794496
vt 0.894238 0.791513
vt 0.896605 0.796448
vt 0.894070 0.791513
vt 0.896509 0.796448
vt 0.896702 0.796448
vt 0.896412 0.796448
vt 0.896702 0.796785
vt 0.896412 0.796785
vt 0.894537 0.794496
vt 0.894440 0.794496
vt 0.896605 0.796448
vt 0.894238 0.791513
vt 0.896509 0.796448
vt 0.894070 0.791513
vt 0.896702 0.796448
vt 0.894406 0.791513
vt 0.896412 0.796448
vt 0.894070 0.790927
vt 0.896702 0.796785
vt 0.896412 0.796785
vt 0.894537 0.794496
vt 0.894440 0.794496
vt 0.894238 0.791513
vt 0.896605 0.796448
vt 0.894070 0.791513
vt 0.896509 0.796448
vt 0.896702 0.796448
vt 0.896412 0.796448
vt 0.896702 0.796785
vt 0.896412 0.796785
vt 0.896605 0.796785
vt 0.894238 0.792098
vt 0.896509 0.796785
vt 0.894070 0.792098
vt 0.896605 0.796448
vt 0.894238 0.791513
vt 0.896509 0.796448
vt 0.894070 0.791513
vt 0.896702 0.796448
vt 0.894406 0.791513
vt 0.896412 0.796448
vt 0.893902 0.791513
vt 0.896702 0.796785
vt 0.894406 0.792098
vt 0.896412 0.796785
vt 0.893902 0.792098
vt 0.872732 0.067344
vt 0.872731 0.067344
vt 0.872732 0.067343
vt 0.872731 0.067343
vt 0.872732 0.067344
vt 0.872731 0.067344
vt 0.872731 0.067343
vt 0.872732 0.067343
vt 0.894238 0.792098
vt 0.896750 0.796785
vt 0.894070 0.792098
vt 0.896565 0.797219
vt 0.894238 0.791513
vt 0.896364 0.796785
vt 0.894070 0.791513
vt 0.896943 0.797219
vt 0.896750 0.795439
vt 0.896364 0.795439
vt 0.894238 0.792098
vt 0.896605 0.796785
vt 0.894070 0.792098
vt 0.896509 0.796785
vt 0.894238 0.791513
vt 0.896605 0.796448
vt 0.894070 0.791513
vt 0.896509 0.796448
vt 0.896702 0.796448
vt 0.896412 0.796448
vt 0.896702 0.796785
vt 0.896412 0.796785
vt 0.896605 0.796785
vt 0.896509 0.796785
vt 0.896605 0.796448
vt 0.896509 0.796448
vt 0.871193 0.866035
vt 0.866958 0.866035
vt 0.871193 0.861800
vt 0.866958 0.861800
vt 0.875427 0.861800
vt 0.862723 0.861800
vt 0.875427 0.866035
vt 0.862723 0.866035
vt 0.871193 0.866035
vt 0.866958 0.866035
vt 0.866958 0.861800
vt 0.871193 0.861800
vt 0.862723 0.866035
vt 0.862723 0.861800
vt 0.875427 0.866035
vt 0.875427 0.861800
vt 0.871193 0.866035
vt 0.866958 0.866035
vt 0.871193 0.861800
vt 0.866958 0.861800
vt 0.875427 0.861800
vt 0.862723 0.861800
vt 0.875427 0.866035
vt 0.862723 0.866035
vt 0.871193 0.866035
vt 0.866958 0.866035
vt 0.866958 0.861800
vt 0.871193 0.861800
vt 0.862723 0.866035
vt 0.862723 0.861800
vt 0.875427 0.866035
vt 0.875427 0.861800
vt 0.871193 0.866035
vt 0.866958 0.866035
vt 0.871193 0.861800
vt 0.866958 0.861800
vt 0.875427 0.861800
vt 0.862723 0.861800
vt 0.875427 0.866035
vt 0.862723 0.866035
vt 0.871193 0.866035
vt 0.866958 0.866035
vt 0.866958 0.861800
vt 0.871193 0.861800
vt 0.862723 0.866035
vt 0.862723 0.861800
vt 0.875427 0.866035
vt 0.875427 0.861800
vt 0.871193 0.866035
vt 0.866958 0.866035
vt 0.871193 0.861800
vt 0.866958 0.861800
vt 0.875427 0.861800
vt 0.862723 0.861800
vt 0.875427 0.866035
vt 0.862723 0.866035
vt 0.871193 0.866035
vt 0.866958 0.866035
vt 0.866958 0.861800
vt 0.871193 0.861800
vt 0.862723 0.866035
vt 0.862723 0.861800
vt 0.875427 0.866035
vt 0.875427 0.861800
vt 0.871193 0.866035
vt 0.866958 0.866035
vt 0.871193 0.861800
vt 0.866958 0.861800
vt 0.875427 0.861800
vt 0.862723 0.861800
vt 0.875427 0.866035
vt 0.862723 0.866035
vt 0.871193 0.866035
vt 0.866958 0.866035
vt 0.866958 0.861800
vt 0.871193 0.861800
vt 0.862723 0.866035
vt 0.862723 0.861800
vt 0.875427 0.866035
vt 0.875427 0.861800
vt 0.871193 0.866035
vt 0.866958 0.866035
vt 0.871193 0.861800
vt 0.866958 0.861800
vt 0.875427 0.861800
vt 0.862723 0.861800
vt 0.875427 0.866035
vt 0.862723 0.866035
vt 0.871193 0.866035
vt 0.866958 0.866035
vt 0.866958 0.861800
vt 0.871193 0.861800
vt 0.862723 0.866035
vt 0.862723 0.861800
vt 0.875427 0.866035
vt 0.875427 0.861800
vt 0.896605 0.796785
vt 0.896509 0.796785
vt 0.896509 0.796448
vt 0.896605 0.796448
vt 0.896565 0.796840
vt 0.896943 0.796840
s 1
usemtl Material
f 2/2/1 4/4/1 5/5/1 6/6/1
f 6/6/2 5/5/2 7/7/2 8/8/2
f 3/3/3 1/1/3 8/8/3 7/7/3
f 5/5/4 4/4/4 3/3/4 7/7/4
f 10/10/4 9/9/4 12/12/4 11/11/4
f 14/14/5 13/13/5 9/9/5 10/10/5
f 15/15/6 14/14/6 10/10/7 11/11/7
f 16/16/8 15/15/8 11/11/9 12/12/9
f 9/9/3 13/13/3 16/16/3 12/12/3
f 18/18/1 14/14/6 15/15/6 19/19/1
f 19/19/2 15/15/8 16/16/8 20/20/2
f 13/13/3 17/17/3 20/20/3 16/16/3
f 22/22/1 24/24/1 25/25/1 26/26/1
f 26/26/2 25/25/2 27/27/2 28/28/2
f 23/23/3 21/21/3 28/28/3 27/27/3
f 25/25/4 24/24/4 23/23/4 27/27/4
f 30/30/1 32/32/1 33/33/1 34/34/1
f 34/34/2 33/33/2 35/35/2 36/36/2
f 31/31/3 29/29/3 36/36/3 35/35/3
f 33/33/4 32/32/4 31/31/4 35/35/4
f 39/39/9 40/40/9 43/43/8 44/44/8
f 37/37/10 41/41/10 42/42/10 38/38/10
f 38/38/11 42/42/12 43/43/12 40/40/11
f 44/44/13 41/41/13 37/37/14 39/39/14
f 42/42/12 46/46/1 47/47/1 43/43/12
f 43/43/8 47/47/2 48/48/2 44/44/8
f 45/45/3 41/41/13 44/44/13 48/48/3
f 47/47/4 46/46/4 45/45/4 48/48/4
f 49/49/2 50/50/2 52/53/2 51/51/2
f 50/50/1 56/58/1 54/56/1 52/54/1
f 55/57/3 49/49/3 51/52/3 53/55/3
f 57/59/2 58/60/2 60/64/2 59/62/2
f 58/60/1 64/70/1 62/67/1 60/63/1
f 63/69/3 57/59/3 59/61/3 61/65/3
f 61/66/4 59/62/4 60/64/4 62/68/4
f 65/71/2 66/72/2 68/75/2 67/73/2
f 66/72/1 72/80/1 70/78/1 68/76/1
f 71/79/3 65/71/3 67/74/3 69/77/3
f 73/82/2 74/84/2 76/88/2 75/86/2
f 74/83/15 80/95/15 78/91/15 76/87/15
f 79/93/4 73/81/4 75/85/4 77/89/4
f 73/82/3 79/94/3 80/96/3 74/84/3
f 77/90/1 75/86/1 76/88/1 78/92/1
f 85/101/2 86/102/2 87/103/2 88/104/2
f 81/97/16 83/99/16 84/100/16 82/98/16
f 82/98/1 84/100/1 87/103/1 86/102/1
f 84/100/4 83/99/4 88/104/4 87/103/4
f 83/99/3 81/97/3 85/101/3 88/104/3
f 89/105/2 90/107/2 92/111/2 91/109/2
f 89/106/4 91/110/4 94/114/4 93/113/4
f 95/115/2 96/117/2 98/121/2 97/119/2
f 96/118/15 102/126/15 100/124/15 98/122/15
f 101/125/4 95/116/4 97/120/4 99/123/4
f 103/127/2 104/128/2 106/130/2 105/129/2
f 115/139/17 116/140/18 117/141/18 118/142/17
f 116/140/18 119/143/19 120/144/19 117/141/18
f 121/145/20 115/139/17 118/142/17 122/146/20
f 107/131/21 109/133/22 110/134/23 108/132/24
f 108/132/24 110/134/23 112/136/25 114/138/25
f 113/137/26 111/135/26 109/133/22 107/131/21
f 107/131/15 108/132/15 116/140/15 115/139/15
f 110/134/4 109/133/4 118/142/4 117/141/4
f 108/132/15 114/138/15 119/143/15 116/140/15
f 112/136/4 110/134/4 117/141/4 120/144/4
f 113/137/15 107/131/15 115/139/15 121/145/15
f 109/133/4 111/135/4 122/146/4 118/142/4
f 131/155/27 132/156/28 133/157/28 134/158/27
f 132/156/28 135/159/29 136/160/29 133/157/28
f 137/161/30 131/155/27 134/158/27 138/162/30
f 123/147/31 125/149/31 126/150/32 124/148/32
f 124/148/32 126/150/32 128/152/33 130/154/33
f 129/153/34 127/151/34 125/149/31 123/147/31
f 123/147/35 124/148/36 132/156/36 131/155/35
f 126/150/1 125/149/1 134/158/1 133/157/1
f 124/148/36 130/154/37 135/159/37 132/156/36
f 128/152/1 126/150/1 133/157/1 136/160/1
f 129/153/38 123/147/35 131/155/35 137/161/38
f 125/149/1 127/151/1 138/162/1 134/158/1
f 147/171/17 148/172/18 149/173/18 150/174/17
f 148/172/18 151/175/39 152/176/39 149/173/18
f 153/177/20 147/171/17 150/174/17 154/178/20
f 139/163/21 141/165/21 142/166/23 140/164/23
f 140/164/23 142/166/23 144/168/40 146/170/40
f 145/169/41 143/167/41 141/165/21 139/163/21
f 139/163/15 140/164/15 148/172/15 147/171/15
f 142/166/4 141/165/4 150/174/4 149/173/4
f 140/164/15 146/170/15 151/175/15 148/172/15
f 144/168/4 142/166/4 149/173/4 152/176/4
f 145/169/15 139/163/15 147/171/15 153/177/15
f 141/165/4 143/167/4 154/178/4 150/174/4
f 163/187/17 164/188/18 165/189/18 166/190/17
f 164/188/18 167/191/39 168/192/39 165/189/18
f 169/193/20 163/187/17 166/190/17 170/194/20
f 155/179/21 157/181/21 158/182/23 156/180/23
f 156/180/23 158/182/23 160/184/40 162/186/40
f 161/185/41 159/183/41 157/181/21 155/179/21
f 155/179/15 156/180/15 164/188/15 163/187/15
f 158/182/4 157/181/4 166/190/4 165/189/4
f 156/180/15 162/186/15 167/191/15 164/188/15
f 160/184/4 158/182/4 165/189/4 168/192/4
f 161/185/15 155/179/15 163/187/15 169/193/15
f 157/181/4 159/183/4 170/194/4 166/190/4
f 179/203/17 180/204/18 181/205/18 182/206/17
f 180/204/18 183/207/19 184/208/19 181/205/18
f 185/209/20 179/203/17 182/206/17 186/210/20
f 171/195/21 173/197/22 174/198/23 172/196/24
f 172/196/24 174/198/23 176/200/25 178/202/25
f 177/201/26 175/199/26 173/197/22 171/195/21
f 171/195/15 172/196/15 180/204/15 179/203/15
f 174/198/4 173/197/4 182/206/4 181/205/4
f 172/196/15 178/202/15 183/207/15 180/204/15
f 176/200/4 174/198/4 181/205/4 184/208/4
f 177/201/15 171/195/15 179/203/15 185/209/15
f 173/197/4 175/199/4 186/210/4 182/206/4
f 195/219/17 196/220/18 197/221/18 198/222/17
f 196/220/18 199/223/42 200/224/42 197/221/18
f 201/225/43 195/219/17 198/222/17 202/226/43
f 187/211/22 189/213/21 190/214/24 188/212/23
f 188/212/23 190/214/24 192/216/44 194/218/44
f 193/217/45 191/215/45 189/213/21 187/211/22
f 187/211/15 188/212/15 196/220/15 195/219/15
f 190/214/4 189/213/4 198/222/4 197/221/4
f 188/212/15 194/218/15 199/223/15 196/220/15
f 192/216/4 190/214/4 197/221/4 200/224/4
f 193/217/15 187/211/15 195/219/15 201/225/15
f 189/213/4 191/215/4 202/226/4 198/222/4
f 203/227/16 206/230/16 205/229/16 204/228/16
f 106/130/4 205/229/4 206/230/4 105/129/4
f 105/129/3 206/230/3 203/227/3 103/127/3
f 103/127/15 203/227/15 204/228/15 104/128/15
f 104/128/1 204/228/1 205/229/1 106/130/1
f 72/80/15 66/72/15 65/71/15 71/79/15
f 64/70/15 58/60/15 57/59/15 63/69/15
f 38/38/15 40/40/15 39/39/15 37/37/15
f 56/58/15 50/50/15 49/49/15 55/57/15
f 92/112/15 90/108/15 207/231/15 208/232/15
