# Blender 3.3.1
# www.blender.org
mtllib fridge_001.mtl
o fridge_001
v -0.339096 -0.000000 -0.305697
v 0.339097 0.000000 -0.305697
v -0.345981 0.060933 0.355138
v 0.345977 0.060933 0.355138
v 0.140743 0.060932 0.375962
v -0.140747 0.060932 0.375962
v -0.339097 1.865349 -0.305697
v 0.339097 1.865350 -0.305697
v 0.345977 1.855227 0.355137
v -0.345981 1.855227 0.355138
v -0.140747 1.855227 0.375962
v 0.140742 1.855228 0.375962
v 0.345977 0.060933 0.298850
v 0.339097 0.000000 0.305697
v -0.339096 0.000000 0.305697
v -0.345981 0.060933 0.298850
v -0.339096 1.865349 0.305697
v -0.345981 1.855227 0.298850
v 0.345977 1.855227 0.298850
v 0.339097 1.865350 0.305697
v 0.345977 0.743473 0.355138
v 0.345977 0.762090 0.355138
v -0.345981 0.743473 0.355138
v -0.345981 0.762090 0.355138
v -0.140747 0.743473 0.375962
v -0.140747 0.762090 0.375962
v 0.140743 0.762090 0.375962
v 0.140743 0.743473 0.375962
v 0.345977 0.762090 0.298850
v 0.345977 0.743473 0.298850
v -0.345981 0.743473 0.298850
v -0.345981 0.762090 0.298850
v 0.302158 1.799392 0.360861
v 0.184563 1.799392 0.372795
v 0.302158 1.764740 0.360861
v 0.184563 1.764740 0.372795
v -0.345981 1.918242 0.386259
v 0.345977 1.918243 0.386259
v 0.345977 1.918242 -0.305697
v -0.345981 1.918242 -0.305697
v -0.140747 1.918242 0.407083
v 0.140742 1.918243 0.407083
v -0.345981 1.865349 -0.305697
v 0.345977 1.865350 -0.305697
v 0.345977 1.865350 0.386259
v -0.345981 1.865349 0.386259
v -0.140747 1.865350 0.407083
v 0.140742 1.865350 0.407083
v -0.258068 0.838578 0.386406
v -0.258069 1.788316 0.386406
v -0.228659 0.838578 0.386406
v -0.228659 1.788316 0.386406
v -0.258068 0.812800 0.415812
v -0.258069 1.814640 0.415811
v -0.228659 0.812800 0.415812
v -0.228659 1.814640 0.415811
v -0.258068 0.838578 0.327765
v -0.258069 1.788316 0.327765
v -0.228659 0.838578 0.327765
v -0.228659 1.788316 0.327765
v -0.258068 0.812800 0.327765
v -0.258069 1.814640 0.327765
v -0.228659 0.812800 0.327765
v -0.228659 1.814640 0.327765
v -0.258068 0.129154 0.386406
v -0.258068 0.676998 0.386406
v -0.228659 0.129154 0.386406
v -0.228659 0.676998 0.386406
v -0.258068 0.103376 0.415812
v -0.258068 0.703322 0.415812
v -0.228659 0.103376 0.415812
v -0.228659 0.703322 0.415812
v -0.258068 0.129154 0.327765
v -0.258068 0.676998 0.327765
v -0.228659 0.129154 0.327765
v -0.228659 0.676998 0.327765
v -0.258068 0.103376 0.327765
v -0.258068 0.703322 0.327765
v -0.228659 0.103376 0.327765
v -0.228659 0.703322 0.327765
vn -0.0505 -0.0000 0.9987
vn -0.1009 -0.0000 0.9949
vn 0.0505 -0.0000 0.9987
vn 0.1009 -0.0000 0.9949
vn -1.0000 -0.0000 -0.0000
vn 1.0000 -0.0000 -0.0000
vn -0.0000 1.0000 -0.0000
vn -0.0000 -0.0000 1.0000
vn 0.1010 -0.0000 0.9949
vn -0.0000 -0.0000 -1.0000
vn -0.0000 -1.0000 -0.0000
vt 0.952100 0.131437
vt 0.950387 0.131437
vt 0.950288 0.132445
vt 0.952563 0.131321
vt 0.952721 0.131321
vt 0.950288 0.131437
vt 0.950288 0.131736
vt 0.950288 0.132146
vt 0.952100 0.128720
vt 0.950387 0.128720
vt 0.952129 0.130327
vt 0.952991 0.130327
vt 0.952100 0.128720
vt 0.952129 0.131335
vt 0.953070 0.128720
vt 0.952991 0.130327
vt 0.952100 0.131036
vt 0.952782 0.128720
vt 0.952100 0.130626
vt 0.952388 0.128720
vt 0.952642 0.131321
vt 0.951244 0.131437
vt 0.950387 0.128720
vt 0.949438 0.128720
vt 0.951244 0.131437
vt 0.952642 0.131321
vt 0.951244 0.128720
vt 0.949438 0.131437
vt 0.952208 0.131335
vt 0.953070 0.130327
vt 0.952208 0.130327
vt 0.952912 0.130327
vt 0.951244 0.128720
vt 0.950387 0.131437
vt 0.951244 0.131437
vt 0.952237 0.130327
vt 0.952721 0.130327
vt 0.952991 0.131934
vt 0.952100 0.130327
vt 0.951244 0.132445
vt 0.952563 0.130327
vt 0.952237 0.131335
vt 0.953070 0.130327
vt 0.952991 0.131934
vt 0.951244 0.132146
vt 0.952208 0.131036
vt 0.952782 0.130327
vt 0.952388 0.130327
vt 0.951244 0.131736
vt 0.952208 0.130626
vt 0.952912 0.131934
vt 0.952316 0.130327
vt 0.952642 0.130327
vt 0.952642 0.130327
vt 0.952316 0.131335
vt 0.953070 0.131934
vt 0.876479 0.065598
vt 0.876479 0.072015
vt 0.870061 0.065598
vt 0.870061 0.072015
vt 0.952464 0.132209
vt 0.951244 0.131467
vt 0.952721 0.130327
vt 0.952213 0.131467
vt 0.952390 0.131201
vt 0.952721 0.131335
vt 0.952302 0.132342
vt 0.951854 0.131838
vt 0.951531 0.131437
vt 0.952721 0.130626
vt 0.951926 0.131437
vt 0.952721 0.131035
vt 0.952539 0.131201
vt 0.952464 0.132209
vt 0.952464 0.131201
vt 0.952795 0.131335
vt 0.952795 0.130327
vt 0.952539 0.132209
vt 0.952795 0.130626
vt 0.952795 0.131035
vt 0.896377 0.562814
vt 0.897789 0.562279
vt 0.897693 0.562927
vt 0.896377 0.562814
vt 0.897789 0.561707
vt 0.897676 0.562356
vt 0.897789 0.562310
vt 0.896394 0.562814
vt 0.897676 0.562927
vt 0.896360 0.562814
vt 0.897789 0.562881
vt 0.897659 0.562356
vt 0.896326 0.562814
vt 0.897772 0.562294
vt 0.897659 0.562958
vt 0.896343 0.562814
vt 0.897772 0.561692
vt 0.897772 0.562294
vt 0.896309 0.562814
vt 0.896360 0.562814
vt 0.897772 0.562897
vt 0.896377 0.562849
vt 0.897823 0.562279
vt 0.896377 0.562849
vt 0.897823 0.561707
vt 0.897823 0.562310
vt 0.896394 0.562849
vt 0.896360 0.562849
vt 0.897823 0.562881
vt 0.896326 0.562867
vt 0.897823 0.562294
vt 0.896343 0.562867
vt 0.897823 0.561692
vt 0.897823 0.562294
vt 0.896309 0.562867
vt 0.896360 0.562867
vt 0.897823 0.562897
vt 0.897563 0.563096
vt 0.896394 0.562814
vt 0.897529 0.562701
vt 0.897563 0.562766
vt 0.896428 0.562814
vt 0.897529 0.562371
vt 0.897580 0.563096
vt 0.897495 0.562701
vt 0.896411 0.562814
vt 0.897580 0.562766
vt 0.896411 0.562814
vt 0.897495 0.562371
vt 0.897628 0.563127
vt 0.896343 0.562814
vt 0.897512 0.562717
vt 0.897628 0.562766
vt 0.896292 0.562814
vt 0.897512 0.562356
vt 0.897611 0.563127
vt 0.897512 0.562717
vt 0.896326 0.562814
vt 0.897611 0.562766
vt 0.896309 0.562814
vt 0.897512 0.562356
vt 0.896394 0.562849
vt 0.897563 0.562701
vt 0.896428 0.562849
vt 0.897563 0.562371
vt 0.897461 0.562701
vt 0.896411 0.562849
vt 0.896411 0.562849
vt 0.897461 0.562371
vt 0.896343 0.562867
vt 0.897563 0.562717
vt 0.896292 0.562867
vt 0.897563 0.562356
vt 0.897461 0.562717
vt 0.896326 0.562867
vt 0.896309 0.562867
vt 0.897461 0.562356
s 1
usemtl Material
f 6/8/1 25/45/1 23/40/2 3/3/2
f 11/18/1 26/47/1 27/48/3 12/20/3
f 25/45/1 6/8/1 5/7/3 28/49/3
f 4/6/4 21/35/4 28/49/3 5/7/3
f 3/4/5 23/41/5 31/54/5 16/26/5
f 2/2/6 8/10/6 20/33/6 14/22/6
f 15/25/5 17/27/5 7/9/5 1/1/5
f 19/31/7 18/29/7 10/14/7 9/11/7
f 12/19/7 9/11/7 10/14/7 11/17/7
f 14/23/8 20/34/8 17/28/8 15/24/8
f 26/47/1 11/18/1 10/15/2 24/43/2
f 29/51/6 19/32/6 9/12/6 22/38/6
f 24/44/5 10/16/5 18/30/5 32/56/5
f 22/39/4 9/13/4 12/20/3 27/48/3
f 28/50/7 21/36/7 23/42/7 25/46/7
f 31/55/7 23/42/7 21/36/7 30/52/7
f 13/21/6 30/53/6 21/37/6 4/5/6
f 35/59/9 33/57/9 34/58/9 36/60/9
f 38/64/7 39/67/7 42/71/7
f 44/74/6 39/67/6 38/65/6 45/75/6
f 46/78/5 37/61/5 40/68/5 43/73/5
f 45/76/4 38/66/4 42/72/3 48/80/3
f 41/69/7 40/68/7 37/62/7
f 47/79/1 41/70/1 37/63/2 46/77/2
f 40/68/7 41/69/7 42/71/7 39/67/7
f 41/70/1 47/79/1 48/80/3 42/72/3
f 49/82/10 50/83/10 52/89/10 51/86/10
f 51/87/6 52/91/6 56/101/6 55/98/6
f 55/98/8 56/101/8 54/95/8 53/92/8
f 53/94/5 54/97/5 50/85/5 49/82/5
f 51/87/6 55/98/6 63/114/6 59/106/6
f 54/96/7 56/100/7 64/116/7 62/112/7
f 52/90/11 50/84/11 58/104/11 60/108/11
f 50/85/5 54/97/5 62/113/5 58/105/5
f 49/81/7 51/88/7 59/107/7 57/102/7
f 55/99/11 53/93/11 61/110/11 63/115/11
f 56/101/6 52/91/6 60/109/6 64/117/6
f 53/94/5 49/82/5 57/103/5 61/111/5
f 65/118/10 66/121/10 68/127/10 67/124/10
f 67/125/6 68/129/6 72/141/6 71/137/6
f 71/136/8 72/139/8 70/133/8 69/130/8
f 69/132/5 70/135/5 66/123/5 65/120/5
f 67/125/6 71/137/6 79/154/6 75/146/6
f 70/134/7 72/140/7 80/156/7 78/152/7
f 68/128/11 66/122/11 74/144/11 76/148/11
f 66/123/5 70/135/5 78/153/5 74/145/5
f 65/119/7 67/126/7 75/147/7 73/142/7
f 71/138/11 69/131/11 77/150/11 79/155/11
f 72/141/6 68/129/6 76/149/6 80/157/6
f 69/132/5 65/120/5 73/143/5 77/151/5
f 8/10/10 2/2/10 1/1/10 7/9/10
f 39/67/10 44/74/10 43/73/10 40/68/10
f 48/80/11 47/79/11 46/78/11 43/73/11 44/74/11 45/76/11
f 15/25/11 1/1/11 2/2/11 14/23/11
f 3/4/11 16/26/11 13/21/11 4/5/11
f 5/7/11 6/8/11 3/4/11 4/6/11
f 29/51/11 22/38/11 24/44/11 32/56/11
f 27/48/11 26/47/11 24/44/11 22/39/11
