# Blender 4.0.2
# www.blender.org
mtllib key.mtl
o Torus.001
v 0.000000 -1.190000 1.317167
v -0.181898 -1.119336 1.317167
v -0.294318 -0.934336 1.317167
v -0.294318 -0.705664 1.317167
v -0.181898 -0.520664 1.317167
v 0.000000 -0.450000 1.317167
v 0.181899 -0.520664 1.317167
v 0.294318 -0.705664 1.317167
v 0.294318 -0.934336 1.317167
v 0.181899 -1.119336 1.317167
v 0.000000 -0.911593 0.552249
v -0.181898 -0.857461 0.597671
v -0.294318 -0.715743 0.716587
v -0.294318 -0.540570 0.863575
v -0.181898 -0.398852 0.982490
v 0.000000 -0.344720 1.027912
v 0.181899 -0.398852 0.982490
v 0.294318 -0.540570 0.863575
v 0.294318 -0.715743 0.716587
v 0.181899 -0.857461 0.597671
v 0.000000 -0.206641 0.145245
v -0.181898 -0.194371 0.214836
v -0.294318 -0.162246 0.397025
v -0.294318 -0.122537 0.622223
v -0.181899 -0.090412 0.804413
v 0.000000 -0.078142 0.874003
v 0.181899 -0.090412 0.804413
v 0.294318 -0.122537 0.622223
v 0.294318 -0.162246 0.397025
v 0.181899 -0.194371 0.214836
v -0.000000 0.595000 0.286596
v -0.181899 0.559668 0.347793
v -0.294318 0.467168 0.508008
v -0.294318 0.352832 0.706044
v -0.181899 0.260332 0.866258
v -0.000000 0.225000 0.927455
v 0.181898 0.260332 0.866258
v 0.294318 0.352832 0.706044
v 0.294318 0.467168 0.508008
v 0.181898 0.559668 0.347793
v -0.000000 1.118234 0.910162
v -0.181899 1.051832 0.934331
v -0.294318 0.877989 0.997604
v -0.294318 0.663107 1.075815
v -0.181899 0.489264 1.139089
v -0.000000 0.422862 1.163257
v 0.181898 0.489264 1.139089
v 0.294318 0.663107 1.075815
v 0.294318 0.877989 0.997604
v 0.181898 1.051832 0.934331
v -0.000000 1.118234 1.724170
v -0.181899 1.051832 1.700002
v -0.294318 0.877989 1.636728
v -0.294318 0.663107 1.558518
v -0.181899 0.489264 1.495244
v -0.000000 0.422862 1.471076
v 0.181898 0.489264 1.495244
v 0.294318 0.663107 1.558518
v 0.294318 0.877989 1.636728
v 0.181898 1.051832 1.700002
v -0.000000 0.595000 2.347737
v -0.181899 0.559668 2.286541
v -0.294318 0.467168 2.126326
v -0.294318 0.352832 1.928290
v -0.181899 0.260332 1.768075
v -0.000000 0.225000 1.706878
v 0.181898 0.260332 1.768075
v 0.294318 0.352832 1.928290
v 0.294318 0.467168 2.126326
v 0.181898 0.559668 2.286541
v 0.000000 -0.206641 2.489088
v -0.181898 -0.194371 2.419498
v -0.294318 -0.162246 2.237309
v -0.294318 -0.122537 2.012110
v -0.181899 -0.090412 1.829921
v 0.000000 -0.078142 1.760330
v 0.181899 -0.090412 1.829921
v 0.294318 -0.122537 2.012110
v 0.294318 -0.162246 2.237309
v 0.181899 -0.194371 2.419498
v 0.000000 -0.911593 2.082084
v -0.181898 -0.857461 2.036662
v -0.294318 -0.715743 1.917747
v -0.294318 -0.540570 1.770759
v -0.181898 -0.398852 1.651843
v 0.000000 -0.344720 1.606421
v 0.181899 -0.398852 1.651843
v 0.294318 -0.540570 1.770759
v 0.294318 -0.715743 1.917747
v 0.181899 -0.857461 2.036662
vn -0.3429 -0.8827 -0.3213
vn -0.8397 -0.5103 -0.1857
vn -1.0000 -0.0000 -0.0000
vn -0.8397 0.5103 0.1857
vn -0.3429 0.8827 0.3213
vn 0.3429 0.8827 0.3213
vn 0.8397 0.5103 0.1857
vn 1.0000 -0.0000 -0.0000
vn 0.8397 -0.5103 -0.1857
vn 0.3429 -0.8827 -0.3213
vn -0.3429 -0.4697 -0.8135
vn -0.8397 -0.2715 -0.4703
vn -0.8397 0.2715 0.4703
vn -0.3429 0.4697 0.8135
vn 0.3429 0.4697 0.8135
vn 0.8397 0.2715 0.4703
vn 0.8397 -0.2715 -0.4703
vn 0.3429 -0.4697 -0.8135
vn -0.3429 0.1631 -0.9251
vn -0.8397 0.0943 -0.5348
vn -0.8397 -0.0943 0.5348
vn -0.3429 -0.1631 0.9251
vn 0.3429 -0.1631 0.9251
vn 0.8397 -0.0943 0.5348
vn 0.8397 0.0943 -0.5348
vn 0.3429 0.1631 -0.9251
vn -0.3429 0.7196 -0.6038
vn -0.8397 0.4160 -0.3490
vn -0.8397 -0.4160 0.3490
vn -0.3429 -0.7196 0.6038
vn 0.3429 -0.7196 0.6038
vn 0.8397 -0.4160 0.3490
vn 0.8397 0.4160 -0.3490
vn 0.3429 0.7196 -0.6038
vn -0.3429 0.9394 -0.0000
vn -0.8397 0.5430 -0.0000
vn -0.8397 -0.5430 -0.0000
vn -0.3429 -0.9394 -0.0000
vn 0.3429 -0.9394 -0.0000
vn 0.8397 -0.5430 -0.0000
vn 0.8397 0.5430 -0.0000
vn 0.3429 0.9394 -0.0000
vn -0.3429 0.7196 0.6038
vn -0.8397 0.4160 0.3490
vn -0.8397 -0.4160 -0.3490
vn -0.3429 -0.7196 -0.6038
vn 0.3429 -0.7196 -0.6038
vn 0.8397 -0.4160 -0.3490
vn 0.8397 0.4160 0.3490
vn 0.3429 0.7196 0.6038
vn -0.3429 0.1631 0.9251
vn -0.8397 0.0943 0.5348
vn -0.8397 -0.0943 -0.5348
vn -0.3429 -0.1631 -0.9251
vn 0.3429 -0.1631 -0.9251
vn 0.8397 -0.0943 -0.5348
vn 0.8397 0.0943 0.5348
vn 0.3429 0.1631 0.9251
vn -0.3429 -0.4697 0.8135
vn -0.8397 -0.2715 0.4703
vn -0.8397 0.2715 -0.4703
vn -0.3429 0.4697 -0.8135
vn 0.3429 0.4697 -0.8135
vn 0.8397 0.2715 -0.4703
vn 0.8397 -0.2715 0.4703
vn 0.3429 -0.4697 0.8135
vn -0.3429 -0.8827 0.3213
vn -0.8397 -0.5103 0.1857
vn -0.8397 0.5103 -0.1857
vn -0.3429 0.8827 -0.3213
vn 0.3429 0.8827 -0.3213
vn 0.8397 0.5103 -0.1857
vn 0.8397 -0.5103 0.1857
vn 0.3429 -0.8827 0.3213
vt 0.555556 0.600000
vt 0.666667 0.600000
vt 0.666667 0.700000
vt 0.555556 0.700000
vt 0.666667 0.800000
vt 0.555556 0.800000
vt 0.666667 0.900000
vt 0.555556 0.900000
vt 0.666667 1.000000
vt 0.555556 1.000000
vt 0.555556 -0.000000
vt 0.666667 -0.000000
vt 0.666667 0.100000
vt 0.555556 0.100000
vt 0.666667 0.200000
vt 0.555556 0.200000
vt 0.666667 0.300000
vt 0.555556 0.300000
vt 0.666667 0.400000
vt 0.555556 0.400000
vt 0.666667 0.500000
vt 0.555556 0.500000
vt 0.777778 0.600000
vt 0.777778 0.700000
vt 0.777778 0.800000
vt 0.777778 0.900000
vt 0.777778 1.000000
vt 0.777778 -0.000000
vt 0.777778 0.100000
vt 0.777778 0.200000
vt 0.777778 0.300000
vt 0.777778 0.400000
vt 0.777778 0.500000
vt 0.888889 0.600000
vt 0.888889 0.700000
vt 0.888889 0.800000
vt 0.888889 0.900000
vt 0.888889 1.000000
vt 0.888889 -0.000000
vt 0.888889 0.100000
vt 0.888889 0.200000
vt 0.888889 0.300000
vt 0.888889 0.400000
vt 0.888889 0.500000
vt 1.000000 0.600000
vt 1.000000 0.700000
vt 1.000000 0.800000
vt 1.000000 0.900000
vt 1.000000 1.000000
vt 1.000000 -0.000000
vt 1.000000 0.100000
vt 1.000000 0.200000
vt 1.000000 0.300000
vt 1.000000 0.400000
vt 1.000000 0.500000
vt 0.000000 0.600000
vt 0.111111 0.600000
vt 0.111111 0.700000
vt 0.000000 0.700000
vt 0.111111 0.800000
vt 0.000000 0.800000
vt 0.111111 0.900000
vt 0.000000 0.900000
vt 0.111111 1.000000
vt 0.000000 1.000000
vt 0.000000 -0.000000
vt 0.111111 -0.000000
vt 0.111111 0.100000
vt 0.000000 0.100000
vt 0.111111 0.200000
vt 0.000000 0.200000
vt 0.111111 0.300000
vt 0.000000 0.300000
vt 0.111111 0.400000
vt 0.000000 0.400000
vt 0.111111 0.500000
vt 0.000000 0.500000
vt 0.222222 0.600000
vt 0.222222 0.700000
vt 0.222222 0.800000
vt 0.222222 0.900000
vt 0.222222 1.000000
vt 0.222222 -0.000000
vt 0.222222 0.100000
vt 0.222222 0.200000
vt 0.222222 0.300000
vt 0.222222 0.400000
vt 0.222222 0.500000
vt 0.333333 0.600000
vt 0.333333 0.700000
vt 0.333333 0.800000
vt 0.333333 0.900000
vt 0.333333 1.000000
vt 0.333333 -0.000000
vt 0.333333 0.100000
vt 0.333333 0.200000
vt 0.333333 0.300000
vt 0.333333 0.400000
vt 0.333333 0.500000
vt 0.444444 0.600000
vt 0.444444 0.700000
vt 0.444444 0.800000
vt 0.444444 0.900000
vt 0.444444 1.000000
vt 0.444444 -0.000000
vt 0.444444 0.100000
vt 0.444444 0.200000
vt 0.444444 0.300000
vt 0.444444 0.400000
vt 0.444444 0.500000
s 0
f 1/1/1 2/4/1 12/3/1 11/2/1
f 2/4/2 3/6/2 13/5/2 12/3/2
f 3/6/3 4/8/3 14/7/3 13/5/3
f 4/8/4 5/10/4 15/9/4 14/7/4
f 5/11/5 6/14/5 16/13/5 15/12/5
f 6/14/6 7/16/6 17/15/6 16/13/6
f 7/16/7 8/18/7 18/17/7 17/15/7
f 8/18/8 9/20/8 19/19/8 18/17/8
f 9/20/9 10/22/9 20/21/9 19/19/9
f 10/22/10 1/1/10 11/2/10 20/21/10
f 11/2/11 12/3/11 22/24/11 21/23/11
f 12/3/12 13/5/12 23/25/12 22/24/12
f 13/5/3 14/7/3 24/26/3 23/25/3
f 14/7/13 15/9/13 25/27/13 24/26/13
f 15/12/14 16/13/14 26/29/14 25/28/14
f 16/13/15 17/15/15 27/30/15 26/29/15
f 17/15/16 18/17/16 28/31/16 27/30/16
f 18/17/8 19/19/8 29/32/8 28/31/8
f 19/19/17 20/21/17 30/33/17 29/32/17
f 20/21/18 11/2/18 21/23/18 30/33/18
f 21/23/19 22/24/19 32/35/19 31/34/19
f 22/24/20 23/25/20 33/36/20 32/35/20
f 23/25/3 24/26/3 34/37/3 33/36/3
f 24/26/21 25/27/21 35/38/21 34/37/21
f 25/28/22 26/29/22 36/40/22 35/39/22
f 26/29/23 27/30/23 37/41/23 36/40/23
f 27/30/24 28/31/24 38/42/24 37/41/24
f 28/31/8 29/32/8 39/43/8 38/42/8
f 29/32/25 30/33/25 40/44/25 39/43/25
f 30/33/26 21/23/26 31/34/26 40/44/26
f 31/34/27 32/35/27 42/46/27 41/45/27
f 32/35/28 33/36/28 43/47/28 42/46/28
f 33/36/3 34/37/3 44/48/3 43/47/3
f 34/37/29 35/38/29 45/49/29 44/48/29
f 35/39/30 36/40/30 46/51/30 45/50/30
f 36/40/31 37/41/31 47/52/31 46/51/31
f 37/41/32 38/42/32 48/53/32 47/52/32
f 38/42/8 39/43/8 49/54/8 48/53/8
f 39/43/33 40/44/33 50/55/33 49/54/33
f 40/44/34 31/34/34 41/45/34 50/55/34
f 41/56/35 42/59/35 52/58/35 51/57/35
f 42/59/36 43/61/36 53/60/36 52/58/36
f 43/61/3 44/63/3 54/62/3 53/60/3
f 44/63/37 45/65/37 55/64/37 54/62/37
f 45/66/38 46/69/38 56/68/38 55/67/38
f 46/69/39 47/71/39 57/70/39 56/68/39
f 47/71/40 48/73/40 58/72/40 57/70/40
f 48/73/8 49/75/8 59/74/8 58/72/8
f 49/75/41 50/77/41 60/76/41 59/74/41
f 50/77/42 41/56/42 51/57/42 60/76/42
f 51/57/43 52/58/43 62/79/43 61/78/43
f 52/58/44 53/60/44 63/80/44 62/79/44
f 53/60/3 54/62/3 64/81/3 63/80/3
f 54/62/45 55/64/45 65/82/45 64/81/45
f 55/67/46 56/68/46 66/84/46 65/83/46
f 56/68/47 57/70/47 67/85/47 66/84/47
f 57/70/48 58/72/48 68/86/48 67/85/48
f 58/72/8 59/74/8 69/87/8 68/86/8
f 59/74/49 60/76/49 70/88/49 69/87/49
f 60/76/50 51/57/50 61/78/50 70/88/50
f 61/78/51 62/79/51 72/90/51 71/89/51
f 62/79/52 63/80/52 73/91/52 72/90/52
f 63/80/3 64/81/3 74/92/3 73/91/3
f 64/81/53 65/82/53 75/93/53 74/92/53
f 65/83/54 66/84/54 76/95/54 75/94/54
f 66/84/55 67/85/55 77/96/55 76/95/55
f 67/85/56 68/86/56 78/97/56 77/96/56
f 68/86/8 69/87/8 79/98/8 78/97/8
f 69/87/57 70/88/57 80/99/57 79/98/57
f 70/88/58 61/78/58 71/89/58 80/99/58
f 71/89/59 72/90/59 82/101/59 81/100/59
f 72/90/60 73/91/60 83/102/60 82/101/60
f 73/91/3 74/92/3 84/103/3 83/102/3
f 74/92/61 75/93/61 85/104/61 84/103/61
f 75/94/62 76/95/62 86/106/62 85/105/62
f 76/95/63 77/96/63 87/107/63 86/106/63
f 77/96/64 78/97/64 88/108/64 87/107/64
f 78/97/8 79/98/8 89/109/8 88/108/8
f 79/98/65 80/99/65 90/110/65 89/109/65
f 80/99/66 71/89/66 81/100/66 90/110/66
f 81/100/67 82/101/67 2/4/67 1/1/67
f 82/101/68 83/102/68 3/6/68 2/4/68
f 83/102/3 84/103/3 4/8/3 3/6/3
f 84/103/69 85/104/69 5/10/69 4/8/69
f 85/105/70 86/106/70 6/14/70 5/11/70
f 86/106/71 87/107/71 7/16/71 6/14/71
f 87/107/72 88/108/72 8/18/72 7/16/72
f 88/108/8 89/109/8 9/20/8 8/18/8
f 89/109/73 90/110/73 10/22/73 9/20/73
f 90/110/74 81/100/74 1/1/74 10/22/74
o Cylinder
v 0.000000 0.300000 0.421723
v 0.176336 0.242705 0.421723
v 0.285317 0.092705 0.421723
v 0.285317 -0.092705 0.421723
v 0.176336 -0.242705 0.421723
v 0.000000 -0.300000 0.421723
v -0.176336 -0.242705 0.421723
v -0.285317 -0.092705 0.421723
v -0.285317 0.092705 0.421723
v -0.176336 0.242705 0.421723
v 0.000000 -0.070230 -2.095340
v 0.146946 -0.076486 -2.047594
v 0.237764 -0.076486 -1.922594
v 0.237764 -0.076486 -1.768086
v 0.146946 -0.076486 -1.643086
v 0.000000 -0.070230 -1.595340
v -0.146946 -0.070230 -1.643086
v -0.237764 -0.070230 -1.768086
v -0.237764 -0.070230 -1.922594
v -0.146946 -0.070230 -2.047594
v 0.000000 0.062466 -1.315363
v 0.146946 0.062466 -1.267617
v 0.237764 0.062466 -1.142617
v 0.237764 0.062466 -0.988109
v 0.146946 0.062466 -0.863109
v 0.000000 0.062466 -0.815363
v -0.146946 0.062466 -0.863109
v -0.237764 0.062466 -0.988109
v -0.237764 0.062466 -1.142617
v -0.146946 0.062466 -1.267617
v 0.000000 -0.916538 -1.863277
v 0.000000 -0.823540 -1.961060
v 0.089470 -0.916538 -1.834206
v 0.146946 -0.829796 -1.913315
v 0.237764 -0.829796 -1.788315
v 0.144766 -0.916538 -1.758098
v 0.146946 -0.829796 -1.913315
v 0.089470 -0.916538 -1.834206
v 0.000000 -0.823540 -1.961060
v 0.000000 -0.916538 -1.863277
v -0.146946 -0.070230 -1.913315
v -0.237764 -0.070230 -1.788315
v -0.237764 -0.070230 -1.633806
v -0.146946 -0.070230 -1.508806
v 0.000000 -0.070230 -1.461061
v 0.146946 -0.076486 -1.508806
v 0.237764 -0.076486 -1.633806
v 0.237764 -0.076486 -1.788315
v 0.146946 -0.076486 -1.913315
v 0.000000 -0.070230 -1.961060
v 0.000000 -0.760230 -1.217579
v 0.000000 -0.667232 -1.315363
v 0.089470 -0.760230 -1.188508
v 0.146946 -0.667232 -1.267617
v 0.237764 -0.667232 -1.142617
v 0.144766 -0.760230 -1.112400
v 0.144766 -0.760230 -1.018325
v 0.237764 -0.667232 -0.988109
v 0.089470 -0.760230 -0.942217
v 0.146946 -0.667232 -0.863108
v 0.000000 -0.760230 -0.913147
v 0.000000 -0.667232 -0.815363
v -0.089470 -0.760230 -0.942217
v -0.146946 -0.667232 -0.863108
v -0.144766 -0.760230 -1.018325
v -0.237764 -0.667232 -0.988109
v -0.144766 -0.760230 -1.112400
v -0.237764 -0.667232 -1.142617
v -0.089470 -0.760230 -1.188508
v -0.146946 -0.667232 -1.267617
v 0.144766 -0.916538 -1.664023
v 0.237764 -0.829796 -1.633806
v 0.089470 -0.916538 -1.587915
v 0.146946 -0.829796 -1.508806
v 0.000000 -0.916538 -1.558844
v 0.000000 -0.823540 -1.461060
v -0.089470 -0.916538 -1.587915
v -0.146946 -0.823540 -1.508806
v -0.144766 -0.916538 -1.664023
v -0.237764 -0.823540 -1.633806
v -0.144766 -0.916538 -1.758098
v -0.237764 -0.823540 -1.788315
v -0.089470 -0.916538 -1.834206
v -0.146946 -0.823540 -1.913315
v 0.000000 0.151897 -2.122512
v 0.000000 0.300000 -1.981657
v 0.089283 0.122887 -2.122512
v 0.176336 0.242705 -1.981657
v 0.144462 0.046939 -2.122512
v 0.285317 0.092705 -1.981657
v 0.144462 -0.046939 -2.122512
v 0.285317 -0.092705 -1.981657
v 0.089283 -0.122887 -2.122512
v 0.176336 -0.242705 -1.981657
v -0.000000 -0.151897 -2.122512
v 0.000000 -0.300000 -1.981657
v -0.089283 -0.122887 -2.122512
v -0.176336 -0.242705 -1.981657
v -0.144462 -0.046939 -2.122512
v -0.285317 -0.092705 -1.981657
v -0.144462 0.046939 -2.122512
v -0.285317 0.092705 -1.981657
v -0.089283 0.122887 -2.122512
v -0.176336 0.242705 -1.981657
vn -0.3090 0.9511 -0.0000
vn 1.0000 -0.0000 -0.0000
vn 0.8090 -0.5878 -0.0000
vn 0.3090 -0.9511 -0.0000
vn -0.3090 -0.9511 -0.0000
vn -0.8090 -0.5878 -0.0000
vn -1.0000 -0.0000 -0.0000
vn -0.8090 0.5878 -0.0000
vn -0.0000 -0.0000 1.0000
vn 0.8090 0.5878 -0.0000
vn 0.3090 0.9511 -0.0000
vn -0.8090 -0.0000 0.5878
vn 0.8090 -0.0000 0.5878
vn -0.0000 -1.0000 -0.0000
vn -0.2185 -0.7071 -0.6725
vn -0.5721 -0.7071 -0.4156
vn -0.3090 -0.0000 0.9511
vn -0.7071 -0.7071 -0.0000
vn -0.5721 -0.7071 0.4156
vn -0.2185 -0.7071 0.6725
vn 0.3090 -0.0000 0.9511
vn 0.1975 -0.7190 0.6664
vn 0.5518 -0.7313 0.4009
vn 0.0154 0.9999 -0.0000
vn -0.3090 -0.0000 -0.9511
vn 0.6821 -0.7313 -0.0000
vn 0.5518 -0.7313 -0.4009
vn -0.8090 -0.0000 -0.5878
vn -0.0000 1.0000 -0.0000
vn 0.3090 -0.0000 -0.9511
vn 0.8090 -0.0000 -0.5878
vn 0.5721 -0.7071 0.4156
vn 0.1975 -0.7190 -0.6664
vn 0.5721 -0.7071 -0.4156
vn 0.7071 -0.7071 -0.0000
vn 0.2185 -0.7071 -0.6725
vn 0.2185 -0.7071 0.6725
vn 0.2185 0.6725 -0.7071
vn 0.5721 0.4156 -0.7071
vn 0.7071 -0.0000 -0.7071
vn 0.5721 -0.4156 -0.7071
vn 0.2185 -0.6725 -0.7071
vn -0.2185 -0.6725 -0.7071
vn -0.5721 -0.4156 -0.7071
vn -0.7071 -0.0000 -0.7071
vn -0.5721 0.4156 -0.7071
vn -0.2185 0.6725 -0.7071
vn -0.0000 -0.0000 -1.0000
vt 0.100000 0.527681
vt 0.100000 1.000000
vt -0.000000 1.000000
vt -0.000000 0.527681
vt 0.800000 0.527681
vt 0.800000 1.000000
vt 0.700000 1.000000
vt 0.700000 0.527681
vt 0.700000 0.527681
vt 0.600000 1.000000
vt 0.600000 0.527681
vt 0.600000 0.527681
vt 0.500000 1.000000
vt 0.500000 0.527681
vt 0.500000 0.527681
vt 0.400000 1.000000
vt 0.400000 0.527681
vt 0.400000 0.527681
vt 0.300000 1.000000
vt 0.300000 0.527681
vt 0.300000 0.527681
vt 0.200000 1.000000
vt 0.200000 0.527681
vt 0.200000 0.527681
vt 0.100000 0.527681
vt 0.391068 0.444164
vt 0.250000 0.490000
vt 0.108932 0.444164
vt 0.021746 0.324164
vt 0.021746 0.175836
vt 0.108932 0.055836
vt 0.250000 0.010000
vt 0.391068 0.055836
vt 0.478254 0.175836
vt 0.478254 0.324164
vt 0.900000 0.527681
vt 0.900000 1.000000
vt 0.800000 0.527681
vt 1.000000 0.527681
vt 1.000000 1.000000
vt 0.900000 0.527681
vt 0.400000 0.556520
vt 0.300000 0.556520
vt 0.600000 0.556520
vt 0.500000 0.556520
vt 0.750000 0.396128
vt 0.835892 0.368220
vt 0.888976 0.295156
vt 0.888976 0.204844
vt 0.835892 0.131780
vt 0.750000 0.103872
vt 0.664108 0.131780
vt 0.611024 0.204844
vt 0.611024 0.295156
vt 0.664108 0.368220
vt 0.100000 0.554943
vt -0.000000 0.554943
vt 0.019557 0.500000
vt 0.080443 0.500000
vt 0.200000 0.554943
vt 0.119557 0.500000
vt 0.180443 0.500000
vt 1.000000 0.556520
vt 0.900000 0.556520
vt 0.900000 0.556520
vt 0.800000 0.556520
vt 0.300000 0.554943
vt 0.219557 0.500000
vt 0.280443 0.500000
vt 0.400000 0.554943
vt 0.319557 0.500000
vt 0.380443 0.500000
vt 0.500000 0.554943
vt 0.419557 0.500000
vt 0.480443 0.500000
vt 0.800000 0.556520
vt 0.700000 0.556520
vt 0.664108 0.131780
vt 0.611024 0.204844
vt 0.611025 0.295156
vt 0.664109 0.368220
vt 0.750000 0.396128
vt 0.835892 0.368220
vt 0.888976 0.295156
vt 0.888976 0.204844
vt 0.835892 0.131780
vt 0.750000 0.103872
vt 0.600000 0.554943
vt 0.519557 0.500000
vt 0.580443 0.500000
vt 0.700000 0.554943
vt 0.619557 0.500000
vt 0.680443 0.500000
vt 0.391068 0.444164
vt 0.108932 0.444164
vt 0.021746 0.324164
vt 0.021746 0.175836
vt 0.108932 0.055836
vt 0.250000 0.010000
vt 0.391068 0.055836
vt 0.478254 0.175836
vt 0.478254 0.324164
vt 0.100000 0.556520
vt -0.000000 0.556520
vt 0.800000 0.554943
vt 0.719557 0.500000
vt 0.780443 0.500000
vt 0.900000 0.554943
vt 0.819557 0.500000
vt 0.880443 0.500000
vt 0.300000 0.556520
vt 0.200000 0.556520
vt 0.200000 0.556520
vt 0.100000 0.556520
vt 0.500000 0.556520
vt 0.400000 0.556520
vt 0.700000 0.556520
vt 0.600000 0.556520
vt 0.519557 0.500000
vt 0.580443 0.500000
vt 1.000000 0.554943
vt 0.919557 0.500000
vt 0.980443 0.500000
vt 0.619557 0.500000
vt 0.680443 0.500000
vt 0.819557 0.500000
vt 0.880443 0.500000
vt 0.419557 0.500000
vt 0.480443 0.500000
vt 0.780443 0.500000
vt 0.319557 0.500000
vt 0.380443 0.500000
vt 0.219557 0.500000
vt 0.280443 0.500000
vt 0.119557 0.500000
vt 0.180443 0.500000
vt 0.080443 0.500000
vt 0.750000 0.490000
vt 0.891068 0.444164
vt 0.821426 0.348310
vt 0.750000 0.371517
vt 0.978254 0.324164
vt 0.865570 0.287551
vt 0.978254 0.175836
vt 0.865570 0.212449
vt 0.891068 0.055836
vt 0.821426 0.151690
vt 0.750000 0.010000
vt 0.750000 0.128483
vt 0.608932 0.055836
vt 0.678574 0.151690
vt 0.521746 0.175836
vt 0.634430 0.212449
vt 0.521746 0.324164
vt 0.634430 0.287551
vt 0.608932 0.444164
vt 0.678574 0.348310
s 0
f 194/111/75 100/112/75 91/113/75 176/114/75
f 180/115/76 93/116/76 94/117/76 182/118/76
f 182/119/77 94/117/77 95/120/77 184/121/77
f 184/122/78 95/120/78 96/123/78 186/124/78
f 186/125/79 96/123/79 97/126/79 188/127/79
f 188/128/80 97/126/80 98/129/80 190/130/80
f 190/131/81 98/129/81 99/132/81 192/133/81
f 192/134/82 99/132/82 100/112/82 194/135/82
f 92/136/83 91/137/83 100/138/83 99/139/83 98/140/83 97/141/83 96/142/83 95/143/83 94/144/83 93/145/83
f 178/146/84 92/147/84 93/116/84 180/148/84
f 176/149/85 91/150/85 92/147/85 178/151/85
f 154/152/86 117/126/86 118/129/86 156/153/86
f 148/154/87 114/120/87 115/123/87 150/155/87
f 130/156/88 128/157/88 126/158/88 161/159/88 163/160/88 165/161/88 167/162/88 169/163/88 171/164/88 173/165/88
f 174/166/89 129/167/89 130/168/89 173/169/89
f 172/170/90 174/166/90 173/171/90 171/172/90
f 152/173/91 116/150/91 117/147/91 154/174/91
f 145/175/76 113/147/76 114/116/76 148/176/76
f 170/177/92 172/170/92 171/178/92 169/179/92
f 168/180/93 170/177/93 169/181/93 167/182/93
f 166/183/94 168/180/94 167/184/94 165/185/94
f 150/186/95 115/116/95 116/117/95 152/187/95
f 153/188/88 155/189/88 157/190/88 159/191/88 141/192/88 143/193/88 146/194/88 147/195/88 149/196/88 151/197/88
f 164/198/96 166/183/96 165/199/96 163/200/96
f 162/201/97 164/198/97 163/202/97 161/203/97
f 102/204/98 101/137/98 110/205/98 109/206/98 108/207/98 107/208/98 106/209/98 105/210/98 104/211/98 103/212/98
f 160/213/99 120/112/99 111/113/99 142/214/99
f 125/215/100 162/201/100 161/216/100 126/217/100
f 127/218/101 125/215/101 126/219/101 128/220/101
f 156/221/81 118/129/81 119/132/81 158/222/81
f 158/223/102 119/132/102 120/112/102 160/224/102
f 114/211/103 113/212/103 112/204/103 111/137/103 120/205/103 119/206/103 118/207/103 117/208/103 116/209/103 115/210/103
f 142/225/104 111/123/104 112/126/104 144/226/104
f 144/227/105 112/117/105 113/120/105 145/228/105
f 148/154/106 150/155/106 149/229/106 147/230/106
f 122/231/107 124/218/107 123/232/107 121/233/107
f 144/227/108 145/228/108 146/234/108 143/235/108
f 129/231/104 140/150/104 139/147/104 127/218/104
f 127/218/105 139/147/105 138/116/105 125/215/105
f 172/170/102 132/132/102 131/112/102 174/166/102
f 145/175/109 148/176/109 147/236/109 146/237/109
f 170/177/81 133/129/81 132/132/81 172/170/81
f 168/180/86 134/126/86 133/129/86 170/177/86
f 166/183/91 135/123/91 134/126/91 168/180/91
f 142/225/110 144/226/110 143/238/110 141/239/110
f 164/198/95 136/120/95 135/123/95 166/183/95
f 162/201/87 137/117/87 136/120/87 164/198/87
f 125/215/76 138/116/76 137/117/76 162/201/76
f 150/186/111 152/187/111 151/216/111 149/240/111
f 152/173/94 154/174/94 153/232/94 151/233/94
f 154/152/93 156/153/93 155/241/93 153/242/93
f 156/221/92 158/222/92 157/243/92 155/244/92
f 158/223/90 160/224/90 159/245/90 157/246/90
f 160/213/89 142/214/89 141/168/89 159/247/89
f 174/166/99 131/112/99 140/113/99 129/167/99
f 176/248/112 178/249/112 177/250/112 175/251/112
f 178/249/113 180/252/113 179/253/113 177/250/113
f 180/252/114 182/254/114 181/255/114 179/253/114
f 182/254/115 184/256/115 183/257/115 181/255/115
f 184/256/116 186/258/116 185/259/116 183/257/116
f 186/258/117 188/260/117 187/261/117 185/259/117
f 188/260/118 190/262/118 189/263/118 187/261/118
f 190/262/119 192/264/119 191/265/119 189/263/119
f 192/264/120 194/266/120 193/267/120 191/265/120
f 194/266/121 176/248/121 175/251/121 193/267/121
f 175/251/122 177/250/122 179/253/122 181/255/122 183/257/122 185/259/122 187/261/122 189/263/122 191/265/122 193/267/122
