# Blender 4.1.0
# www.blender.org
mtllib wedge.mtl
o Cube
v 1.000000 -1.000000 -1.000000
v 1.000000 1.000000 1.000000
v 1.000000 -1.000000 1.000000
v -1.000000 -1.000000 -1.000000
v -1.000000 1.000000 1.000000
v -1.000000 -1.000000 1.000000
vn -0.0000 -0.0000 1.0000
vn -1.0000 -0.0000 -0.0000
vn -0.0000 -1.0000 -0.0000
vn 1.0000 -0.0000 -0.0000
vn -0.0000 0.7071 -0.7071
vt 0.375000 0.750000
vt 0.625000 0.750000
vt 0.625000 1.000000
vt 0.375000 1.000000
vt 0.375000 0.000000
vt 0.625000 0.000000
vt 0.375000 0.250000
vt 0.125000 0.500000
vt 0.375000 0.500000
vt 0.125000 0.750000
vt 0.875000 0.750000
s 0
usemtl Material
f 3/1/1 2/2/1 5/3/1 6/4/1
f 6/5/2 5/6/2 4/7/2
f 4/8/3 1/9/3 3/1/3 6/10/3
f 1/9/4 2/2/4 3/1/4
f 4/7/5 5/11/5 2/2/5 1/9/5
