<?xml version="1.0" encoding="UTF-8" standalone="no"?><!DOCTYPE svg PUBLIC "-//W3C//DTD SVG 1.1//EN" "http://www.w3.org/Graphics/SVG/1.1/DTD/svg11.dtd"><svg width="100%" height="100%" viewBox="0 0 9598 2253" version="1.1" xmlns="http://www.w3.org/2000/svg" xmlns:xlink="http://www.w3.org/1999/xlink" xml:space="preserve" xmlns:serif="http://www.serif.com/" style="fill-rule:evenodd;clip-rule:evenodd;stroke-linejoin:round;stroke-miterlimit:2;"><rect id="Logo-Name" serif:id="Logo+Name" x="0" y="0.095" width="9596.91" height="2250" style="fill:none;"/><g><path d="M2533.42,1568.45l0,-862.856l455.003,-0l0,93.712l-352.45,-0l-0,247.54l352.45,0l0,95.48l-352.45,0l-0,330.644l352.45,-0l0,95.48l-455.003,-0Z" style="fill:#525eb7;fill-rule:nonzero;"/><path d="M3692.15,1260.79l127.896,137.326c36.935,-29.076 65.323,-65.814 85.166,-110.214c19.842,-44.4 29.764,-92.926 29.764,-145.578c-0,-35.363 -4.126,-69.056 -12.377,-101.079c-8.252,-32.023 -20.236,-61.001 -35.953,-86.934c-32.612,-53.83 -75.244,-95.48 -127.896,-124.949c-52.651,-29.469 -111,-44.203 -175.046,-44.203c-47.544,-0 -92.828,8.84 -135.853,26.522c-43.025,17.681 -81.04,43.025 -114.045,76.03c-33.006,33.006 -58.349,71.021 -76.031,114.046c-17.681,43.025 -26.522,88.309 -26.522,135.852c0,60.903 12.279,115.716 36.836,164.438c24.558,48.722 61.394,90.765 110.51,126.128c27.897,20.432 58.545,35.854 91.943,46.266c33.399,10.413 68.369,15.619 104.91,15.619c32.22,0 62.082,-3.143 89.587,-9.43c27.504,-6.287 53.044,-16.11 76.619,-29.469l-176.225,-190.371l126.717,0Zm363.649,390.761l-126.717,-0l-114.93,-123.181c-34.184,20.039 -71.61,34.97 -112.277,44.793c-40.667,9.823 -84.969,14.735 -132.906,14.735c-48.722,-0 -95.185,-7.171 -139.389,-21.513c-44.203,-14.342 -84.969,-35.461 -122.297,-63.359c-60.51,-44.4 -106.383,-97.739 -137.62,-160.017c-31.238,-62.278 -46.856,-130.745 -46.856,-205.4c-0,-60.117 11.591,-117.68 34.773,-172.689c23.183,-55.009 56.581,-104.124 100.195,-147.345c44.007,-42.436 93.909,-74.95 149.703,-97.543c55.795,-22.593 114.537,-33.89 176.226,-33.89c61.296,0 118.859,10.02 172.689,30.059c53.83,20.039 102.552,49.901 146.167,89.586c46.364,42.043 81.826,91.649 106.383,148.819c24.558,57.17 36.837,118.564 36.837,184.182c-0,69.154 -13.163,132.316 -39.489,189.487c-26.326,57.17 -64.636,105.794 -114.93,145.872l164.438,177.404Z" style="fill:#525eb7;fill-rule:nonzero;"/><path d="M4209.04,705.59l103.731,-0l-0,536.927c-0,87.229 18.565,151.275 55.697,192.139c37.131,40.864 95.381,61.296 174.751,61.296c79.371,-0 137.621,-20.432 174.752,-61.296c37.131,-40.864 55.697,-104.91 55.697,-192.139l0,-536.927l104.321,-0l-0,536.927c-0,116.698 -27.8,204.025 -83.398,261.981c-55.598,57.956 -139.389,86.934 -251.372,86.934c-111.589,-0 -195.183,-28.978 -250.782,-86.934c-55.598,-57.956 -83.397,-145.283 -83.397,-261.981l-0,-536.927Z" style="fill:#525eb7;fill-rule:nonzero;"/><rect x="5083.09" y="705.59" width="102.553" height="862.856" style="fill:#525eb7;fill-rule:nonzero;"/><path d="M5394.29,1568.45l-0,-862.856l455.003,-0l0,93.712l-352.451,-0l0,247.54l352.451,0l0,95.48l-352.451,0l0,426.124l-102.552,-0Z" style="fill:#525eb7;fill-rule:nonzero;"/><path d="M6427.47,1494.77c47.151,0 92.042,-8.939 134.674,-26.817c42.632,-17.878 81.04,-43.909 115.224,-78.093c33.792,-33.791 59.528,-72.101 77.21,-114.93c17.681,-42.828 26.522,-88.211 26.522,-136.147c-0,-48.329 -8.939,-94.301 -26.817,-137.915c-17.878,-43.615 -43.516,-82.121 -76.915,-115.519c-33.791,-33.792 -72.002,-59.528 -114.634,-77.21c-42.632,-17.681 -87.72,-26.522 -135.264,-26.522c-47.936,0 -93.319,8.841 -136.147,26.522c-42.829,17.682 -80.745,43.418 -113.751,77.21c-33.791,34.184 -59.528,72.887 -77.209,116.108c-17.681,43.221 -26.522,88.997 -26.522,137.326c-0,47.936 8.742,93.122 26.227,135.558c17.485,42.436 43.32,80.942 77.504,115.519c34.577,34.577 72.985,60.706 115.224,78.388c42.239,17.681 87.131,26.522 134.674,26.522Zm460.897,-355.987c0,61.689 -11.394,119.841 -34.184,174.457c-22.789,54.616 -55.991,103.142 -99.605,145.578c-43.615,42.435 -93.81,75.146 -150.588,98.132c-56.777,22.986 -115.617,34.479 -176.52,34.479c-60.903,-0 -119.546,-11.493 -175.93,-34.479c-56.385,-22.986 -106.384,-55.697 -149.998,-98.132c-44.007,-42.829 -77.504,-91.551 -100.49,-146.167c-22.986,-54.616 -34.479,-112.572 -34.479,-173.868c0,-61.689 11.493,-119.939 34.479,-174.752c22.986,-54.812 56.483,-103.633 100.49,-146.461c43.221,-42.043 93.122,-74.459 149.703,-97.249c56.581,-22.789 115.322,-34.184 176.225,-34.184c61.296,0 120.333,11.395 177.11,34.184c56.777,22.79 106.776,55.206 149.998,97.249c43.614,42.435 76.816,91.059 99.605,145.872c22.79,54.812 34.184,113.259 34.184,175.341Z" style="fill:#525eb7;fill-rule:nonzero;"/><path d="M7056.35,1568.45l0,-862.856l202.748,-0c57.759,-0 100.097,3.242 127.012,9.725c26.915,6.483 50.589,17.583 71.02,33.3c25.54,20.039 45.383,46.856 59.528,80.451c14.145,33.594 21.218,70.824 21.218,111.688c-0,70.725 -19.744,124.457 -59.233,161.196c-39.489,36.738 -97.346,55.107 -173.573,55.107l-18.271,-0l329.465,411.389l-130.254,-0l-314.73,-411.389l-14.735,-0l0,411.389l-100.195,-0Zm100.195,-776.217l0,288.798l78.388,-0c80.156,-0 133.79,-10.315 160.902,-30.943c27.111,-20.628 40.667,-56.679 40.667,-108.152c0,-55.402 -13.949,-94.203 -41.846,-116.403c-27.897,-22.2 -81.138,-33.3 -159.723,-33.3l-78.388,0Z" style="fill:#525eb7;fill-rule:nonzero;"/><path d="M8176.76,1122.87l355.987,-0l-0,28.879c-0,135.951 -38.507,243.219 -115.519,321.803c-77.013,78.585 -182.12,117.877 -315.32,117.877c-40.471,-0 -79.076,-4.322 -115.814,-12.967c-36.738,-8.644 -70.627,-21.217 -101.668,-37.72c-70.726,-38.899 -125.342,-92.631 -163.849,-161.196c-38.506,-68.565 -57.759,-146.462 -57.759,-233.69c-0,-71.905 11.493,-136.835 34.479,-194.791c22.986,-57.956 57.661,-108.938 104.026,-152.945c38.899,-36.935 84.085,-64.832 135.558,-83.692c51.473,-18.861 108.446,-28.291 170.921,-28.291c82.906,0 154.811,15.03 215.714,45.088c60.903,30.059 111.393,75.343 151.471,135.853l-86.05,68.957c-31.041,-52.258 -69.743,-91.452 -116.108,-117.581c-46.365,-26.13 -100.195,-39.194 -161.491,-39.194c-100.195,-0 -181.53,33.791 -244.004,101.374c-62.475,67.582 -93.712,155.989 -93.712,265.222c-0,102.945 31.728,187.423 95.185,253.434c63.457,66.011 144.301,99.016 242.531,99.016c86.443,0 158.446,-26.227 216.009,-78.682c57.563,-52.455 89.488,-120.725 95.774,-204.811l-246.361,0l-0,-91.943Z" style="fill:#525eb7;fill-rule:nonzero;"/><path d="M8684.81,1568.45l0,-862.856l455.004,-0l-0,93.712l-352.451,-0l-0,247.54l352.451,0l-0,95.48l-352.451,0l-0,330.644l352.451,-0l-0,95.48l-455.004,-0Z" style="fill:#525eb7;fill-rule:nonzero;"/></g><g><path d="M1355.27,226.919c472.245,0 859.854,365.249 895.502,828.419c3.233,42.727 -12.337,84.739 -42.636,115.038c-153.631,153.66 -653.925,653.953 -807.57,807.598c-30.303,30.304 -72.32,45.878 -115.054,42.644c-463.169,-35.67 -828.417,-423.279 -828.417,-895.523c0,-495.717 402.459,-898.176 898.175,-898.176Z" style="fill:url(#_Radial1);"/><path d="M1343.74,1113.72c136.622,-69.817 291.332,-109.206 455.171,-109.206c160.166,-0 311.61,37.643 445.958,104.559c-6.938,22.886 -19.435,44.002 -36.733,61.3c-153.631,153.66 -653.925,653.953 -807.57,807.598c-8.905,8.906 -18.823,16.54 -29.473,22.798c120.994,-104.951 197.566,-259.792 197.566,-432.377c-0,-185.255 -88.227,-350.066 -224.919,-454.672Z" style="fill:url(#_Radial2);"/></g><defs><radialGradient id="_Radial1" cx="0" cy="0" r="1" gradientUnits="userSpaceOnUse" gradientTransform="matrix(1509.06,-1014.61,787.14,1170.74,611.544,1620.96)"><stop offset="0" style="stop-color:#78b4e5;stop-opacity:1"/><stop offset="0.49" style="stop-color:#6e9ed9;stop-opacity:1"/><stop offset="1" style="stop-color:#525eb7;stop-opacity:1"/></radialGradient><radialGradient id="_Radial2" cx="0" cy="0" r="1" gradientUnits="userSpaceOnUse" gradientTransform="matrix(862.858,-404.29,389.239,830.735,1382.01,1513.37)"><stop offset="0" style="stop-color:#525eb7;stop-opacity:1"/><stop offset="0.51" style="stop-color:#678dd0;stop-opacity:1"/><stop offset="1" style="stop-color:#6e9dd9;stop-opacity:1"/></radialGradient></defs></svg>