<?xml version="1.0" encoding="UTF-8" standalone="no"?><!DOCTYPE svg PUBLIC "-//W3C//DTD SVG 1.1//EN" "http://www.w3.org/Graphics/SVG/1.1/DTD/svg11.dtd"><svg width="100%" height="100%" viewBox="0 0 2250 2253" version="1.1" xmlns="http://www.w3.org/2000/svg" xmlns:xlink="http://www.w3.org/1999/xlink" xml:space="preserve" xmlns:serif="http://www.serif.com/" style="fill-rule:evenodd;clip-rule:evenodd;stroke-linejoin:round;stroke-miterlimit:2;"><rect id="Logo" x="0" y="0.834" width="2250" height="2250" style="fill:none;"/><g><path d="M1126.13,228.775c472.244,-0 859.854,365.248 895.501,828.419c3.234,42.727 -12.337,84.738 -42.636,115.037c-153.63,153.66 -653.924,653.954 -807.569,807.599c-30.303,30.304 -72.32,45.877 -115.054,42.644c-463.169,-35.67 -828.417,-423.279 -828.417,-895.524c-0,-495.716 402.459,-898.175 898.175,-898.175Z" style="fill:url(#_Radial1);"/><path d="M1114.6,1115.58c136.623,-69.817 291.333,-109.207 455.171,-109.207c160.167,0 311.611,37.644 445.959,104.559c-6.938,22.887 -19.436,44.002 -36.734,61.3c-153.63,153.66 -653.924,653.954 -807.569,807.599c-8.906,8.906 -18.823,16.539 -29.473,22.797c120.994,-104.95 197.565,-259.792 197.565,-432.376c0,-185.255 -88.226,-350.066 -224.919,-454.672Z" style="fill:url(#_Radial2);"/></g><defs><radialGradient id="_Radial1" cx="0" cy="0" r="1" gradientUnits="userSpaceOnUse" gradientTransform="matrix(1509.06,-1014.61,787.14,1170.74,382.397,1622.81)"><stop offset="0" style="stop-color:#78b4e5;stop-opacity:1"/><stop offset="0.49" style="stop-color:#6e9ed9;stop-opacity:1"/><stop offset="1" style="stop-color:#525eb7;stop-opacity:1"/></radialGradient><radialGradient id="_Radial2" cx="0" cy="0" r="1" gradientUnits="userSpaceOnUse" gradientTransform="matrix(862.858,-404.29,389.239,830.735,1152.87,1515.22)"><stop offset="0" style="stop-color:#525eb7;stop-opacity:1"/><stop offset="0.51" style="stop-color:#678dd0;stop-opacity:1"/><stop offset="1" style="stop-color:#6e9dd9;stop-opacity:1"/></radialGradient></defs></svg>