<?xml version="1.0" encoding="UTF-8" standalone="no"?><!DOCTYPE svg PUBLIC "-//W3C//DTD SVG 1.1//EN" "http://www.w3.org/Graphics/SVG/1.1/DTD/svg11.dtd"><svg width="100%" height="100%" viewBox="0 0 7557 2253" version="1.1" xmlns="http://www.w3.org/2000/svg" xmlns:xlink="http://www.w3.org/1999/xlink" xml:space="preserve" xmlns:serif="http://www.serif.com/" style="fill-rule:evenodd;clip-rule:evenodd;stroke-linejoin:round;stroke-miterlimit:2;"><rect id="Name" x="0.347" y="0.834" width="7555.56" height="2250" style="fill:none;"/><g><path d="M474.931,1569.19l-0,-862.856l455.003,-0l-0,93.711l-352.451,0l0,247.541l352.451,-0l-0,95.48l-352.451,-0l0,330.644l352.451,-0l-0,95.48l-455.003,-0Z" style="fill:#525eb7;fill-rule:nonzero;"/><path d="M1633.66,1261.53l127.896,137.326c36.934,-29.076 65.323,-65.814 85.165,-110.215c19.843,-44.4 29.764,-92.926 29.764,-145.577c0,-35.363 -4.126,-69.056 -12.377,-101.079c-8.251,-32.023 -20.235,-61.001 -35.952,-86.934c-32.613,-53.83 -75.245,-95.48 -127.896,-124.949c-52.652,-29.469 -111.001,-44.204 -175.047,-44.204c-47.543,0 -92.828,8.841 -135.852,26.522c-43.025,17.682 -81.041,43.025 -114.046,76.031c-33.005,33.005 -58.349,71.02 -76.03,114.045c-17.682,43.025 -26.523,88.309 -26.523,135.853c0,60.903 12.279,115.715 36.837,164.438c24.557,48.722 61.394,90.765 110.509,126.127c27.898,20.432 58.545,35.855 91.944,46.267c33.398,10.412 68.368,15.619 104.91,15.619c32.219,-0 62.081,-3.144 89.586,-9.43c27.504,-6.287 53.044,-16.11 76.62,-29.47l-176.226,-190.37l126.718,-0Zm363.649,390.76l-126.718,0l-114.929,-123.181c-34.184,20.039 -71.61,34.971 -112.278,44.794c-40.667,9.823 -84.969,14.734 -132.905,14.734c-48.723,0 -95.186,-7.171 -139.389,-21.512c-44.204,-14.342 -84.97,-35.462 -122.297,-63.359c-60.51,-44.4 -106.384,-97.739 -137.621,-160.017c-31.237,-62.278 -46.856,-130.745 -46.856,-205.4c0,-60.117 11.591,-117.68 34.774,-172.689c23.182,-55.009 56.58,-104.124 100.195,-147.346c44.007,-42.435 93.908,-74.95 149.703,-97.543c55.795,-22.593 114.536,-33.889 176.225,-33.889c61.296,-0 118.859,10.019 172.689,30.058c53.831,20.039 102.553,49.901 146.167,89.587c46.365,42.042 81.826,91.649 106.384,148.819c24.557,57.17 36.836,118.564 36.836,184.182c0,69.154 -13.163,132.316 -39.489,189.486c-26.325,57.17 -64.635,105.794 -114.929,145.872l164.438,177.404Z" style="fill:#525eb7;fill-rule:nonzero;"/><path d="M2150.55,706.33l103.731,-0l0,536.927c0,87.229 18.566,151.275 55.697,192.139c37.131,40.864 95.382,61.295 174.752,61.295c79.37,0 137.621,-20.431 174.752,-61.295c37.131,-40.864 55.696,-104.91 55.696,-192.139l0,-536.927l104.321,-0l0,536.927c0,116.698 -27.799,204.025 -83.397,261.981c-55.599,57.955 -139.389,86.933 -251.372,86.933c-111.59,0 -195.184,-28.978 -250.782,-86.933c-55.599,-57.956 -83.398,-145.283 -83.398,-261.981l0,-536.927Z" style="fill:#525eb7;fill-rule:nonzero;"/><rect x="3024.6" y="706.33" width="102.553" height="862.856" style="fill:#525eb7;fill-rule:nonzero;"/><path d="M3335.79,1569.19l0,-862.856l455.003,-0l0,93.711l-352.45,0l-0,247.541l352.45,-0l0,95.48l-352.45,-0l-0,426.124l-102.553,-0Z" style="fill:#525eb7;fill-rule:nonzero;"/><path d="M4368.98,1495.51c47.15,-0 92.042,-8.939 134.674,-26.817c42.632,-17.878 81.04,-43.909 115.224,-78.093c33.791,-33.792 59.528,-72.102 77.209,-114.93c17.681,-42.828 26.522,-88.211 26.522,-136.147c0,-48.33 -8.939,-94.302 -26.817,-137.916c-17.878,-43.614 -43.516,-82.12 -76.914,-115.519c-33.791,-33.791 -72.003,-59.527 -114.635,-77.209c-42.632,-17.681 -87.72,-26.522 -135.263,-26.522c-47.937,-0 -93.319,8.841 -136.148,26.522c-42.828,17.682 -80.745,43.418 -113.75,77.209c-33.792,34.184 -59.528,72.887 -77.21,116.109c-17.681,43.221 -26.522,88.996 -26.522,137.326c0,47.936 8.743,93.122 26.228,135.558c17.485,42.435 43.319,80.941 77.504,115.519c34.577,34.577 72.985,60.706 115.224,78.387c42.239,17.682 87.13,26.523 134.674,26.523Zm460.897,-355.987c-0,61.688 -11.395,119.841 -34.184,174.457c-22.79,54.616 -55.992,103.142 -99.606,145.577c-43.614,42.436 -93.81,75.147 -150.587,98.133c-56.777,22.985 -115.617,34.478 -176.52,34.478c-60.903,0 -119.547,-11.493 -175.931,-34.478c-56.384,-22.986 -106.383,-55.697 -149.998,-98.133c-44.007,-42.828 -77.504,-91.55 -100.49,-146.167c-22.985,-54.616 -34.478,-112.572 -34.478,-173.867c-0,-61.689 11.493,-119.94 34.478,-174.752c22.986,-54.813 56.483,-103.633 100.49,-146.462c43.222,-42.042 93.123,-74.458 149.703,-97.248c56.581,-22.789 115.323,-34.184 176.226,-34.184c61.295,-0 120.332,11.395 177.109,34.184c56.777,22.79 106.777,55.206 149.998,97.248c43.614,42.436 76.816,91.06 99.606,145.872c22.789,54.813 34.184,113.26 34.184,175.342Z" style="fill:#525eb7;fill-rule:nonzero;"/><path d="M4997.85,1569.19l-0,-862.856l202.747,-0c57.76,-0 100.097,3.241 127.012,9.724c26.915,6.484 50.589,17.584 71.021,33.3c25.54,20.039 45.382,46.856 59.528,80.451c14.145,33.595 21.217,70.824 21.217,111.688c0,70.726 -19.744,124.458 -59.233,161.196c-39.488,36.738 -97.346,55.108 -173.573,55.108l-18.271,-0l329.465,411.389l-130.253,-0l-314.731,-411.389l-14.734,-0l-0,411.389l-100.195,-0Zm100.195,-776.217l-0,288.797l78.388,0c80.156,0 133.79,-10.314 160.901,-30.942c27.112,-20.629 40.668,-56.679 40.668,-108.152c-0,-55.402 -13.949,-94.203 -41.847,-116.403c-27.897,-22.2 -81.138,-33.3 -159.722,-33.3l-78.388,-0Z" style="fill:#525eb7;fill-rule:nonzero;"/><path d="M6118.27,1123.61l355.987,0l-0,28.88c-0,135.951 -38.506,243.219 -115.519,321.803c-77.013,78.584 -182.119,117.876 -315.32,117.876c-40.471,0 -79.075,-4.322 -115.813,-12.966c-36.738,-8.644 -70.628,-21.218 -101.669,-37.72c-70.726,-38.9 -125.342,-92.632 -163.848,-161.197c-38.506,-68.564 -57.76,-146.461 -57.76,-233.69c0,-71.904 11.493,-136.835 34.479,-194.791c22.986,-57.956 57.662,-108.937 104.026,-152.944c38.9,-36.935 84.086,-64.832 135.558,-83.693c51.473,-18.86 108.447,-28.29 170.921,-28.29c82.907,-0 154.811,15.029 215.714,45.088c60.903,30.058 111.393,75.342 151.471,135.852l-86.049,68.958c-31.041,-52.258 -69.744,-91.452 -116.109,-117.582c-46.364,-26.129 -100.195,-39.194 -161.491,-39.194c-100.195,0 -181.529,33.792 -244.004,101.374c-62.474,67.583 -93.712,155.99 -93.712,265.222c0,102.946 31.729,187.424 95.186,253.435c63.456,66.011 144.3,99.016 242.53,99.016c86.443,-0 158.446,-26.228 216.009,-78.683c57.563,-52.455 89.488,-120.725 95.775,-204.81l-246.362,0l-0,-91.944Z" style="fill:#525eb7;fill-rule:nonzero;"/><path d="M6626.32,1569.19l-0,-862.856l455.003,-0l-0,93.711l-352.451,0l0,247.541l352.451,-0l-0,95.48l-352.451,-0l0,330.644l352.451,-0l-0,95.48l-455.003,-0Z" style="fill:#525eb7;fill-rule:nonzero;"/></g></svg>