<?xml version="1.0" encoding="UTF-8" standalone="no"?>
<!DOCTYPE svg PUBLIC "-//W3C//DTD SVG 1.1//EN"
 "http://www.w3.org/Graphics/SVG/1.1/DTD/svg11.dtd">
<!-- Generated by graphviz version 12.1.0 (20240811.2233)
 -->
<!-- Title: G Pages: 1 -->
<svg width="176pt" height="406pt"
 viewBox="0.00 0.00 176.00 406.00" xmlns="http://www.w3.org/2000/svg" xmlns:xlink="http://www.w3.org/1999/xlink">
<g id="graph0" class="graph" transform="scale(1 1) rotate(0) translate(4 402)">
<title>G</title><style>.edge>path:hover{stroke-width:8}</style>
<polygon fill="white" stroke="none" points="-4,4 -4,-402 172,-402 172,4 -4,4"/>
<!-- matplotlib -->
<g id="node1" class="node">
<title>matplotlib</title><style>.edge>path:hover{stroke-width:8}</style>
<polygon fill="blue" stroke="black" points="58,-254 55,-258 34,-258 31,-254 0,-254 0,-218 58,-218 58,-254"/>
<text text-anchor="middle" x="29" y="-231.75" font-family="Helvetica,sans-Serif" font-size="10.00" fill="white">matplotlib</text>
</g>
<!-- phoskintime -->
<g id="node4" class="node">
<title>phoskintime</title><style>.edge>path:hover{stroke-width:8}</style>
<polygon fill="#4971ac" stroke="black" points="120.25,-36 117.25,-40 96.25,-40 93.25,-36 51.75,-36 51.75,0 120.25,0 120.25,-36"/>
<text text-anchor="middle" x="86" y="-13.75" font-family="Helvetica,sans-Serif" font-size="10.00" fill="#ffffff">phoskintime</text>
</g>
<!-- matplotlib&#45;&gt;phoskintime -->
<g id="edge1" class="edge">
<title>matplotlib&#45;&gt;phoskintime</title><style>.edge>path:hover{stroke-width:8}</style>
<path fill="none" stroke="black" d="M58.45,-218.21C70.41,-209.32 82.29,-197.09 86,-182"/>
<path fill="none" stroke="black" d="M86,-181C97.45,-134.39 97.11,-119.7 86,-73"/>
<path fill="none" stroke="black" d="M86,-72C83.95,-64.33 83.28,-55.8 83.29,-47.87"/>
<polygon fill="blue" stroke="black" points="86.78,-48.13 83.69,-37.99 79.79,-47.84 86.78,-48.13"/>
</g>
<!-- numpy -->
<g id="node2" class="node">
<title>numpy</title><style>.edge>path:hover{stroke-width:8}</style>
<polygon fill="#c8f906" stroke="black" points="85,-398 82,-402 61,-402 58,-398 31,-398 31,-362 85,-362 85,-398"/>
<text text-anchor="middle" x="58" y="-375.75" font-family="Helvetica,sans-Serif" font-size="10.00" fill="#000000">numpy</text>
</g>
<!-- numpy&#45;&gt;matplotlib -->
<g id="edge2" class="edge">
<title>numpy&#45;&gt;matplotlib</title><style>.edge>path:hover{stroke-width:8}</style>
<path fill="none" stroke="black" d="M47.21,-361.58C39.71,-347.84 31.06,-327.89 31,-309"/>
<path fill="none" stroke="black" d="M31,-307C30.96,-293.36 30.57,-278.24 30.15,-265.55"/>
<polygon fill="#c8f906" stroke="black" points="33.65,-265.64 29.79,-255.77 26.66,-265.89 33.65,-265.64"/>
</g>
<!-- numpy&#45;&gt;phoskintime -->
<g id="edge3" class="edge">
<title>numpy&#45;&gt;phoskintime</title><style>.edge>path:hover{stroke-width:8}</style>
<path fill="none" stroke="black" d="M31,-307C30.88,-267.43 78.82,-275.91 86,-237"/>
<path fill="none" stroke="black" d="M86,-235C90.27,-211.84 78.75,-204.41 86,-182"/>
</g>
<!-- scipy -->
<g id="node5" class="node">
<title>scipy</title><style>.edge>path:hover{stroke-width:8}</style>
<polygon fill="#c006ef" stroke="black" points="113,-326 110,-330 89,-330 86,-326 59,-326 59,-290 113,-290 113,-326"/>
<text text-anchor="middle" x="86" y="-303.75" font-family="Helvetica,sans-Serif" font-size="10.00" fill="#ffffff">scipy</text>
</g>
<!-- numpy&#45;&gt;scipy -->
<g id="edge4" class="edge">
<title>numpy&#45;&gt;scipy</title><style>.edge>path:hover{stroke-width:8}</style>
<path fill="none" stroke="black" d="M64.92,-361.7C67.94,-354.15 71.55,-345.12 74.93,-336.68"/>
<polygon fill="#c8f906" stroke="black" points="78.13,-338.09 78.6,-327.51 71.63,-335.49 78.13,-338.09"/>
</g>
<!-- pandas -->
<g id="node3" class="node">
<title>pandas</title><style>.edge>path:hover{stroke-width:8}</style>
<polygon fill="blue" stroke="black" points="168,-145 165,-149 144,-149 141,-145 114,-145 114,-109 168,-109 168,-145"/>
<text text-anchor="middle" x="141" y="-122.75" font-family="Helvetica,sans-Serif" font-size="10.00" fill="white">pandas</text>
</g>
<!-- pandas&#45;&gt;phoskintime -->
<g id="edge5" class="edge">
<title>pandas&#45;&gt;phoskintime</title><style>.edge>path:hover{stroke-width:8}</style>
<path fill="none" stroke="black" d="M113.74,-109.9C101.79,-100.88 89.65,-88.35 86,-73"/>
</g>
<!-- scipy&#45;&gt;phoskintime -->
<g id="edge6" class="edge">
<title>scipy&#45;&gt;phoskintime</title><style>.edge>path:hover{stroke-width:8}</style>
<path fill="none" stroke="black" d="M84.26,-289.58C83.25,-275.32 82.74,-254.69 86,-237"/>
</g>
</g>
</svg>
