<?xml version="1.0" encoding="utf-8" standalone="no"?>
<!DOCTYPE svg PUBLIC "-//W3C//DTD SVG 1.1//EN"
  "http://www.w3.org/Graphics/SVG/1.1/DTD/svg11.dtd">
<svg xmlns:xlink="http://www.w3.org/1999/xlink" width="720pt" height="576pt" viewBox="0 0 720 576" xmlns="http://www.w3.org/2000/svg" version="1.1">
 <metadata>
  <rdf:RDF xmlns:dc="http://purl.org/dc/elements/1.1/" xmlns:cc="http://creativecommons.org/ns#" xmlns:rdf="http://www.w3.org/1999/02/22-rdf-syntax-ns#">
   <cc:Work>
    <dc:type rdf:resource="http://purl.org/dc/dcmitype/StillImage"/>
    <dc:date>2024-06-24T01:21:37.054706</dc:date>
    <dc:format>image/svg+xml</dc:format>
    <dc:creator>
     <cc:Agent>
      <dc:title>Matplotlib v3.7.5, https://matplotlib.org/</dc:title>
     </cc:Agent>
    </dc:creator>
   </cc:Work>
  </rdf:RDF>
 </metadata>
 <defs>
  <style type="text/css">*{stroke-linejoin: round; stroke-linecap: butt}</style>
 </defs>
 <g id="figure_1">
  <g id="patch_1">
   <path d="M 0 576 
L 720 576 
L 720 0 
L 0 0 
z
" style="fill: #ffffff"/>
  </g>
  <g id="axes_1">
   <g id="patch_2">
    <path d="M 45.07 271.297281 
L 698.715 271.297281 
L 698.715 13.399283 
L 45.07 13.399283 
z
" style="fill: #ffffff"/>
   </g>
   <g id="matplotlib.axis_1">
    <g id="xtick_1">
     <g id="line2d_1">
      <defs>
       <path id="m4ee56284ab" d="M 0 0 
L 0 3.5 
" style="stroke: #000000; stroke-width: 0.8"/>
      </defs>
      <g>
       <use xlink:href="#m4ee56284ab" x="698.715" y="271.297281" style="stroke: #000000; stroke-width: 0.8"/>
      </g>
     </g>
    </g>
    <g id="xtick_2">
     <g id="line2d_2">
      <g>
       <use xlink:href="#m4ee56284ab" x="589.774167" y="271.297281" style="stroke: #000000; stroke-width: 0.8"/>
      </g>
     </g>
    </g>
    <g id="xtick_3">
     <g id="line2d_3">
      <g>
       <use xlink:href="#m4ee56284ab" x="480.833333" y="271.297281" style="stroke: #000000; stroke-width: 0.8"/>
      </g>
     </g>
    </g>
    <g id="xtick_4">
     <g id="line2d_4">
      <g>
       <use xlink:href="#m4ee56284ab" x="371.8925" y="271.297281" style="stroke: #000000; stroke-width: 0.8"/>
      </g>
     </g>
    </g>
    <g id="xtick_5">
     <g id="line2d_5">
      <g>
       <use xlink:href="#m4ee56284ab" x="262.951667" y="271.297281" style="stroke: #000000; stroke-width: 0.8"/>
      </g>
     </g>
    </g>
    <g id="xtick_6">
     <g id="line2d_6">
      <g>
       <use xlink:href="#m4ee56284ab" x="154.010833" y="271.297281" style="stroke: #000000; stroke-width: 0.8"/>
      </g>
     </g>
    </g>
    <g id="xtick_7">
     <g id="line2d_7">
      <g>
       <use xlink:href="#m4ee56284ab" x="45.07" y="271.297281" style="stroke: #000000; stroke-width: 0.8"/>
      </g>
     </g>
    </g>
   </g>
   <g id="matplotlib.axis_2">
    <g id="ytick_1">
     <g id="line2d_8">
      <defs>
       <path id="m43ac77a9d1" d="M 0 0 
L -3.5 0 
" style="stroke: #000000; stroke-width: 0.8"/>
      </defs>
      <g>
       <use xlink:href="#m43ac77a9d1" x="45.07" y="268.084247" style="stroke: #000000; stroke-width: 0.8"/>
      </g>
     </g>
     <g id="text_1">
      <!-- −200 -->
      <g transform="translate(10.602812 271.883466) scale(0.1 -0.1)">
       <defs>
        <path id="DejaVuSans-2212" d="M 678 2272 
L 4684 2272 
L 4684 1741 
L 678 1741 
L 678 2272 
z
" transform="scale(0.015625)"/>
        <path id="DejaVuSans-32" d="M 1228 531 
L 3431 531 
L 3431 0 
L 469 0 
L 469 531 
Q 828 903 1448 1529 
Q 2069 2156 2228 2338 
Q 2531 2678 2651 2914 
Q 2772 3150 2772 3378 
Q 2772 3750 2511 3984 
Q 2250 4219 1831 4219 
Q 1534 4219 1204 4116 
Q 875 4013 500 3803 
L 500 4441 
Q 881 4594 1212 4672 
Q 1544 4750 1819 4750 
Q 2544 4750 2975 4387 
Q 3406 4025 3406 3419 
Q 3406 3131 3298 2873 
Q 3191 2616 2906 2266 
Q 2828 2175 2409 1742 
Q 1991 1309 1228 531 
z
" transform="scale(0.015625)"/>
        <path id="DejaVuSans-30" d="M 2034 4250 
Q 1547 4250 1301 3770 
Q 1056 3291 1056 2328 
Q 1056 1369 1301 889 
Q 1547 409 2034 409 
Q 2525 409 2770 889 
Q 3016 1369 3016 2328 
Q 3016 3291 2770 3770 
Q 2525 4250 2034 4250 
z
M 2034 4750 
Q 2819 4750 3233 4129 
Q 3647 3509 3647 2328 
Q 3647 1150 3233 529 
Q 2819 -91 2034 -91 
Q 1250 -91 836 529 
Q 422 1150 422 2328 
Q 422 3509 836 4129 
Q 1250 4750 2034 4750 
z
" transform="scale(0.015625)"/>
       </defs>
       <use xlink:href="#DejaVuSans-2212"/>
       <use xlink:href="#DejaVuSans-32" x="83.789062"/>
       <use xlink:href="#DejaVuSans-30" x="147.412109"/>
       <use xlink:href="#DejaVuSans-30" x="211.035156"/>
      </g>
     </g>
    </g>
    <g id="ytick_2">
     <g id="line2d_9">
      <g>
       <use xlink:href="#m43ac77a9d1" x="45.07" y="217.495395" style="stroke: #000000; stroke-width: 0.8"/>
      </g>
     </g>
     <g id="text_2">
      <!-- 0 -->
      <g transform="translate(31.7075 221.294614) scale(0.1 -0.1)">
       <use xlink:href="#DejaVuSans-30"/>
      </g>
     </g>
    </g>
    <g id="ytick_3">
     <g id="line2d_10">
      <g>
       <use xlink:href="#m43ac77a9d1" x="45.07" y="166.906544" style="stroke: #000000; stroke-width: 0.8"/>
      </g>
     </g>
     <g id="text_3">
      <!-- 200 -->
      <g transform="translate(18.9825 170.705762) scale(0.1 -0.1)">
       <use xlink:href="#DejaVuSans-32"/>
       <use xlink:href="#DejaVuSans-30" x="63.623047"/>
       <use xlink:href="#DejaVuSans-30" x="127.246094"/>
      </g>
     </g>
    </g>
    <g id="ytick_4">
     <g id="line2d_11">
      <g>
       <use xlink:href="#m43ac77a9d1" x="45.07" y="116.317692" style="stroke: #000000; stroke-width: 0.8"/>
      </g>
     </g>
     <g id="text_4">
      <!-- 400 -->
      <g transform="translate(18.9825 120.116911) scale(0.1 -0.1)">
       <defs>
        <path id="DejaVuSans-34" d="M 2419 4116 
L 825 1625 
L 2419 1625 
L 2419 4116 
z
M 2253 4666 
L 3047 4666 
L 3047 1625 
L 3713 1625 
L 3713 1100 
L 3047 1100 
L 3047 0 
L 2419 0 
L 2419 1100 
L 313 1100 
L 313 1709 
L 2253 4666 
z
" transform="scale(0.015625)"/>
       </defs>
       <use xlink:href="#DejaVuSans-34"/>
       <use xlink:href="#DejaVuSans-30" x="63.623047"/>
       <use xlink:href="#DejaVuSans-30" x="127.246094"/>
      </g>
     </g>
    </g>
    <g id="ytick_5">
     <g id="line2d_12">
      <g>
       <use xlink:href="#m43ac77a9d1" x="45.07" y="65.72884" style="stroke: #000000; stroke-width: 0.8"/>
      </g>
     </g>
     <g id="text_5">
      <!-- 600 -->
      <g transform="translate(18.9825 69.528059) scale(0.1 -0.1)">
       <defs>
        <path id="DejaVuSans-36" d="M 2113 2584 
Q 1688 2584 1439 2293 
Q 1191 2003 1191 1497 
Q 1191 994 1439 701 
Q 1688 409 2113 409 
Q 2538 409 2786 701 
Q 3034 994 3034 1497 
Q 3034 2003 2786 2293 
Q 2538 2584 2113 2584 
z
M 3366 4563 
L 3366 3988 
Q 3128 4100 2886 4159 
Q 2644 4219 2406 4219 
Q 1781 4219 1451 3797 
Q 1122 3375 1075 2522 
Q 1259 2794 1537 2939 
Q 1816 3084 2150 3084 
Q 2853 3084 3261 2657 
Q 3669 2231 3669 1497 
Q 3669 778 3244 343 
Q 2819 -91 2113 -91 
Q 1303 -91 875 529 
Q 447 1150 447 2328 
Q 447 3434 972 4092 
Q 1497 4750 2381 4750 
Q 2619 4750 2861 4703 
Q 3103 4656 3366 4563 
z
" transform="scale(0.015625)"/>
       </defs>
       <use xlink:href="#DejaVuSans-36"/>
       <use xlink:href="#DejaVuSans-30" x="63.623047"/>
       <use xlink:href="#DejaVuSans-30" x="127.246094"/>
      </g>
     </g>
    </g>
    <g id="ytick_6">
     <g id="line2d_13">
      <g>
       <use xlink:href="#m43ac77a9d1" x="45.07" y="15.139988" style="stroke: #000000; stroke-width: 0.8"/>
      </g>
     </g>
     <g id="text_6">
      <!-- 800 -->
      <g transform="translate(18.9825 18.939207) scale(0.1 -0.1)">
       <defs>
        <path id="DejaVuSans-38" d="M 2034 2216 
Q 1584 2216 1326 1975 
Q 1069 1734 1069 1313 
Q 1069 891 1326 650 
Q 1584 409 2034 409 
Q 2484 409 2743 651 
Q 3003 894 3003 1313 
Q 3003 1734 2745 1975 
Q 2488 2216 2034 2216 
z
M 1403 2484 
Q 997 2584 770 2862 
Q 544 3141 544 3541 
Q 544 4100 942 4425 
Q 1341 4750 2034 4750 
Q 2731 4750 3128 4425 
Q 3525 4100 3525 3541 
Q 3525 3141 3298 2862 
Q 3072 2584 2669 2484 
Q 3125 2378 3379 2068 
Q 3634 1759 3634 1313 
Q 3634 634 3220 271 
Q 2806 -91 2034 -91 
Q 1263 -91 848 271 
Q 434 634 434 1313 
Q 434 1759 690 2068 
Q 947 2378 1403 2484 
z
M 1172 3481 
Q 1172 3119 1398 2916 
Q 1625 2713 2034 2713 
Q 2441 2713 2670 2916 
Q 2900 3119 2900 3481 
Q 2900 3844 2670 4047 
Q 2441 4250 2034 4250 
Q 1625 4250 1398 4047 
Q 1172 3844 1172 3481 
z
" transform="scale(0.015625)"/>
       </defs>
       <use xlink:href="#DejaVuSans-38"/>
       <use xlink:href="#DejaVuSans-30" x="63.623047"/>
       <use xlink:href="#DejaVuSans-30" x="127.246094"/>
      </g>
     </g>
    </g>
   </g>
   <g id="line2d_14">
    <path d="M 700.454362 217.194887 
L 679.156056 217.54068 
L 664.957186 217.977393 
L 656.082892 218.436876 
L 648.983456 219.011012 
L 643.65888 219.662179 
L 640.109162 220.275306 
L 636.559445 221.122147 
L 634.784586 221.675634 
L 633.009727 222.352114 
L 631.234868 223.193553 
L 629.46001 224.261539 
L 627.685151 225.64859 
L 625.910292 227.495927 
L 624.135433 230.017093 
L 622.360574 233.505761 
L 620.585715 238.206304 
L 618.810857 243.6777 
L 617.035998 247.81707 
L 615.261139 247.97312 
L 613.48628 242.818848 
L 609.936563 225.957848 
L 608.161704 219.971524 
L 606.386845 216.568002 
L 604.611986 214.789638 
L 602.837127 213.877007 
L 601.062269 213.414899 
L 599.28741 213.191794 
L 595.737692 213.077597 
L 588.638257 213.246467 
L 572.664528 213.679041 
L 556.690799 213.856549 
L 538.942211 213.827713 
L 521.193623 213.591156 
L 505.219893 213.162497 
L 492.795882 212.614106 
L 483.921588 212.030806 
L 478.597011 211.540171 
L 476.822152 211.315324 
L 475.047294 212.196777 
L 473.272435 211.256745 
L 469.722717 210.627999 
L 464.398141 209.696463 
L 460.848423 208.90519 
L 457.298706 207.898259 
L 453.748988 206.56931 
L 451.974129 205.734679 
L 450.19927 204.754741 
L 446.649553 202.425499 
L 444.874694 201.697653 
L 443.099835 203.277909 
L 441.324976 207.628314 
L 439.550118 208.173759 
L 437.775259 205.03071 
L 436.0004 200.775238 
L 434.225541 195.749417 
L 432.450682 189.969336 
L 430.675824 186.678104 
L 428.900965 202.701625 
L 425.351247 252.76799 
L 423.576388 259.574644 
L 421.80153 251.901832 
L 420.026671 244.915926 
L 418.251812 239.92177 
L 416.476953 236.334563 
L 414.702094 233.66803 
L 412.927236 231.61734 
L 411.152377 229.99363 
L 409.377518 228.67633 
L 407.602659 227.585636 
L 405.8278 226.66689 
L 402.278083 225.201462 
L 398.728365 224.07932 
L 395.178647 223.186281 
L 389.854071 222.130358 
L 382.754636 221.049658 
L 373.880342 219.977985 
L 354.356895 217.764683 
L 349.032319 216.964544 
L 343.707742 215.905301 
L 340.158025 214.94336 
L 336.608307 213.622034 
L 334.833448 212.749241 
L 333.058589 211.664109 
L 331.283731 210.277988 
L 329.508872 208.449216 
L 327.734013 205.940564 
L 325.959154 202.335673 
L 324.184295 196.884666 
L 322.409437 188.362015 
L 320.634578 176.28905 
L 318.859719 168.588458 
L 317.08486 175.186647 
L 315.310001 190.99012 
L 313.535143 210.206094 
L 311.760284 220.168036 
L 309.985425 223.874092 
L 308.210566 225.118658 
L 306.435707 225.431255 
L 304.660849 225.377882 
L 301.111131 224.928263 
L 290.461978 223.439883 
L 283.362543 222.474001 
L 279.812825 221.822279 
L 278.037966 221.383344 
L 276.263108 220.808129 
L 274.488249 220.009083 
L 272.71339 218.823245 
L 270.938531 216.918771 
L 269.163672 213.536043 
L 267.388814 206.637928 
L 265.613955 189.437293 
L 263.839096 133.718975 
L 262.064237 25.470116 
L 260.289378 133.520691 
L 258.51452 188.911654 
L 256.739661 206.151519 
L 254.964802 213.112887 
L 253.189943 216.543501 
L 251.415084 218.480444 
L 249.640226 219.686836 
L 247.865367 220.497293 
L 246.090508 221.076597 
L 242.54079 221.858969 
L 237.216214 222.610036 
L 219.467626 224.73535 
L 214.14305 225.738801 
L 210.593332 226.650031 
L 207.043614 227.833738 
L 205.268756 228.493651 
L 203.493897 228.990736 
L 201.719038 228.419357 
L 199.944179 222.221014 
L 198.16932 195.516069 
L 196.394462 185.822897 
L 194.619603 201.219578 
L 192.844744 210.491602 
L 191.069885 215.608129 
L 189.295026 218.210784 
L 187.520168 215.617003 
L 185.745309 197.221655 
L 183.97045 194.708322 
L 182.195591 204.12177 
L 180.420732 209.69419 
L 178.645874 212.981786 
L 176.871015 215.182917 
L 175.096156 216.827777 
L 173.321297 218.172271 
L 164.447003 224.138048 
L 160.897285 227.085531 
L 159.122427 226.09635 
L 157.347568 211.998796 
L 155.572709 201.117106 
L 153.79785 206.729515 
L 152.022991 211.443009 
L 150.248133 213.259798 
L 148.473274 211.806561 
L 146.698415 211.571513 
L 143.148697 215.437667 
L 141.373839 217.090494 
L 137.824121 219.895596 
L 134.274403 222.718334 
L 132.499545 224.384818 
L 130.724686 226.398742 
L 128.949827 228.811898 
L 127.174968 229.695139 
L 125.400109 222.853518 
L 123.625251 224.318293 
L 121.850392 229.54438 
L 120.075533 235.597632 
L 118.300674 242.72599 
L 116.525815 245.788866 
L 114.750957 213.458107 
L 112.976098 177.23339 
L 111.201239 179.91965 
L 109.42638 187.267562 
L 107.651521 192.773371 
L 105.876663 196.656111 
L 104.101804 199.471414 
L 102.326945 201.588859 
L 100.552086 203.234653 
L 98.777227 204.549639 
L 97.002369 205.624625 
L 95.22751 206.520311 
L 91.677792 207.929414 
L 88.128075 208.98991 
L 84.578357 209.818969 
L 79.253781 210.773723 
L 73.929204 211.497119 
L 66.829769 212.22917 
L 57.955475 212.904414 
L 47.306322 213.495411 
L 43.756604 213.655633 
L 43.756604 213.655633 
" clip-path="url(#p42e295d3f4)" style="fill: none; stroke: #ff0000; stroke-width: 1.5; stroke-linecap: square"/>
   </g>
   <g id="line2d_15">
    <path d="M 700.454362 217.475132 
L 698.679503 217.840614 
L 696.904644 218.526504 
L 695.129785 216.89101 
L 693.354926 216.924948 
L 691.580068 216.011065 
L 688.03035 219.027895 
L 686.255491 217.593323 
L 684.480632 217.143724 
L 682.705774 215.727758 
L 680.930915 214.488838 
L 679.156056 215.976623 
L 677.381197 217.267102 
L 675.606338 219.86753 
L 673.83148 216.278509 
L 672.056621 218.850031 
L 670.281762 216.524192 
L 668.506903 219.988153 
L 666.732044 219.272455 
L 664.957186 218.42525 
L 663.182327 218.753424 
L 661.407468 218.015003 
L 659.632609 217.786051 
L 657.85775 218.994477 
L 656.082892 214.428016 
L 654.308033 217.369813 
L 652.533174 216.602479 
L 648.983456 216.988563 
L 647.208598 220.137619 
L 645.433739 217.977928 
L 643.65888 218.461267 
L 641.884021 220.552544 
L 640.109162 219.467539 
L 638.334304 220.6451 
L 636.559445 220.247328 
L 634.784586 222.728417 
L 633.009727 223.065535 
L 631.234868 222.135405 
L 629.46001 222.908062 
L 627.685151 227.262384 
L 625.910292 228.581165 
L 624.135433 232.346632 
L 622.360574 233.944844 
L 620.585715 237.552116 
L 618.810857 242.035035 
L 617.035998 247.751796 
L 615.261139 248.023693 
L 613.48628 245.432105 
L 611.711421 233.063889 
L 609.936563 223.979038 
L 608.161704 218.537089 
L 606.386845 219.135582 
L 604.611986 214.900992 
L 601.062269 214.546075 
L 599.28741 213.723594 
L 597.512551 214.167113 
L 595.737692 214.936791 
L 593.962833 210.629158 
L 592.187975 212.63031 
L 590.413116 212.366538 
L 588.638257 215.547622 
L 585.088539 212.053276 
L 583.313681 210.630066 
L 581.538822 214.062269 
L 579.763963 211.886094 
L 577.989104 212.476687 
L 576.214245 215.335431 
L 574.439387 211.699451 
L 572.664528 214.641024 
L 570.889669 214.507101 
L 569.11481 212.06631 
L 567.339951 210.848584 
L 565.565093 213.268093 
L 563.790234 213.095786 
L 562.015375 213.066362 
L 560.240516 214.626004 
L 558.465657 212.174886 
L 556.690799 213.526304 
L 553.141081 214.29957 
L 551.366222 215.974314 
L 549.591363 215.633998 
L 547.816505 212.900386 
L 546.041646 216.43682 
L 544.266787 214.322558 
L 542.491928 215.279242 
L 540.717069 215.821261 
L 538.942211 214.42813 
L 537.167352 212.31973 
L 535.392493 215.036922 
L 533.617634 213.21879 
L 531.842775 214.137794 
L 530.067917 216.551864 
L 528.293058 213.151147 
L 526.518199 213.675534 
L 524.74334 212.282069 
L 522.968481 211.814883 
L 521.193623 213.38987 
L 519.418764 213.85106 
L 517.643905 211.851921 
L 515.869046 211.803075 
L 514.094187 215.850507 
L 512.319329 211.412269 
L 510.54447 212.99396 
L 508.769611 215.654351 
L 506.994752 213.711162 
L 503.445034 210.676204 
L 501.670176 213.542914 
L 499.895317 211.887051 
L 498.120458 211.498748 
L 496.345599 212.72431 
L 492.795882 212.329838 
L 491.021023 212.855191 
L 489.246164 210.228398 
L 487.471305 211.631975 
L 485.696446 210.332346 
L 483.921588 211.513469 
L 480.37187 211.706334 
L 478.597011 211.076764 
L 476.822152 213.831202 
L 473.272435 210.864505 
L 471.497576 211.324921 
L 469.722717 210.856723 
L 467.947858 211.705382 
L 466.173 210.200635 
L 464.398141 209.501323 
L 462.623282 209.271878 
L 460.848423 211.145249 
L 459.073564 205.870655 
L 457.298706 209.685377 
L 455.523847 206.283232 
L 453.748988 207.409733 
L 451.974129 207.673553 
L 450.19927 203.530005 
L 448.424412 200.85424 
L 446.649553 201.361857 
L 444.874694 202.426436 
L 443.099835 203.268237 
L 441.324976 207.176795 
L 439.550118 208.529005 
L 437.775259 203.897541 
L 436.0004 203.42921 
L 434.225541 195.413258 
L 432.450682 189.736272 
L 430.675824 188.135345 
L 428.900965 197.130697 
L 425.351247 257.169168 
L 423.576388 256.355566 
L 421.80153 248.19228 
L 420.026671 244.621089 
L 416.476953 236.767758 
L 412.927236 231.11745 
L 411.152377 233.611334 
L 409.377518 228.760151 
L 405.8278 226.936309 
L 404.052942 224.590291 
L 402.278083 225.787431 
L 400.503224 222.835815 
L 398.728365 222.757948 
L 396.953506 222.531945 
L 395.178647 226.234752 
L 393.403789 223.0259 
L 391.62893 223.428041 
L 389.854071 223.02758 
L 388.079212 221.559163 
L 386.304353 220.505846 
L 384.529495 223.223234 
L 382.754636 220.555819 
L 380.979777 220.518268 
L 379.204918 223.117655 
L 377.430059 220.304348 
L 375.655201 218.259806 
L 373.880342 220.634247 
L 372.105483 218.034913 
L 370.330624 221.576476 
L 368.555765 218.642622 
L 366.780907 217.883702 
L 365.006048 217.982178 
L 363.231189 218.518392 
L 361.45633 219.273086 
L 359.681471 218.696808 
L 357.906613 217.525163 
L 356.131754 219.271375 
L 354.356895 215.204143 
L 352.582036 215.157105 
L 350.807177 214.82714 
L 349.032319 215.144315 
L 347.25746 218.160672 
L 345.482601 213.994318 
L 343.707742 213.949458 
L 341.932883 214.058387 
L 340.158025 212.18615 
L 336.608307 213.897053 
L 334.833448 210.506695 
L 333.058589 210.367776 
L 331.283731 210.500778 
L 329.508872 208.855319 
L 327.734013 205.918995 
L 324.184295 197.401673 
L 322.409437 191.006454 
L 320.634578 176.983305 
L 318.859719 167.690399 
L 317.08486 172.100654 
L 315.310001 195.554178 
L 313.535143 208.756066 
L 311.760284 219.402918 
L 309.985425 223.408649 
L 308.210566 224.020014 
L 306.435707 224.853875 
L 304.660849 223.203496 
L 302.88599 226.854019 
L 301.111131 223.07389 
L 299.336272 221.032188 
L 297.561413 223.831893 
L 295.786555 222.088502 
L 294.011696 221.301242 
L 292.236837 223.15978 
L 290.461978 223.321422 
L 288.687119 221.116485 
L 286.912261 222.949457 
L 285.137402 226.198185 
L 283.362543 220.95791 
L 281.587684 221.539674 
L 279.812825 218.946637 
L 278.037966 219.162189 
L 276.263108 221.149028 
L 274.488249 221.453807 
L 270.938531 216.683486 
L 269.163672 212.717326 
L 267.388814 207.185811 
L 265.613955 190.249671 
L 263.839096 132.826442 
L 262.064237 25.121919 
L 260.289378 132.815902 
L 258.51452 190.228445 
L 256.739661 207.1536 
L 254.964802 212.673675 
L 253.189943 216.627787 
L 249.640226 221.371514 
L 247.865367 221.05184 
L 246.090508 219.0488 
L 244.315649 218.815555 
L 242.54079 221.389221 
L 240.765932 220.786242 
L 238.991073 226.003322 
L 237.216214 222.729341 
L 235.441355 220.869117 
L 233.666496 223.045048 
L 231.891638 222.853306 
L 230.116779 220.964847 
L 228.34192 221.724797 
L 226.567061 223.447903 
L 224.792202 220.642976 
L 223.017344 222.709255 
L 221.242485 226.571293 
L 219.467626 223.11314 
L 217.692767 225.173017 
L 215.917908 225.191093 
L 214.14305 226.377214 
L 212.368191 226.289927 
L 210.593332 224.353086 
L 208.818473 228.709138 
L 207.043614 226.723308 
L 205.268756 226.632777 
L 203.493897 226.100949 
L 201.719038 229.258184 
L 199.944179 222.312341 
L 198.16932 194.699906 
L 196.394462 186.051877 
L 194.619603 202.195461 
L 192.844744 211.243993 
L 191.069885 214.764512 
L 189.295026 216.327507 
L 187.520168 215.847471 
L 185.745309 195.327101 
L 183.97045 193.683908 
L 182.195591 204.175235 
L 180.420732 208.801385 
L 178.645874 211.514426 
L 176.871015 217.39538 
L 175.096156 215.619675 
L 173.321297 216.298569 
L 171.546438 217.506762 
L 169.77158 218.396963 
L 167.996721 223.337982 
L 166.221862 222.559088 
L 164.447003 224.856592 
L 162.672144 226.755548 
L 160.897285 227.291411 
L 159.122427 225.776951 
L 157.347568 211.414935 
L 155.572709 199.465012 
L 153.79785 208.006434 
L 152.022991 209.424096 
L 150.248133 214.43423 
L 148.473274 211.26926 
L 146.698415 211.319054 
L 144.923556 214.998542 
L 143.148697 214.202602 
L 141.373839 215.832731 
L 139.59898 219.834054 
L 137.824121 218.302104 
L 136.049262 220.496778 
L 134.274403 223.158448 
L 132.499545 224.908799 
L 130.724686 226.134151 
L 128.949827 231.239289 
L 127.174968 227.855956 
L 125.400109 221.819978 
L 123.625251 222.46282 
L 121.850392 229.865575 
L 120.075533 234.026134 
L 118.300674 242.754227 
L 116.525815 245.865465 
L 112.976098 179.321068 
L 111.201239 178.01598 
L 109.42638 186.363926 
L 107.651521 192.190518 
L 105.876663 196.623685 
L 104.101804 199.030153 
L 102.326945 199.002615 
L 100.552086 202.754945 
L 98.777227 205.99574 
L 97.002369 204.236588 
L 95.22751 206.849434 
L 93.452651 206.60842 
L 91.677792 206.236767 
L 89.902933 208.197 
L 88.128075 212.733166 
L 86.353216 210.270362 
L 84.578357 212.903804 
L 82.803498 211.640648 
L 81.028639 209.833467 
L 79.253781 210.254655 
L 75.704063 207.910856 
L 73.929204 209.865538 
L 72.154345 213.344686 
L 70.379487 212.498086 
L 68.604628 210.865073 
L 66.829769 213.824482 
L 65.05491 209.617576 
L 63.280051 214.537901 
L 61.505193 212.335729 
L 59.730334 212.248268 
L 57.955475 212.625636 
L 56.180616 213.780186 
L 54.405757 212.525449 
L 52.630899 212.553342 
L 50.85604 211.97492 
L 49.081181 214.18546 
L 47.306322 216.207395 
L 45.531463 213.571636 
L 43.756604 214.147917 
L 43.756604 214.147917 
" clip-path="url(#p42e295d3f4)" style="fill: none; stroke: #000000; stroke-opacity: 0.2; stroke-width: 1.5; stroke-linecap: square"/>
   </g>
   <g id="line2d_16">
    <path d="M 700.454362 217.77564 
L 698.679503 218.120309 
L 696.904644 218.78428 
L 695.129785 217.125674 
L 693.354926 217.135221 
L 691.580068 216.195569 
L 688.03035 219.156275 
L 686.255491 217.691097 
L 684.480632 217.209002 
L 682.705774 215.758486 
L 680.930915 214.48278 
L 679.156056 215.931339 
L 677.381197 217.17992 
L 675.606338 219.735519 
L 673.83148 216.098449 
L 672.056621 218.618368 
L 670.281762 216.236996 
L 668.506903 219.641065 
L 666.732044 218.860623 
L 664.957186 217.943252 
L 663.182327 218.195181 
L 661.407468 217.373669 
L 659.632609 217.053884 
L 657.85775 218.162678 
L 656.082892 213.486536 
L 654.308033 216.307108 
L 652.533174 215.40521 
L 648.983456 215.472946 
L 647.208598 218.432263 
L 645.433739 216.057248 
L 643.65888 216.294483 
L 641.884021 218.102227 
L 640.109162 216.687629 
L 638.334304 217.478143 
L 636.559445 216.620576 
L 634.784586 218.548179 
L 633.009727 218.208816 
L 631.234868 216.437247 
L 629.46001 216.141919 
L 627.685151 219.109189 
L 625.910292 218.580633 
L 624.135433 219.824935 
L 622.360574 217.934479 
L 618.810857 215.85273 
L 617.035998 217.430121 
L 615.261139 217.545969 
L 613.48628 220.108652 
L 611.711421 216.205495 
L 609.936563 215.516586 
L 608.161704 216.060961 
L 606.386845 220.062975 
L 604.611986 217.60675 
L 602.837127 218.330381 
L 601.062269 218.626572 
L 599.28741 218.027195 
L 597.512551 218.563808 
L 595.737692 219.35459 
L 593.962833 215.028041 
L 592.187975 216.988419 
L 590.413116 216.672578 
L 588.638257 219.79655 
L 585.088539 216.186279 
L 583.313681 214.707795 
L 581.538822 218.087701 
L 579.763963 215.862601 
L 577.989104 216.407821 
L 576.214245 219.224783 
L 574.439387 215.550574 
L 572.664528 218.457379 
L 570.889669 218.292034 
L 569.11481 215.823038 
L 567.339951 214.580193 
L 565.565093 216.977536 
L 563.790234 216.785893 
L 562.015375 216.739845 
L 560.240516 218.285466 
L 558.465657 215.822832 
L 556.690799 217.16515 
L 553.141081 217.927154 
L 551.366222 219.599607 
L 549.591363 219.259152 
L 547.816505 216.527512 
L 546.041646 220.067993 
L 544.266787 217.959825 
L 542.491928 218.924633 
L 540.717069 219.476791 
L 538.942211 218.095812 
L 537.167352 216.001579 
L 535.392493 218.734965 
L 533.617634 216.935068 
L 531.842775 217.874377 
L 530.067917 220.310853 
L 528.293058 216.934684 
L 526.518199 217.485807 
L 524.74334 216.121327 
L 522.968481 215.685438 
L 521.193623 217.294109 
L 519.418764 217.791457 
L 517.643905 215.831044 
L 515.869046 215.8236 
L 514.094187 219.915231 
L 512.319329 215.52412 
L 510.54447 217.156019 
L 508.769611 219.86986 
L 506.994752 217.983549 
L 503.445034 215.073475 
L 501.670176 218.008673 
L 499.895317 216.4257 
L 498.120458 216.115008 
L 496.345599 217.423264 
L 492.795882 217.211127 
L 491.021023 217.837132 
L 489.246164 215.318129 
L 487.471305 216.837397 
L 485.696446 215.662306 
L 483.921588 216.978058 
L 480.37187 217.478817 
L 478.597011 217.031989 
L 476.822152 220.011274 
L 475.047294 217.681305 
L 473.272435 217.103155 
L 471.497576 217.911726 
L 469.722717 217.724119 
L 467.947858 218.85933 
L 466.173 217.662398 
L 464.398141 217.300256 
L 462.623282 217.44439 
L 460.848423 219.735455 
L 459.073564 214.931897 
L 457.298706 219.282514 
L 455.523847 216.495768 
L 453.748988 218.335818 
L 451.974129 219.43427 
L 450.19927 216.270659 
L 448.424412 214.727971 
L 444.874694 218.224179 
L 443.099835 217.485723 
L 441.324976 217.043877 
L 439.550118 217.850641 
L 437.775259 216.362227 
L 436.0004 220.149367 
L 434.225541 217.159236 
L 432.450682 217.262332 
L 430.675824 218.952636 
L 428.900965 211.924468 
L 427.126106 217.142822 
L 425.351247 221.896573 
L 423.576388 214.276317 
L 421.80153 213.785843 
L 420.026671 217.200559 
L 418.251812 218.197148 
L 416.476953 217.928591 
L 414.702094 217.793639 
L 412.927236 216.995505 
L 411.152377 221.113099 
L 409.377518 217.579216 
L 407.602659 217.738888 
L 405.8278 217.764814 
L 404.052942 216.204189 
L 402.278083 218.081365 
L 400.503224 215.72522 
L 398.728365 216.174024 
L 396.953506 216.418069 
L 395.178647 220.543867 
L 393.403789 217.718572 
L 391.62893 218.471003 
L 389.854071 218.392617 
L 388.079212 217.22225 
L 386.304353 216.446476 
L 384.529495 219.423889 
L 382.754636 217.001557 
L 380.979777 217.196386 
L 379.204918 220.017432 
L 377.430059 217.416836 
L 375.655201 215.577674 
L 373.880342 218.151658 
L 372.105483 215.747438 
L 370.330624 219.481041 
L 368.555765 216.737485 
L 366.780907 216.168451 
L 365.006048 216.457771 
L 363.231189 217.187219 
L 361.45633 218.139069 
L 359.681471 217.76555 
L 357.906613 216.804139 
L 356.131754 218.770186 
L 354.356895 214.934855 
L 352.582036 215.134685 
L 350.807177 215.070026 
L 349.032319 215.675167 
L 347.25746 219.007371 
L 345.482601 215.191302 
L 343.707742 215.539552 
L 341.932883 216.095332 
L 340.158025 214.738185 
L 336.608307 217.770414 
L 334.833448 215.25285 
L 333.058589 216.199063 
L 331.283731 217.718185 
L 329.508872 217.901499 
L 327.734013 217.473827 
L 325.959154 216.751034 
L 324.184295 218.012402 
L 322.409437 220.139834 
L 320.634578 218.18965 
L 318.859719 216.597337 
L 317.08486 214.409403 
L 315.310001 222.059454 
L 313.535143 216.045367 
L 311.760284 216.730277 
L 309.985425 217.029952 
L 308.210566 216.396751 
L 306.435707 216.918015 
L 304.660849 215.32101 
L 302.88599 219.169755 
L 301.111131 215.641022 
L 299.336272 213.864589 
L 297.561413 216.926811 
L 295.786555 215.436966 
L 294.011696 214.893096 
L 292.236837 216.98631 
L 290.461978 217.376935 
L 288.687119 215.399528 
L 286.912261 217.4641 
L 285.137402 220.955707 
L 283.362543 215.979305 
L 281.587684 216.859576 
L 279.812825 214.619753 
L 278.037966 215.27424 
L 276.263108 217.836295 
L 274.488249 218.94012 
L 272.71339 217.78566 
L 269.163672 216.676678 
L 267.388814 218.043279 
L 265.613955 218.307773 
L 263.839096 216.602862 
L 262.064237 217.147198 
L 260.289378 216.790606 
L 258.51452 218.812186 
L 256.739661 218.497476 
L 254.964802 217.056183 
L 251.415084 218.059933 
L 249.640226 219.180074 
L 247.865367 218.049942 
L 246.090508 215.467599 
L 244.315649 214.797529 
L 242.54079 217.025647 
L 240.765932 216.137064 
L 238.991073 221.108315 
L 237.216214 217.6147 
L 235.441355 215.551476 
L 233.666496 217.533998 
L 231.891638 217.152989 
L 230.116779 215.074963 
L 228.34192 215.6412 
L 226.567061 217.162903 
L 224.792202 214.145417 
L 223.017344 215.984384 
L 221.242485 219.60044 
L 219.467626 215.873185 
L 217.692767 217.635634 
L 215.917908 217.32173 
L 214.14305 218.133808 
L 212.368191 217.62146 
L 210.593332 215.19845 
L 208.818473 218.998013 
L 207.043614 216.384965 
L 205.268756 215.634522 
L 203.493897 214.605608 
L 201.719038 218.334223 
L 199.944179 217.586722 
L 198.16932 216.679232 
L 196.394462 217.724375 
L 194.619603 218.471278 
L 192.844744 218.247786 
L 191.069885 216.651779 
L 189.295026 215.612119 
L 187.520168 217.725864 
L 185.745309 215.600842 
L 183.97045 216.470981 
L 182.195591 217.54886 
L 180.420732 216.60259 
L 178.645874 216.028036 
L 176.871015 219.707858 
L 175.096156 216.287294 
L 173.321297 215.621694 
L 171.546438 215.643854 
L 169.77158 215.414287 
L 167.996721 219.229965 
L 166.221862 217.253317 
L 164.447003 218.21394 
L 162.672144 218.601389 
L 160.897285 217.701275 
L 159.122427 217.175995 
L 157.347568 216.911535 
L 155.572709 215.843302 
L 153.79785 218.772315 
L 152.022991 215.476483 
L 150.248133 218.669828 
L 148.473274 216.958095 
L 146.698415 217.242936 
L 144.923556 219.012212 
L 143.148697 216.26033 
L 141.373839 216.237632 
L 139.59898 218.791183 
L 137.824121 215.901904 
L 136.049262 216.733933 
L 134.274403 217.93551 
L 132.499545 218.019377 
L 130.724686 217.230805 
L 128.949827 219.922786 
L 127.174968 215.656212 
L 125.400109 216.461856 
L 123.625251 215.639923 
L 121.850392 217.816591 
L 120.075533 215.923897 
L 118.300674 217.523632 
L 116.525815 217.571994 
L 114.750957 216.96301 
L 112.976098 219.583073 
L 111.201239 215.591725 
L 109.42638 216.591759 
L 107.651521 216.912542 
L 105.876663 217.46297 
L 104.101804 217.054134 
L 102.326945 214.909152 
L 100.552086 217.015687 
L 98.777227 218.941497 
L 97.002369 216.107359 
L 95.22751 217.824519 
L 91.677792 215.802749 
L 89.902933 217.197969 
L 88.128075 221.238651 
L 86.353216 218.337525 
L 84.578357 220.580231 
L 82.803498 218.966393 
L 81.028639 216.842577 
L 79.253781 216.976327 
L 75.704063 214.130104 
L 73.929204 215.863814 
L 72.154345 219.138966 
L 70.379487 218.103415 
L 68.604628 216.294853 
L 66.829769 219.090707 
L 65.05491 214.731026 
L 63.280051 219.508302 
L 61.505193 217.171889 
L 59.730334 216.95819 
L 57.955475 217.216617 
L 56.180616 218.258897 
L 54.405757 216.898007 
L 52.630899 216.825369 
L 50.85604 216.151599 
L 49.081181 218.271576 
L 47.306322 220.207379 
L 45.531463 217.489599 
L 43.756604 217.98768 
L 43.756604 217.98768 
" clip-path="url(#p42e295d3f4)" style="fill: none; stroke-dasharray: 5.55,2.4; stroke-dashoffset: 0; stroke: #008000; stroke-opacity: 0.5; stroke-width: 1.5"/>
   </g>
   <g id="patch_3">
    <path d="M 45.07 271.297281 
L 45.07 13.399283 
" style="fill: none; stroke: #000000; stroke-width: 0.8; stroke-linejoin: miter; stroke-linecap: square"/>
   </g>
   <g id="patch_4">
    <path d="M 698.715 271.297281 
L 698.715 13.399283 
" style="fill: none; stroke: #000000; stroke-width: 0.8; stroke-linejoin: miter; stroke-linecap: square"/>
   </g>
   <g id="patch_5">
    <path d="M 45.07 271.297281 
L 698.715 271.297281 
" style="fill: none; stroke: #000000; stroke-width: 0.8; stroke-linejoin: miter; stroke-linecap: square"/>
   </g>
   <g id="patch_6">
    <path d="M 45.07 13.399283 
L 698.715 13.399283 
" style="fill: none; stroke: #000000; stroke-width: 0.8; stroke-linejoin: miter; stroke-linecap: square"/>
   </g>
   <g id="legend_1">
    <g id="patch_7">
     <path d="M 568.947812 65.433658 
L 691.715 65.433658 
Q 693.715 65.433658 693.715 63.433658 
L 693.715 20.399283 
Q 693.715 18.399283 691.715 18.399283 
L 568.947812 18.399283 
Q 566.947812 18.399283 566.947812 20.399283 
L 566.947812 63.433658 
Q 566.947812 65.433658 568.947812 65.433658 
z
" style="fill: #ffffff; opacity: 0.8; stroke: #cccccc; stroke-linejoin: miter"/>
    </g>
    <g id="line2d_17">
     <path d="M 570.947812 26.49772 
L 580.947812 26.49772 
L 590.947812 26.49772 
" style="fill: none; stroke: #ff0000; stroke-width: 1.5; stroke-linecap: square"/>
    </g>
    <g id="text_7">
     <!-- Fitted Spectrum -->
     <g transform="translate(598.947812 29.99772) scale(0.1 -0.1)">
      <defs>
       <path id="DejaVuSans-46" d="M 628 4666 
L 3309 4666 
L 3309 4134 
L 1259 4134 
L 1259 2759 
L 3109 2759 
L 3109 2228 
L 1259 2228 
L 1259 0 
L 628 0 
L 628 4666 
z
" transform="scale(0.015625)"/>
       <path id="DejaVuSans-69" d="M 603 3500 
L 1178 3500 
L 1178 0 
L 603 0 
L 603 3500 
z
M 603 4863 
L 1178 4863 
L 1178 4134 
L 603 4134 
L 603 4863 
z
" transform="scale(0.015625)"/>
       <path id="DejaVuSans-74" d="M 1172 4494 
L 1172 3500 
L 2356 3500 
L 2356 3053 
L 1172 3053 
L 1172 1153 
Q 1172 725 1289 603 
Q 1406 481 1766 481 
L 2356 481 
L 2356 0 
L 1766 0 
Q 1100 0 847 248 
Q 594 497 594 1153 
L 594 3053 
L 172 3053 
L 172 3500 
L 594 3500 
L 594 4494 
L 1172 4494 
z
" transform="scale(0.015625)"/>
       <path id="DejaVuSans-65" d="M 3597 1894 
L 3597 1613 
L 953 1613 
Q 991 1019 1311 708 
Q 1631 397 2203 397 
Q 2534 397 2845 478 
Q 3156 559 3463 722 
L 3463 178 
Q 3153 47 2828 -22 
Q 2503 -91 2169 -91 
Q 1331 -91 842 396 
Q 353 884 353 1716 
Q 353 2575 817 3079 
Q 1281 3584 2069 3584 
Q 2775 3584 3186 3129 
Q 3597 2675 3597 1894 
z
M 3022 2063 
Q 3016 2534 2758 2815 
Q 2500 3097 2075 3097 
Q 1594 3097 1305 2825 
Q 1016 2553 972 2059 
L 3022 2063 
z
" transform="scale(0.015625)"/>
       <path id="DejaVuSans-64" d="M 2906 2969 
L 2906 4863 
L 3481 4863 
L 3481 0 
L 2906 0 
L 2906 525 
Q 2725 213 2448 61 
Q 2172 -91 1784 -91 
Q 1150 -91 751 415 
Q 353 922 353 1747 
Q 353 2572 751 3078 
Q 1150 3584 1784 3584 
Q 2172 3584 2448 3432 
Q 2725 3281 2906 2969 
z
M 947 1747 
Q 947 1113 1208 752 
Q 1469 391 1925 391 
Q 2381 391 2643 752 
Q 2906 1113 2906 1747 
Q 2906 2381 2643 2742 
Q 2381 3103 1925 3103 
Q 1469 3103 1208 2742 
Q 947 2381 947 1747 
z
" transform="scale(0.015625)"/>
       <path id="DejaVuSans-20" transform="scale(0.015625)"/>
       <path id="DejaVuSans-53" d="M 3425 4513 
L 3425 3897 
Q 3066 4069 2747 4153 
Q 2428 4238 2131 4238 
Q 1616 4238 1336 4038 
Q 1056 3838 1056 3469 
Q 1056 3159 1242 3001 
Q 1428 2844 1947 2747 
L 2328 2669 
Q 3034 2534 3370 2195 
Q 3706 1856 3706 1288 
Q 3706 609 3251 259 
Q 2797 -91 1919 -91 
Q 1588 -91 1214 -16 
Q 841 59 441 206 
L 441 856 
Q 825 641 1194 531 
Q 1563 422 1919 422 
Q 2459 422 2753 634 
Q 3047 847 3047 1241 
Q 3047 1584 2836 1778 
Q 2625 1972 2144 2069 
L 1759 2144 
Q 1053 2284 737 2584 
Q 422 2884 422 3419 
Q 422 4038 858 4394 
Q 1294 4750 2059 4750 
Q 2388 4750 2728 4690 
Q 3069 4631 3425 4513 
z
" transform="scale(0.015625)"/>
       <path id="DejaVuSans-70" d="M 1159 525 
L 1159 -1331 
L 581 -1331 
L 581 3500 
L 1159 3500 
L 1159 2969 
Q 1341 3281 1617 3432 
Q 1894 3584 2278 3584 
Q 2916 3584 3314 3078 
Q 3713 2572 3713 1747 
Q 3713 922 3314 415 
Q 2916 -91 2278 -91 
Q 1894 -91 1617 61 
Q 1341 213 1159 525 
z
M 3116 1747 
Q 3116 2381 2855 2742 
Q 2594 3103 2138 3103 
Q 1681 3103 1420 2742 
Q 1159 2381 1159 1747 
Q 1159 1113 1420 752 
Q 1681 391 2138 391 
Q 2594 391 2855 752 
Q 3116 1113 3116 1747 
z
" transform="scale(0.015625)"/>
       <path id="DejaVuSans-63" d="M 3122 3366 
L 3122 2828 
Q 2878 2963 2633 3030 
Q 2388 3097 2138 3097 
Q 1578 3097 1268 2742 
Q 959 2388 959 1747 
Q 959 1106 1268 751 
Q 1578 397 2138 397 
Q 2388 397 2633 464 
Q 2878 531 3122 666 
L 3122 134 
Q 2881 22 2623 -34 
Q 2366 -91 2075 -91 
Q 1284 -91 818 406 
Q 353 903 353 1747 
Q 353 2603 823 3093 
Q 1294 3584 2113 3584 
Q 2378 3584 2631 3529 
Q 2884 3475 3122 3366 
z
" transform="scale(0.015625)"/>
       <path id="DejaVuSans-72" d="M 2631 2963 
Q 2534 3019 2420 3045 
Q 2306 3072 2169 3072 
Q 1681 3072 1420 2755 
Q 1159 2438 1159 1844 
L 1159 0 
L 581 0 
L 581 3500 
L 1159 3500 
L 1159 2956 
Q 1341 3275 1631 3429 
Q 1922 3584 2338 3584 
Q 2397 3584 2469 3576 
Q 2541 3569 2628 3553 
L 2631 2963 
z
" transform="scale(0.015625)"/>
       <path id="DejaVuSans-75" d="M 544 1381 
L 544 3500 
L 1119 3500 
L 1119 1403 
Q 1119 906 1312 657 
Q 1506 409 1894 409 
Q 2359 409 2629 706 
Q 2900 1003 2900 1516 
L 2900 3500 
L 3475 3500 
L 3475 0 
L 2900 0 
L 2900 538 
Q 2691 219 2414 64 
Q 2138 -91 1772 -91 
Q 1169 -91 856 284 
Q 544 659 544 1381 
z
M 1991 3584 
L 1991 3584 
z
" transform="scale(0.015625)"/>
       <path id="DejaVuSans-6d" d="M 3328 2828 
Q 3544 3216 3844 3400 
Q 4144 3584 4550 3584 
Q 5097 3584 5394 3201 
Q 5691 2819 5691 2113 
L 5691 0 
L 5113 0 
L 5113 2094 
Q 5113 2597 4934 2840 
Q 4756 3084 4391 3084 
Q 3944 3084 3684 2787 
Q 3425 2491 3425 1978 
L 3425 0 
L 2847 0 
L 2847 2094 
Q 2847 2600 2669 2842 
Q 2491 3084 2119 3084 
Q 1678 3084 1418 2786 
Q 1159 2488 1159 1978 
L 1159 0 
L 581 0 
L 581 3500 
L 1159 3500 
L 1159 2956 
Q 1356 3278 1631 3431 
Q 1906 3584 2284 3584 
Q 2666 3584 2933 3390 
Q 3200 3197 3328 2828 
z
" transform="scale(0.015625)"/>
      </defs>
      <use xlink:href="#DejaVuSans-46"/>
      <use xlink:href="#DejaVuSans-69" x="50.269531"/>
      <use xlink:href="#DejaVuSans-74" x="78.052734"/>
      <use xlink:href="#DejaVuSans-74" x="117.261719"/>
      <use xlink:href="#DejaVuSans-65" x="156.470703"/>
      <use xlink:href="#DejaVuSans-64" x="217.994141"/>
      <use xlink:href="#DejaVuSans-20" x="281.470703"/>
      <use xlink:href="#DejaVuSans-53" x="313.257812"/>
      <use xlink:href="#DejaVuSans-70" x="376.734375"/>
      <use xlink:href="#DejaVuSans-65" x="440.210938"/>
      <use xlink:href="#DejaVuSans-63" x="501.734375"/>
      <use xlink:href="#DejaVuSans-74" x="556.714844"/>
      <use xlink:href="#DejaVuSans-72" x="595.923828"/>
      <use xlink:href="#DejaVuSans-75" x="637.037109"/>
      <use xlink:href="#DejaVuSans-6d" x="700.416016"/>
     </g>
    </g>
    <g id="line2d_18">
     <path d="M 570.947812 41.175845 
L 580.947812 41.175845 
L 590.947812 41.175845 
" style="fill: none; stroke: #000000; stroke-opacity: 0.2; stroke-width: 1.5; stroke-linecap: square"/>
    </g>
    <g id="text_8">
     <!-- Original Spectrum -->
     <g transform="translate(598.947812 44.675845) scale(0.1 -0.1)">
      <defs>
       <path id="DejaVuSans-4f" d="M 2522 4238 
Q 1834 4238 1429 3725 
Q 1025 3213 1025 2328 
Q 1025 1447 1429 934 
Q 1834 422 2522 422 
Q 3209 422 3611 934 
Q 4013 1447 4013 2328 
Q 4013 3213 3611 3725 
Q 3209 4238 2522 4238 
z
M 2522 4750 
Q 3503 4750 4090 4092 
Q 4678 3434 4678 2328 
Q 4678 1225 4090 567 
Q 3503 -91 2522 -91 
Q 1538 -91 948 565 
Q 359 1222 359 2328 
Q 359 3434 948 4092 
Q 1538 4750 2522 4750 
z
" transform="scale(0.015625)"/>
       <path id="DejaVuSans-67" d="M 2906 1791 
Q 2906 2416 2648 2759 
Q 2391 3103 1925 3103 
Q 1463 3103 1205 2759 
Q 947 2416 947 1791 
Q 947 1169 1205 825 
Q 1463 481 1925 481 
Q 2391 481 2648 825 
Q 2906 1169 2906 1791 
z
M 3481 434 
Q 3481 -459 3084 -895 
Q 2688 -1331 1869 -1331 
Q 1566 -1331 1297 -1286 
Q 1028 -1241 775 -1147 
L 775 -588 
Q 1028 -725 1275 -790 
Q 1522 -856 1778 -856 
Q 2344 -856 2625 -561 
Q 2906 -266 2906 331 
L 2906 616 
Q 2728 306 2450 153 
Q 2172 0 1784 0 
Q 1141 0 747 490 
Q 353 981 353 1791 
Q 353 2603 747 3093 
Q 1141 3584 1784 3584 
Q 2172 3584 2450 3431 
Q 2728 3278 2906 2969 
L 2906 3500 
L 3481 3500 
L 3481 434 
z
" transform="scale(0.015625)"/>
       <path id="DejaVuSans-6e" d="M 3513 2113 
L 3513 0 
L 2938 0 
L 2938 2094 
Q 2938 2591 2744 2837 
Q 2550 3084 2163 3084 
Q 1697 3084 1428 2787 
Q 1159 2491 1159 1978 
L 1159 0 
L 581 0 
L 581 3500 
L 1159 3500 
L 1159 2956 
Q 1366 3272 1645 3428 
Q 1925 3584 2291 3584 
Q 2894 3584 3203 3211 
Q 3513 2838 3513 2113 
z
" transform="scale(0.015625)"/>
       <path id="DejaVuSans-61" d="M 2194 1759 
Q 1497 1759 1228 1600 
Q 959 1441 959 1056 
Q 959 750 1161 570 
Q 1363 391 1709 391 
Q 2188 391 2477 730 
Q 2766 1069 2766 1631 
L 2766 1759 
L 2194 1759 
z
M 3341 1997 
L 3341 0 
L 2766 0 
L 2766 531 
Q 2569 213 2275 61 
Q 1981 -91 1556 -91 
Q 1019 -91 701 211 
Q 384 513 384 1019 
Q 384 1609 779 1909 
Q 1175 2209 1959 2209 
L 2766 2209 
L 2766 2266 
Q 2766 2663 2505 2880 
Q 2244 3097 1772 3097 
Q 1472 3097 1187 3025 
Q 903 2953 641 2809 
L 641 3341 
Q 956 3463 1253 3523 
Q 1550 3584 1831 3584 
Q 2591 3584 2966 3190 
Q 3341 2797 3341 1997 
z
" transform="scale(0.015625)"/>
       <path id="DejaVuSans-6c" d="M 603 4863 
L 1178 4863 
L 1178 0 
L 603 0 
L 603 4863 
z
" transform="scale(0.015625)"/>
      </defs>
      <use xlink:href="#DejaVuSans-4f"/>
      <use xlink:href="#DejaVuSans-72" x="78.710938"/>
      <use xlink:href="#DejaVuSans-69" x="119.824219"/>
      <use xlink:href="#DejaVuSans-67" x="147.607422"/>
      <use xlink:href="#DejaVuSans-69" x="211.083984"/>
      <use xlink:href="#DejaVuSans-6e" x="238.867188"/>
      <use xlink:href="#DejaVuSans-61" x="302.246094"/>
      <use xlink:href="#DejaVuSans-6c" x="363.525391"/>
      <use xlink:href="#DejaVuSans-20" x="391.308594"/>
      <use xlink:href="#DejaVuSans-53" x="423.095703"/>
      <use xlink:href="#DejaVuSans-70" x="486.572266"/>
      <use xlink:href="#DejaVuSans-65" x="550.048828"/>
      <use xlink:href="#DejaVuSans-63" x="611.572266"/>
      <use xlink:href="#DejaVuSans-74" x="666.552734"/>
      <use xlink:href="#DejaVuSans-72" x="705.761719"/>
      <use xlink:href="#DejaVuSans-75" x="746.875"/>
      <use xlink:href="#DejaVuSans-6d" x="810.253906"/>
     </g>
    </g>
    <g id="line2d_19">
     <path d="M 570.947812 55.85397 
L 580.947812 55.85397 
L 590.947812 55.85397 
" style="fill: none; stroke-dasharray: 5.55,2.4; stroke-dashoffset: 0; stroke: #008000; stroke-opacity: 0.5; stroke-width: 1.5"/>
    </g>
    <g id="text_9">
     <!-- Residual -->
     <g transform="translate(598.947812 59.35397) scale(0.1 -0.1)">
      <defs>
       <path id="DejaVuSans-52" d="M 2841 2188 
Q 3044 2119 3236 1894 
Q 3428 1669 3622 1275 
L 4263 0 
L 3584 0 
L 2988 1197 
Q 2756 1666 2539 1819 
Q 2322 1972 1947 1972 
L 1259 1972 
L 1259 0 
L 628 0 
L 628 4666 
L 2053 4666 
Q 2853 4666 3247 4331 
Q 3641 3997 3641 3322 
Q 3641 2881 3436 2590 
Q 3231 2300 2841 2188 
z
M 1259 4147 
L 1259 2491 
L 2053 2491 
Q 2509 2491 2742 2702 
Q 2975 2913 2975 3322 
Q 2975 3731 2742 3939 
Q 2509 4147 2053 4147 
L 1259 4147 
z
" transform="scale(0.015625)"/>
       <path id="DejaVuSans-73" d="M 2834 3397 
L 2834 2853 
Q 2591 2978 2328 3040 
Q 2066 3103 1784 3103 
Q 1356 3103 1142 2972 
Q 928 2841 928 2578 
Q 928 2378 1081 2264 
Q 1234 2150 1697 2047 
L 1894 2003 
Q 2506 1872 2764 1633 
Q 3022 1394 3022 966 
Q 3022 478 2636 193 
Q 2250 -91 1575 -91 
Q 1294 -91 989 -36 
Q 684 19 347 128 
L 347 722 
Q 666 556 975 473 
Q 1284 391 1588 391 
Q 1994 391 2212 530 
Q 2431 669 2431 922 
Q 2431 1156 2273 1281 
Q 2116 1406 1581 1522 
L 1381 1569 
Q 847 1681 609 1914 
Q 372 2147 372 2553 
Q 372 3047 722 3315 
Q 1072 3584 1716 3584 
Q 2034 3584 2315 3537 
Q 2597 3491 2834 3397 
z
" transform="scale(0.015625)"/>
      </defs>
      <use xlink:href="#DejaVuSans-52"/>
      <use xlink:href="#DejaVuSans-65" x="64.982422"/>
      <use xlink:href="#DejaVuSans-73" x="126.505859"/>
      <use xlink:href="#DejaVuSans-69" x="178.605469"/>
      <use xlink:href="#DejaVuSans-64" x="206.388672"/>
      <use xlink:href="#DejaVuSans-75" x="269.865234"/>
      <use xlink:href="#DejaVuSans-61" x="333.244141"/>
      <use xlink:href="#DejaVuSans-6c" x="394.523438"/>
     </g>
    </g>
   </g>
  </g>
  <g id="axes_2">
   <g id="patch_8">
    <path d="M 45.07 548.12 
L 698.715 548.12 
L 698.715 290.222002 
L 45.07 290.222002 
z
" style="fill: #ffffff"/>
   </g>
   <g id="matplotlib.axis_3">
    <g id="xtick_8">
     <g id="line2d_20">
      <g>
       <use xlink:href="#m4ee56284ab" x="698.715" y="548.12" style="stroke: #000000; stroke-width: 0.8"/>
      </g>
     </g>
     <g id="text_10">
      <!-- −20 -->
      <g transform="translate(688.162656 562.718437) scale(0.1 -0.1)">
       <use xlink:href="#DejaVuSans-2212"/>
       <use xlink:href="#DejaVuSans-32" x="83.789062"/>
       <use xlink:href="#DejaVuSans-30" x="147.412109"/>
      </g>
     </g>
    </g>
    <g id="xtick_9">
     <g id="line2d_21">
      <g>
       <use xlink:href="#m4ee56284ab" x="589.774167" y="548.12" style="stroke: #000000; stroke-width: 0.8"/>
      </g>
     </g>
     <g id="text_11">
      <!-- −15 -->
      <g transform="translate(579.221823 562.718437) scale(0.1 -0.1)">
       <defs>
        <path id="DejaVuSans-31" d="M 794 531 
L 1825 531 
L 1825 4091 
L 703 3866 
L 703 4441 
L 1819 4666 
L 2450 4666 
L 2450 531 
L 3481 531 
L 3481 0 
L 794 0 
L 794 531 
z
" transform="scale(0.015625)"/>
        <path id="DejaVuSans-35" d="M 691 4666 
L 3169 4666 
L 3169 4134 
L 1269 4134 
L 1269 2991 
Q 1406 3038 1543 3061 
Q 1681 3084 1819 3084 
Q 2600 3084 3056 2656 
Q 3513 2228 3513 1497 
Q 3513 744 3044 326 
Q 2575 -91 1722 -91 
Q 1428 -91 1123 -41 
Q 819 9 494 109 
L 494 744 
Q 775 591 1075 516 
Q 1375 441 1709 441 
Q 2250 441 2565 725 
Q 2881 1009 2881 1497 
Q 2881 1984 2565 2268 
Q 2250 2553 1709 2553 
Q 1456 2553 1204 2497 
Q 953 2441 691 2322 
L 691 4666 
z
" transform="scale(0.015625)"/>
       </defs>
       <use xlink:href="#DejaVuSans-2212"/>
       <use xlink:href="#DejaVuSans-31" x="83.789062"/>
       <use xlink:href="#DejaVuSans-35" x="147.412109"/>
      </g>
     </g>
    </g>
    <g id="xtick_10">
     <g id="line2d_22">
      <g>
       <use xlink:href="#m4ee56284ab" x="480.833333" y="548.12" style="stroke: #000000; stroke-width: 0.8"/>
      </g>
     </g>
     <g id="text_12">
      <!-- −10 -->
      <g transform="translate(470.28099 562.718437) scale(0.1 -0.1)">
       <use xlink:href="#DejaVuSans-2212"/>
       <use xlink:href="#DejaVuSans-31" x="83.789062"/>
       <use xlink:href="#DejaVuSans-30" x="147.412109"/>
      </g>
     </g>
    </g>
    <g id="xtick_11">
     <g id="line2d_23">
      <g>
       <use xlink:href="#m4ee56284ab" x="371.8925" y="548.12" style="stroke: #000000; stroke-width: 0.8"/>
      </g>
     </g>
     <g id="text_13">
      <!-- −5 -->
      <g transform="translate(364.521406 562.718437) scale(0.1 -0.1)">
       <use xlink:href="#DejaVuSans-2212"/>
       <use xlink:href="#DejaVuSans-35" x="83.789062"/>
      </g>
     </g>
    </g>
    <g id="xtick_12">
     <g id="line2d_24">
      <g>
       <use xlink:href="#m4ee56284ab" x="262.951667" y="548.12" style="stroke: #000000; stroke-width: 0.8"/>
      </g>
     </g>
     <g id="text_14">
      <!-- 0 -->
      <g transform="translate(259.770417 562.718437) scale(0.1 -0.1)">
       <use xlink:href="#DejaVuSans-30"/>
      </g>
     </g>
    </g>
    <g id="xtick_13">
     <g id="line2d_25">
      <g>
       <use xlink:href="#m4ee56284ab" x="154.010833" y="548.12" style="stroke: #000000; stroke-width: 0.8"/>
      </g>
     </g>
     <g id="text_15">
      <!-- 5 -->
      <g transform="translate(150.829583 562.718437) scale(0.1 -0.1)">
       <use xlink:href="#DejaVuSans-35"/>
      </g>
     </g>
    </g>
    <g id="xtick_14">
     <g id="line2d_26">
      <g>
       <use xlink:href="#m4ee56284ab" x="45.07" y="548.12" style="stroke: #000000; stroke-width: 0.8"/>
      </g>
     </g>
     <g id="text_16">
      <!-- 10 -->
      <g transform="translate(38.7075 562.718437) scale(0.1 -0.1)">
       <use xlink:href="#DejaVuSans-31"/>
       <use xlink:href="#DejaVuSans-30" x="63.623047"/>
      </g>
     </g>
    </g>
    <g id="text_17">
     <!-- ppm -->
     <g transform="translate(360.67375 576.396562) scale(0.1 -0.1)">
      <use xlink:href="#DejaVuSans-70"/>
      <use xlink:href="#DejaVuSans-70" x="63.476562"/>
      <use xlink:href="#DejaVuSans-6d" x="126.953125"/>
     </g>
    </g>
   </g>
   <g id="matplotlib.axis_4">
    <g id="ytick_7">
     <g id="line2d_27">
      <g>
       <use xlink:href="#m43ac77a9d1" x="45.07" y="541.928273" style="stroke: #000000; stroke-width: 0.8"/>
      </g>
     </g>
     <g id="text_18">
      <!-- −200 -->
      <g transform="translate(10.602812 545.727491) scale(0.1 -0.1)">
       <use xlink:href="#DejaVuSans-2212"/>
       <use xlink:href="#DejaVuSans-32" x="83.789062"/>
       <use xlink:href="#DejaVuSans-30" x="147.412109"/>
       <use xlink:href="#DejaVuSans-30" x="211.035156"/>
      </g>
     </g>
    </g>
    <g id="ytick_8">
     <g id="line2d_28">
      <g>
       <use xlink:href="#m43ac77a9d1" x="45.07" y="497.46588" style="stroke: #000000; stroke-width: 0.8"/>
      </g>
     </g>
     <g id="text_19">
      <!-- 0 -->
      <g transform="translate(31.7075 501.265098) scale(0.1 -0.1)">
       <use xlink:href="#DejaVuSans-30"/>
      </g>
     </g>
    </g>
    <g id="ytick_9">
     <g id="line2d_29">
      <g>
       <use xlink:href="#m43ac77a9d1" x="45.07" y="453.003487" style="stroke: #000000; stroke-width: 0.8"/>
      </g>
     </g>
     <g id="text_20">
      <!-- 200 -->
      <g transform="translate(18.9825 456.802705) scale(0.1 -0.1)">
       <use xlink:href="#DejaVuSans-32"/>
       <use xlink:href="#DejaVuSans-30" x="63.623047"/>
       <use xlink:href="#DejaVuSans-30" x="127.246094"/>
      </g>
     </g>
    </g>
    <g id="ytick_10">
     <g id="line2d_30">
      <g>
       <use xlink:href="#m43ac77a9d1" x="45.07" y="408.541093" style="stroke: #000000; stroke-width: 0.8"/>
      </g>
     </g>
     <g id="text_21">
      <!-- 400 -->
      <g transform="translate(18.9825 412.340312) scale(0.1 -0.1)">
       <use xlink:href="#DejaVuSans-34"/>
       <use xlink:href="#DejaVuSans-30" x="63.623047"/>
       <use xlink:href="#DejaVuSans-30" x="127.246094"/>
      </g>
     </g>
    </g>
    <g id="ytick_11">
     <g id="line2d_31">
      <g>
       <use xlink:href="#m43ac77a9d1" x="45.07" y="364.0787" style="stroke: #000000; stroke-width: 0.8"/>
      </g>
     </g>
     <g id="text_22">
      <!-- 600 -->
      <g transform="translate(18.9825 367.877919) scale(0.1 -0.1)">
       <use xlink:href="#DejaVuSans-36"/>
       <use xlink:href="#DejaVuSans-30" x="63.623047"/>
       <use xlink:href="#DejaVuSans-30" x="127.246094"/>
      </g>
     </g>
    </g>
    <g id="ytick_12">
     <g id="line2d_32">
      <g>
       <use xlink:href="#m43ac77a9d1" x="45.07" y="319.616307" style="stroke: #000000; stroke-width: 0.8"/>
      </g>
     </g>
     <g id="text_23">
      <!-- 800 -->
      <g transform="translate(18.9825 323.415526) scale(0.1 -0.1)">
       <use xlink:href="#DejaVuSans-38"/>
       <use xlink:href="#DejaVuSans-30" x="63.623047"/>
       <use xlink:href="#DejaVuSans-30" x="127.246094"/>
      </g>
     </g>
    </g>
   </g>
   <g id="line2d_33">
    <path d="M 700.454362 498.073492 
L 670.281762 498.370218 
L 654.308033 498.732372 
L 645.433739 499.117786 
L 638.334304 499.663561 
L 634.784586 500.099615 
L 631.234868 500.743809 
L 629.46001 501.192047 
L 627.685151 501.769559 
L 625.910292 502.533295 
L 624.135433 503.5729 
L 622.360574 505.029579 
L 620.585715 507.110535 
L 618.810857 510.017573 
L 617.035998 513.418919 
L 615.261139 514.926952 
L 613.48628 511.247414 
L 611.711421 505.158991 
L 609.936563 500.862094 
L 608.161704 498.579872 
L 606.386845 497.444563 
L 604.611986 496.882185 
L 602.837127 496.605724 
L 599.28741 496.424825 
L 592.187975 496.488983 
L 565.565093 496.924873 
L 533.617634 497.156675 
L 473.272435 497.332533 
L 336.608307 497.461851 
L 43.756604 497.543315 
L 43.756604 497.543315 
" clip-path="url(#pbf1cce7fdf)" style="fill: none; stroke: #1f77b4; stroke-opacity: 0.85; stroke-width: 1.5; stroke-linecap: square"/>
   </g>
   <g id="line2d_34">
    <path d="M 614.952068 548.12 
L 614.952068 290.222002 
" clip-path="url(#pbf1cce7fdf)" style="fill: none; stroke-dasharray: 9.6,2.4,1.5,2.4; stroke-dashoffset: 0; stroke: #1f77b4; stroke-opacity: 0.2; stroke-width: 1.5"/>
   </g>
   <g id="line2d_35">
    <path d="M 700.454362 497.788697 
L 664.957186 498.010926 
L 648.983456 498.29568 
L 640.109162 498.651507 
L 634.784586 499.061372 
L 631.234868 499.525523 
L 629.46001 499.864014 
L 627.685151 500.317174 
L 625.910292 500.941602 
L 624.135433 501.823602 
L 622.360574 503.071715 
L 620.585715 504.693979 
L 618.810857 506.061179 
L 617.035998 505.396269 
L 615.261139 502.494529 
L 613.48628 499.822446 
L 611.711421 498.294117 
L 609.936563 497.534366 
L 608.161704 497.16638 
L 604.611986 496.910102 
L 599.28741 496.883579 
L 544.266787 497.275759 
L 466.173 497.399973 
L 231.891638 497.481486 
L 43.756604 497.502731 
L 43.756604 497.502731 
" clip-path="url(#pbf1cce7fdf)" style="fill: none; stroke: #ff7f0e; stroke-opacity: 0.85; stroke-width: 1.5; stroke-linecap: square"/>
   </g>
   <g id="line2d_36">
    <path d="M 617.675589 548.12 
L 617.675589 290.222002 
" clip-path="url(#pbf1cce7fdf)" style="fill: none; stroke-dasharray: 9.6,2.4,1.5,2.4; stroke-dashoffset: 0; stroke: #ff7f0e; stroke-opacity: 0.2; stroke-width: 1.5"/>
   </g>
   <g id="line2d_37">
    <path d="M 700.454362 497.751685 
L 659.632609 497.972729 
L 643.65888 498.238084 
L 634.784586 498.572223 
L 629.46001 498.959631 
L 625.910292 499.400829 
L 622.360574 500.158272 
L 620.585715 500.759821 
L 618.810857 501.616243 
L 617.035998 502.845769 
L 613.48628 506.061456 
L 611.711421 505.795388 
L 608.161704 500.354686 
L 606.386845 498.700477 
L 604.611986 497.846977 
L 602.837127 497.41576 
L 599.28741 497.085054 
L 593.962833 497.003722 
L 569.11481 497.182997 
L 524.74334 497.33767 
L 414.702094 497.44137 
L 43.756604 497.506455 
L 43.756604 497.506455 
" clip-path="url(#pbf1cce7fdf)" style="fill: none; stroke: #2ca02c; stroke-opacity: 0.85; stroke-width: 1.5; stroke-linecap: square"/>
   </g>
   <g id="line2d_38">
    <path d="M 612.228547 548.12 
L 612.228547 290.222002 
" clip-path="url(#pbf1cce7fdf)" style="fill: none; stroke-dasharray: 9.6,2.4,1.5,2.4; stroke-dashoffset: 0; stroke: #2ca02c; stroke-opacity: 0.2; stroke-width: 1.5"/>
   </g>
   <g id="line2d_39">
    <path d="M 700.454362 497.187752 
L 579.763963 496.925494 
L 524.74334 496.603394 
L 496.345599 496.244827 
L 478.597011 495.828134 
L 466.173 495.322445 
L 457.298706 494.722737 
L 451.974129 494.173665 
L 448.424412 493.669599 
L 444.874694 492.987433 
L 441.324976 492.015077 
L 439.550118 491.357288 
L 437.775259 490.526673 
L 436.0004 489.449786 
L 434.225541 488.011032 
L 432.450682 486.031575 
L 430.675824 483.295697 
L 428.900965 480.139009 
L 427.126106 482.815067 
L 425.351247 509.501172 
L 423.576388 520.192029 
L 420.026671 511.580053 
L 418.251812 508.7276 
L 416.476953 506.767799 
L 414.702094 505.364084 
L 412.927236 504.317602 
L 411.152377 503.510708 
L 409.377518 502.871073 
L 405.8278 501.92353 
L 402.278083 501.256779 
L 396.953506 500.561032 
L 389.854071 499.952087 
L 380.979777 499.461339 
L 368.555765 499.029453 
L 350.807177 498.660265 
L 324.184295 498.347543 
L 279.812825 498.078166 
L 201.719038 497.859538 
L 45.531463 497.682678 
L 43.756604 497.681426 
L 43.756604 497.681426 
" clip-path="url(#pbf1cce7fdf)" style="fill: none; stroke: #d62728; stroke-opacity: 0.85; stroke-width: 1.5; stroke-linecap: square"/>
   </g>
   <g id="line2d_40">
    <path d="M 426.482817 548.12 
L 426.482817 290.222002 
" clip-path="url(#pbf1cce7fdf)" style="fill: none; stroke-dasharray: 9.6,2.4,1.5,2.4; stroke-dashoffset: 0; stroke: #d62728; stroke-opacity: 0.2; stroke-width: 1.5"/>
   </g>
   <g id="line2d_41">
    <path d="M 700.454362 497.190194 
L 581.538822 496.928658 
L 528.293058 496.618413 
L 498.120458 496.23614 
L 480.37187 495.80652 
L 467.947858 495.27929 
L 460.848423 494.799628 
L 455.523847 494.278594 
L 450.19927 493.510804 
L 446.649553 492.760727 
L 443.099835 491.671624 
L 441.324976 490.922047 
L 439.550118 489.961722 
L 437.775259 488.696376 
L 436.0004 486.979821 
L 434.225541 484.613848 
L 432.450682 481.604237 
L 430.675824 480.766547 
L 428.900965 499.274763 
L 427.126106 520.586263 
L 425.351247 517.877246 
L 423.576388 513.055143 
L 421.80153 509.699971 
L 420.026671 507.434786 
L 418.251812 505.843071 
L 416.476953 504.675451 
L 414.702094 503.786884 
L 412.927236 503.089971 
L 409.377518 502.069919 
L 405.8278 501.361066 
L 400.503224 500.62928 
L 395.178647 500.128786 
L 388.079212 499.665079 
L 377.430059 499.210063 
L 361.45633 498.797562 
L 338.383166 498.458883 
L 301.111131 498.169405 
L 238.991073 497.937133 
L 120.075533 497.747107 
L 43.756604 497.683277 
L 43.756604 497.683277 
" clip-path="url(#pbf1cce7fdf)" style="fill: none; stroke: #9467bd; stroke-opacity: 0.85; stroke-width: 1.5; stroke-linecap: square"/>
   </g>
   <g id="line2d_42">
    <path d="M 429.387906 548.12 
L 429.387906 290.222002 
" clip-path="url(#pbf1cce7fdf)" style="fill: none; stroke-dasharray: 9.6,2.4,1.5,2.4; stroke-dashoffset: 0; stroke: #9467bd; stroke-opacity: 0.2; stroke-width: 1.5"/>
   </g>
   <g id="line2d_43">
    <path d="M 700.454362 497.22358 
L 475.047294 497.028461 
L 405.8278 496.775009 
L 375.655201 496.47126 
L 359.681471 496.127899 
L 349.032319 495.697489 
L 341.932883 495.193594 
L 336.608307 494.562049 
L 333.058589 493.897189 
L 331.283731 493.437007 
L 329.508872 492.844507 
L 327.734013 492.057707 
L 325.959154 490.972422 
L 324.184295 489.40369 
L 322.409437 487.005375 
L 320.634578 483.120069 
L 318.859719 476.75886 
L 317.08486 469.290617 
L 315.310001 473.68161 
L 313.535143 488.134978 
L 311.760284 495.736373 
L 309.985425 498.437999 
L 308.210566 499.343315 
L 306.435707 499.606879 
L 302.88599 499.557079 
L 286.912261 498.703558 
L 274.488249 498.352044 
L 254.964802 498.053664 
L 223.017344 497.816744 
L 162.672144 497.6271 
L 43.756604 497.490983 
L 43.756604 497.490983 
" clip-path="url(#pbf1cce7fdf)" style="fill: none; stroke: #8c564b; stroke-opacity: 0.85; stroke-width: 1.5; stroke-linecap: square"/>
   </g>
   <g id="line2d_44">
    <path d="M 316.567341 548.12 
L 316.567341 290.222002 
" clip-path="url(#pbf1cce7fdf)" style="fill: none; stroke-dasharray: 9.6,2.4,1.5,2.4; stroke-dashoffset: 0; stroke: #8c564b; stroke-opacity: 0.2; stroke-width: 1.5"/>
   </g>
   <g id="line2d_45">
    <path d="M 700.454362 497.219865 
L 478.597011 497.018317 
L 411.152377 496.768568 
L 379.204918 496.446551 
L 363.231189 496.099605 
L 352.582036 495.670018 
L 345.482601 495.174039 
L 340.158025 494.5621 
L 336.608307 493.928446 
L 334.833448 493.49566 
L 333.058589 492.944849 
L 331.283731 492.223627 
L 329.508872 491.245834 
L 327.734013 489.86217 
L 325.959154 487.799649 
L 324.184295 484.542024 
L 322.409437 479.202742 
L 320.634578 471.598973 
L 318.859719 470.242948 
L 317.08486 484.085884 
L 315.310001 494.41713 
L 313.535143 498.244841 
L 311.760284 499.492867 
L 309.985425 499.84867 
L 308.210566 499.883342 
L 302.88599 499.541683 
L 294.011696 498.9802 
L 283.362543 498.568267 
L 267.388814 498.223862 
L 242.54079 497.950951 
L 199.944179 497.735131 
L 114.750957 497.564453 
L 43.756604 497.499502 
L 43.756604 497.499502 
" clip-path="url(#pbf1cce7fdf)" style="fill: none; stroke: #e377c2; stroke-opacity: 0.85; stroke-width: 1.5; stroke-linecap: square"/>
   </g>
   <g id="line2d_46">
    <path d="M 319.47243 548.12 
L 319.47243 290.222002 
" clip-path="url(#pbf1cce7fdf)" style="fill: none; stroke-dasharray: 9.6,2.4,1.5,2.4; stroke-dashoffset: 0; stroke: #e377c2; stroke-opacity: 0.2; stroke-width: 1.5"/>
   </g>
   <g id="line2d_47">
    <path d="M 700.454362 497.467456 
L 476.822152 497.555685 
L 475.047294 498.507522 
L 473.272435 497.359432 
L 467.947858 497.441831 
L 421.80153 497.463486 
L 43.756604 497.466406 
L 43.756604 497.466406 
" clip-path="url(#pbf1cce7fdf)" style="fill: none; stroke: #7f7f7f; stroke-opacity: 0.85; stroke-width: 1.5; stroke-linecap: square"/>
   </g>
   <g id="line2d_48">
    <path d="M 475.560962 548.12 
L 475.560962 290.222002 
" clip-path="url(#pbf1cce7fdf)" style="fill: none; stroke-dasharray: 9.6,2.4,1.5,2.4; stroke-dashoffset: 0; stroke: #7f7f7f; stroke-opacity: 0.2; stroke-width: 1.5"/>
   </g>
   <g id="line2d_49">
    <path d="M 700.454362 497.375211 
L 540.717069 497.188876 
L 496.345599 496.952319 
L 476.822152 496.666673 
L 466.173 496.331291 
L 459.073564 495.904712 
L 453.748988 495.321216 
L 450.19927 494.67425 
L 446.649553 493.838377 
L 444.874694 493.92896 
L 443.099835 496.389629 
L 441.324976 502.068421 
L 439.550118 504.175856 
L 437.775259 503.252454 
L 436.0004 502.10274 
L 434.225541 501.23139 
L 432.450682 500.602457 
L 428.900965 499.791209 
L 425.351247 499.303585 
L 420.026671 498.85984 
L 412.927236 498.519115 
L 400.503224 498.203904 
L 380.979777 497.969127 
L 343.707742 497.780774 
L 262.064237 497.640361 
L 43.756604 497.543142 
L 43.756604 497.543142 
" clip-path="url(#pbf1cce7fdf)" style="fill: none; stroke: #bcbd22; stroke-opacity: 0.85; stroke-width: 1.5; stroke-linecap: square"/>
   </g>
   <g id="line2d_50">
    <path d="M 442.555469 548.12 
L 442.555469 290.222002 
" clip-path="url(#pbf1cce7fdf)" style="fill: none; stroke-dasharray: 9.6,2.4,1.5,2.4; stroke-dashoffset: 0; stroke: #bcbd22; stroke-opacity: 0.2; stroke-width: 1.5"/>
   </g>
   <g id="line2d_51">
    <path d="M 700.454362 496.983236 
L 317.08486 496.875888 
L 295.786555 496.672707 
L 286.912261 496.392645 
L 281.587684 496.009444 
L 278.037966 495.513284 
L 276.263108 495.114614 
L 274.488249 494.534178 
L 272.71339 493.643775 
L 270.938531 492.180278 
L 269.163672 489.5349 
L 267.388814 484.044541 
L 265.613955 469.940908 
L 263.839096 420.211778 
L 262.064237 301.944638 
L 260.289378 420.001743 
L 258.51452 469.455932 
L 256.739661 483.624774 
L 254.964802 489.189601 
L 253.189943 491.891898 
L 251.415084 493.397762 
L 249.640226 494.320308 
L 247.865367 494.925755 
L 246.090508 495.344354 
L 242.54079 495.870153 
L 237.216214 496.282558 
L 230.116779 496.549039 
L 217.692767 496.749042 
L 192.844744 496.879606 
L 123.625251 496.952194 
L 43.756604 496.968417 
L 43.756604 496.968417 
" clip-path="url(#pbf1cce7fdf)" style="fill: none; stroke: #17becf; stroke-opacity: 0.85; stroke-width: 1.5; stroke-linecap: square"/>
   </g>
   <g id="line2d_52">
    <path d="M 262.958648 548.12 
L 262.958648 290.222002 
" clip-path="url(#pbf1cce7fdf)" style="fill: none; stroke-dasharray: 9.6,2.4,1.5,2.4; stroke-dashoffset: 0; stroke: #17becf; stroke-opacity: 0.2; stroke-width: 1.5"/>
   </g>
   <g id="line2d_53">
    <path d="M 700.454362 497.427573 
L 382.754636 497.621805 
L 297.561413 497.859664 
L 260.289378 498.1555 
L 240.765932 498.501115 
L 228.34192 498.928887 
L 221.242485 499.349929 
L 215.917908 499.842234 
L 212.368191 500.320015 
L 208.818473 500.991195 
L 203.493897 502.277547 
L 201.719038 501.869764 
L 199.944179 496.651133 
L 198.16932 469.868662 
L 196.394462 460.290988 
L 194.619603 475.514475 
L 192.844744 483.459569 
L 191.069885 487.468314 
L 189.295026 489.769991 
L 187.520168 491.235048 
L 185.745309 492.240029 
L 183.97045 492.968489 
L 182.195591 493.519062 
L 178.645874 494.293538 
L 175.096156 494.81064 
L 169.77158 495.326972 
L 162.672144 495.760235 
L 152.022991 496.148292 
L 136.049262 496.471878 
L 109.42638 496.745886 
L 63.280051 496.961147 
L 43.756604 497.013285 
L 43.756604 497.013285 
" clip-path="url(#pbf1cce7fdf)" style="fill: none; stroke: #aec7e8; stroke-opacity: 0.85; stroke-width: 1.5; stroke-linecap: square"/>
   </g>
   <g id="line2d_54">
    <path d="M 198.678274 548.12 
L 198.678274 290.222002 
" clip-path="url(#pbf1cce7fdf)" style="fill: none; stroke-dasharray: 9.6,2.4,1.5,2.4; stroke-dashoffset: 0; stroke: #aec7e8; stroke-opacity: 0.2; stroke-width: 1.5"/>
   </g>
   <g id="line2d_55">
    <path d="M 700.454362 497.454636 
L 345.482601 497.629755 
L 267.388814 497.851057 
L 235.441355 498.131211 
L 219.467626 498.456774 
L 210.593332 498.801399 
L 203.493897 499.290189 
L 199.944179 499.682504 
L 196.394462 500.261684 
L 192.844744 501.139346 
L 191.069885 501.657396 
L 189.295026 501.772476 
L 187.520168 498.293665 
L 185.745309 478.386504 
L 183.97045 475.657789 
L 182.195591 484.279487 
L 180.420732 488.705183 
L 178.645874 491.036482 
L 176.871015 492.423173 
L 175.096156 493.329276 
L 173.321297 493.96323 
L 169.77158 494.786803 
L 166.221862 495.295781 
L 160.897285 495.774005 
L 153.79785 496.153798 
L 143.148697 496.478442 
L 125.400109 496.75882 
L 95.22751 496.979246 
L 43.756604 497.137618 
L 43.756604 497.137618 
" clip-path="url(#pbf1cce7fdf)" style="fill: none; stroke: #ffbb78; stroke-opacity: 0.85; stroke-width: 1.5; stroke-linecap: square"/>
   </g>
   <g id="line2d_56">
    <path d="M 186.575769 548.12 
L 186.575769 290.222002 
" clip-path="url(#pbf1cce7fdf)" style="fill: none; stroke-dasharray: 9.6,2.4,1.5,2.4; stroke-dashoffset: 0; stroke: #ffbb78; stroke-opacity: 0.2; stroke-width: 1.5"/>
   </g>
   <g id="line2d_57">
    <path d="M 700.454362 497.4826 
L 338.383166 497.667603 
L 251.415084 497.900304 
L 215.917908 498.185603 
L 198.16932 498.50634 
L 187.520168 498.869775 
L 180.420732 499.284331 
L 175.096156 499.790175 
L 171.546438 500.30861 
L 167.996721 501.102443 
L 166.221862 501.673318 
L 164.447003 502.42283 
L 160.897285 504.449941 
L 159.122427 503.625781 
L 157.347568 489.404836 
L 155.572709 478.187074 
L 153.79785 483.728004 
L 152.022991 487.858968 
L 150.248133 490.249915 
L 148.473274 491.732496 
L 146.698415 492.72454 
L 144.923556 493.429534 
L 143.148697 493.954242 
L 139.59898 494.680438 
L 136.049262 495.157687 
L 130.724686 495.62836 
L 123.625251 496.019007 
L 112.976098 496.365769 
L 95.22751 496.675472 
L 66.829769 496.915938 
L 43.756604 497.022358 
L 43.756604 497.022358 
" clip-path="url(#pbf1cce7fdf)" style="fill: none; stroke: #98df8a; stroke-opacity: 0.85; stroke-width: 1.5; stroke-linecap: square"/>
   </g>
   <g id="line2d_58">
    <path d="M 158.010313 548.12 
L 158.010313 290.222002 
" clip-path="url(#pbf1cce7fdf)" style="fill: none; stroke-dasharray: 9.6,2.4,1.5,2.4; stroke-dashoffset: 0; stroke: #98df8a; stroke-opacity: 0.2; stroke-width: 1.5"/>
   </g>
   <g id="line2d_59">
    <path d="M 700.454362 497.473713 
L 242.54079 497.614333 
L 191.069885 497.803713 
L 173.321297 498.038813 
L 164.447003 498.327813 
L 159.122427 498.677099 
L 152.022991 499.339373 
L 150.248133 498.313365 
L 148.473274 494.856736 
L 146.698415 493.200249 
L 141.373839 495.310539 
L 139.59898 495.703211 
L 136.049262 496.187509 
L 130.724686 496.567019 
L 121.850392 496.86613 
L 107.651521 497.073799 
L 77.478922 497.238081 
L 43.756604 497.309338 
L 43.756604 497.309338 
" clip-path="url(#pbf1cce7fdf)" style="fill: none; stroke: #ff9896; stroke-opacity: 0.85; stroke-width: 1.5; stroke-linecap: square"/>
   </g>
   <g id="line2d_60">
    <path d="M 149.59387 548.12 
L 149.59387 290.222002 
" clip-path="url(#pbf1cce7fdf)" style="fill: none; stroke-dasharray: 9.6,2.4,1.5,2.4; stroke-dashoffset: 0; stroke: #ff9896; stroke-opacity: 0.2; stroke-width: 1.5"/>
   </g>
   <g id="line2d_61">
    <path d="M 700.454362 497.481944 
L 235.441355 497.629118 
L 176.871015 497.824989 
L 155.572709 498.084797 
L 144.923556 498.427409 
L 139.59898 498.789569 
L 136.049262 499.225577 
L 134.274403 499.565716 
L 132.499545 500.054842 
L 130.724686 500.791133 
L 128.949827 501.846098 
L 127.174968 501.535261 
L 125.400109 492.322014 
L 123.625251 491.647099 
L 121.850392 493.359636 
L 120.075533 494.42088 
L 118.300674 495.071315 
L 116.525815 495.500233 
L 112.976098 496.024028 
L 107.651521 496.438346 
L 100.552086 496.723608 
L 88.128075 496.96623 
L 65.05491 497.154578 
L 43.756604 497.234754 
L 43.756604 497.234754 
" clip-path="url(#pbf1cce7fdf)" style="fill: none; stroke: #c5b0d5; stroke-opacity: 0.85; stroke-width: 1.5; stroke-linecap: square"/>
   </g>
   <g id="line2d_62">
    <path d="M 127.03563 548.12 
L 127.03563 290.222002 
" clip-path="url(#pbf1cce7fdf)" style="fill: none; stroke-dasharray: 9.6,2.4,1.5,2.4; stroke-dashoffset: 0; stroke: #c5b0d5; stroke-opacity: 0.2; stroke-width: 1.5"/>
   </g>
   <g id="line2d_63">
    <path d="M 700.454362 497.608709 
L 411.152377 497.889094 
L 299.336272 498.192495 
L 240.765932 498.554209 
L 207.043614 498.965262 
L 185.745309 499.422827 
L 171.546438 499.916056 
L 160.897285 500.482596 
L 153.79785 501.029506 
L 146.698415 501.815131 
L 141.373839 502.672976 
L 137.824121 503.458409 
L 134.274403 504.518516 
L 132.499545 505.200229 
L 130.724686 506.024927 
L 128.949827 507.04169 
L 127.174968 508.324064 
L 125.400109 509.986434 
L 123.625251 512.213683 
L 121.850392 515.313173 
L 120.075533 519.776613 
L 118.300674 526.025188 
L 116.525815 529.998553 
L 114.750957 498.456756 
L 112.976098 462.611279 
L 111.201239 466.718461 
L 109.42638 473.788579 
L 107.651521 478.737682 
L 105.876663 482.112446 
L 104.101804 484.50494 
L 102.326945 486.272759 
L 100.552086 487.626031 
L 98.777227 488.692554 
L 97.002369 489.553433 
L 93.452651 490.855615 
L 89.902933 491.792383 
L 86.353216 492.497902 
L 81.028639 493.280088 
L 73.929204 494.007444 
L 65.05491 494.625585 
L 54.405757 495.128163 
L 43.756604 495.480487 
L 43.756604 495.480487 
" clip-path="url(#pbf1cce7fdf)" style="fill: none; stroke: #c49c94; stroke-opacity: 0.85; stroke-width: 1.5; stroke-linecap: square"/>
   </g>
   <g id="line2d_64">
    <path d="M 115.675047 548.12 
L 115.675047 290.222002 
" clip-path="url(#pbf1cce7fdf)" style="fill: none; stroke-dasharray: 9.6,2.4,1.5,2.4; stroke-dashoffset: 0; stroke: #c49c94; stroke-opacity: 0.2; stroke-width: 1.5"/>
   </g>
   <g id="line2d_65">
    <path d="M 700.454362 497.20215 
L 677.381197 497.540542 
L 663.182327 497.951192 
L 654.308033 498.390569 
L 647.208598 498.949975 
L 641.884021 499.598271 
L 638.334304 500.222008 
L 634.784586 501.104472 
L 633.009727 501.694183 
L 631.234868 502.428539 
L 629.46001 503.362271 
L 627.685151 504.578323 
L 625.910292 506.20503 
L 624.135433 508.440885 
L 622.360574 511.570899 
L 620.585715 515.866407 
L 618.810857 520.987617 
L 617.035998 524.943934 
L 615.261139 525.192863 
L 613.48628 520.394397 
L 609.936563 504.742484 
L 608.161704 499.33256 
L 606.386845 496.356002 
L 604.611986 494.848764 
L 602.837127 494.098874 
L 601.062269 493.73347 
L 597.512551 493.508918 
L 592.187975 493.583835 
L 570.889669 494.13123 
L 554.91594 494.27337 
L 535.392493 494.220465 
L 515.869046 493.941762 
L 499.895317 493.493234 
L 487.471305 492.923128 
L 476.822152 492.225962 
L 475.047294 493.010626 
L 473.272435 491.680748 
L 469.722717 491.339125 
L 464.398141 490.561331 
L 460.848423 489.872156 
L 457.298706 488.985678 
L 453.748988 487.806094 
L 451.974129 487.059559 
L 450.19927 486.175528 
L 446.649553 484.00793 
L 444.874694 483.240419 
L 443.099835 484.6617 
L 441.324976 489.057608 
L 439.550118 489.545938 
L 437.775259 486.525182 
L 436.0004 482.580221 
L 434.225541 477.901912 
L 432.450682 472.28124 
L 430.675824 468.242541 
L 428.900965 483.24123 
L 425.351247 530.709563 
L 423.576388 536.397364 
L 421.80153 528.464254 
L 420.026671 521.885127 
L 418.251812 517.329835 
L 416.476953 514.105076 
L 414.702094 511.726435 
L 412.927236 509.905507 
L 411.152377 508.467942 
L 409.377518 507.303982 
L 407.602659 506.341619 
L 404.052942 504.840138 
L 400.503224 503.71781 
L 396.953506 502.841591 
L 391.62893 501.825476 
L 386.304353 501.037705 
L 379.204918 500.196841 
L 366.780907 498.984973 
L 354.356895 497.723672 
L 347.25746 496.752697 
L 343.707742 496.106707 
L 340.158025 495.271382 
L 336.608307 494.124427 
L 334.833448 493.366767 
L 333.058589 492.424408 
L 331.283731 491.219612 
L 329.508872 489.627388 
L 327.734013 487.436358 
L 325.959154 484.269258 
L 324.184295 479.424781 
L 322.409437 471.670146 
L 320.634578 460.16501 
L 318.859719 452.432593 
L 317.08486 458.792864 
L 315.310001 473.501322 
L 313.535143 491.769128 
L 311.760284 500.605631 
L 309.985425 503.650323 
L 308.210566 504.577559 
L 306.435707 504.744522 
L 302.88599 504.408723 
L 292.236837 502.999328 
L 281.587684 501.739079 
L 278.037966 501.103685 
L 276.263108 500.647828 
L 274.488249 500.017686 
L 272.71339 499.084564 
L 270.938531 497.584915 
L 269.163672 494.909594 
L 267.388814 489.395205 
L 265.613955 475.273212 
L 263.839096 425.531193 
L 262.064237 307.256484 
L 260.289378 425.311231 
L 258.51452 474.7682 
L 256.739661 488.944929 
L 254.964802 494.522754 
L 253.189943 497.243201 
L 251.415084 498.772448 
L 249.640226 499.723733 
L 247.865367 500.363435 
L 244.315649 501.169445 
L 240.765932 501.676501 
L 233.666496 502.388144 
L 223.017344 503.436673 
L 217.692767 504.157567 
L 214.14305 504.792747 
L 210.593332 505.626195 
L 207.043614 506.746459 
L 203.493897 508.016592 
L 201.719038 507.860029 
L 199.944179 502.933009 
L 198.16932 476.493632 
L 196.394462 467.325095 
L 194.619603 483.040991 
L 192.844744 491.572633 
L 191.069885 496.212948 
L 189.295026 498.753342 
L 187.520168 496.874771 
L 185.745309 478.121039 
L 183.97045 476.2846 
L 182.195591 485.638652 
L 180.420732 490.697264 
L 178.645874 493.60149 
L 176.871015 495.529362 
L 175.096156 496.967432 
L 173.321297 498.144483 
L 164.447003 503.475495 
L 160.897285 506.416393 
L 159.122427 506.060347 
L 157.347568 492.332996 
L 155.572709 481.643063 
L 153.79785 487.725087 
L 152.022991 492.230348 
L 150.248133 493.931207 
L 148.473274 492.310566 
L 146.698415 492.023321 
L 143.148697 495.648509 
L 141.373839 497.127407 
L 137.824121 499.61265 
L 134.274403 502.116214 
L 132.499545 503.607752 
L 130.724686 505.441093 
L 128.949827 507.747503 
L 127.174968 508.92372 
L 125.400109 501.553181 
L 123.625251 503.265788 
L 121.850392 508.221324 
L 120.075533 513.875344 
L 118.300674 520.891582 
L 116.525815 525.400656 
L 114.750957 494.257949 
L 112.976098 458.724677 
L 111.201239 463.085177 
L 109.42638 470.366615 
L 107.651521 475.495832 
L 105.876663 479.026741 
L 104.101804 481.556462 
L 102.326945 483.446237 
L 100.552086 484.908903 
L 98.777227 486.074317 
L 97.002369 487.025188 
L 95.22751 487.816353 
L 91.677792 489.059265 
L 88.128075 489.99348 
L 84.578357 490.723211 
L 79.253781 491.563022 
L 72.154345 492.378285 
L 63.280051 493.102222 
L 52.630899 493.715675 
L 43.756604 494.0953 
L 43.756604 494.0953 
" clip-path="url(#pbf1cce7fdf)" style="fill: none; stroke: #000000; stroke-opacity: 0.3; stroke-width: 2; stroke-linecap: square"/>
   </g>
   <g id="patch_9">
    <path d="M 45.07 548.12 
L 45.07 290.222002 
" style="fill: none; stroke: #000000; stroke-width: 0.8; stroke-linejoin: miter; stroke-linecap: square"/>
   </g>
   <g id="patch_10">
    <path d="M 698.715 548.12 
L 698.715 290.222002 
" style="fill: none; stroke: #000000; stroke-width: 0.8; stroke-linejoin: miter; stroke-linecap: square"/>
   </g>
   <g id="patch_11">
    <path d="M 45.07 548.12 
L 698.715 548.12 
" style="fill: none; stroke: #000000; stroke-width: 0.8; stroke-linejoin: miter; stroke-linecap: square"/>
   </g>
   <g id="patch_12">
    <path d="M 45.07 290.222002 
L 698.715 290.222002 
" style="fill: none; stroke: #000000; stroke-width: 0.8; stroke-linejoin: miter; stroke-linecap: square"/>
   </g>
   <g id="text_24">
    <!-- BATP -->
    <g style="fill: #1f77b4" transform="translate(614.952068 514.926952) scale(0.18 -0.18)">
     <defs>
      <path id="DejaVuSans-42" d="M 1259 2228 
L 1259 519 
L 2272 519 
Q 2781 519 3026 730 
Q 3272 941 3272 1375 
Q 3272 1813 3026 2020 
Q 2781 2228 2272 2228 
L 1259 2228 
z
M 1259 4147 
L 1259 2741 
L 2194 2741 
Q 2656 2741 2882 2914 
Q 3109 3088 3109 3444 
Q 3109 3797 2882 3972 
Q 2656 4147 2194 4147 
L 1259 4147 
z
M 628 4666 
L 2241 4666 
Q 2963 4666 3353 4366 
Q 3744 4066 3744 3513 
Q 3744 3084 3544 2831 
Q 3344 2578 2956 2516 
Q 3422 2416 3680 2098 
Q 3938 1781 3938 1306 
Q 3938 681 3513 340 
Q 3088 0 2303 0 
L 628 0 
L 628 4666 
z
" transform="scale(0.015625)"/>
      <path id="DejaVuSans-41" d="M 2188 4044 
L 1331 1722 
L 3047 1722 
L 2188 4044 
z
M 1831 4666 
L 2547 4666 
L 4325 0 
L 3669 0 
L 3244 1197 
L 1141 1197 
L 716 0 
L 50 0 
L 1831 4666 
z
" transform="scale(0.015625)"/>
      <path id="DejaVuSans-54" d="M -19 4666 
L 3928 4666 
L 3928 4134 
L 2272 4134 
L 2272 0 
L 1638 0 
L 1638 4134 
L -19 4134 
L -19 4666 
z
" transform="scale(0.015625)"/>
      <path id="DejaVuSans-50" d="M 1259 4147 
L 1259 2394 
L 2053 2394 
Q 2494 2394 2734 2622 
Q 2975 2850 2975 3272 
Q 2975 3691 2734 3919 
Q 2494 4147 2053 4147 
L 1259 4147 
z
M 628 4666 
L 2053 4666 
Q 2838 4666 3239 4311 
Q 3641 3956 3641 3272 
Q 3641 2581 3239 2228 
Q 2838 1875 2053 1875 
L 1259 1875 
L 1259 0 
L 628 0 
L 628 4666 
z
" transform="scale(0.015625)"/>
     </defs>
     <use xlink:href="#DejaVuSans-42"/>
     <use xlink:href="#DejaVuSans-41" x="68.603516"/>
     <use xlink:href="#DejaVuSans-54" x="129.261719"/>
     <use xlink:href="#DejaVuSans-50" x="190.345703"/>
    </g>
   </g>
   <g id="text_25">
    <!-- BATP2 -->
    <g style="fill: #ff7f0e" transform="translate(617.675589 506.061179) scale(0.18 -0.18)">
     <use xlink:href="#DejaVuSans-42"/>
     <use xlink:href="#DejaVuSans-41" x="68.603516"/>
     <use xlink:href="#DejaVuSans-54" x="129.261719"/>
     <use xlink:href="#DejaVuSans-50" x="190.345703"/>
     <use xlink:href="#DejaVuSans-32" x="250.648438"/>
    </g>
   </g>
   <g id="text_26">
    <!-- BATP3 -->
    <g style="fill: #2ca02c" transform="translate(612.228547 506.061456) scale(0.18 -0.18)">
     <defs>
      <path id="DejaVuSans-33" d="M 2597 2516 
Q 3050 2419 3304 2112 
Q 3559 1806 3559 1356 
Q 3559 666 3084 287 
Q 2609 -91 1734 -91 
Q 1441 -91 1130 -33 
Q 819 25 488 141 
L 488 750 
Q 750 597 1062 519 
Q 1375 441 1716 441 
Q 2309 441 2620 675 
Q 2931 909 2931 1356 
Q 2931 1769 2642 2001 
Q 2353 2234 1838 2234 
L 1294 2234 
L 1294 2753 
L 1863 2753 
Q 2328 2753 2575 2939 
Q 2822 3125 2822 3475 
Q 2822 3834 2567 4026 
Q 2313 4219 1838 4219 
Q 1578 4219 1281 4162 
Q 984 4106 628 3988 
L 628 4550 
Q 988 4650 1302 4700 
Q 1616 4750 1894 4750 
Q 2613 4750 3031 4423 
Q 3450 4097 3450 3541 
Q 3450 3153 3228 2886 
Q 3006 2619 2597 2516 
z
" transform="scale(0.015625)"/>
     </defs>
     <use xlink:href="#DejaVuSans-42"/>
     <use xlink:href="#DejaVuSans-41" x="68.603516"/>
     <use xlink:href="#DejaVuSans-54" x="129.261719"/>
     <use xlink:href="#DejaVuSans-50" x="190.345703"/>
     <use xlink:href="#DejaVuSans-33" x="250.648438"/>
    </g>
   </g>
   <g id="text_27">
    <!-- AATP -->
    <g style="fill: #d62728" transform="translate(426.482817 520.192029) scale(0.18 -0.18)">
     <use xlink:href="#DejaVuSans-41"/>
     <use xlink:href="#DejaVuSans-41" x="71.158203"/>
     <use xlink:href="#DejaVuSans-54" x="131.816406"/>
     <use xlink:href="#DejaVuSans-50" x="192.900391"/>
    </g>
   </g>
   <g id="text_28">
    <!-- AATP2 -->
    <g style="fill: #9467bd" transform="translate(429.387906 520.586263) scale(0.18 -0.18)">
     <use xlink:href="#DejaVuSans-41"/>
     <use xlink:href="#DejaVuSans-41" x="71.158203"/>
     <use xlink:href="#DejaVuSans-54" x="131.816406"/>
     <use xlink:href="#DejaVuSans-50" x="192.900391"/>
     <use xlink:href="#DejaVuSans-32" x="253.203125"/>
    </g>
   </g>
   <g id="text_29">
    <!-- GATP -->
    <g style="fill: #8c564b" transform="translate(316.567341 469.290617) scale(0.18 -0.18)">
     <defs>
      <path id="DejaVuSans-47" d="M 3809 666 
L 3809 1919 
L 2778 1919 
L 2778 2438 
L 4434 2438 
L 4434 434 
Q 4069 175 3628 42 
Q 3188 -91 2688 -91 
Q 1594 -91 976 548 
Q 359 1188 359 2328 
Q 359 3472 976 4111 
Q 1594 4750 2688 4750 
Q 3144 4750 3555 4637 
Q 3966 4525 4313 4306 
L 4313 3634 
Q 3963 3931 3569 4081 
Q 3175 4231 2741 4231 
Q 1884 4231 1454 3753 
Q 1025 3275 1025 2328 
Q 1025 1384 1454 906 
Q 1884 428 2741 428 
Q 3075 428 3337 486 
Q 3600 544 3809 666 
z
" transform="scale(0.015625)"/>
     </defs>
     <use xlink:href="#DejaVuSans-47"/>
     <use xlink:href="#DejaVuSans-41" x="77.490234"/>
     <use xlink:href="#DejaVuSans-54" x="138.148438"/>
     <use xlink:href="#DejaVuSans-50" x="199.232422"/>
    </g>
   </g>
   <g id="text_30">
    <!-- GATP2 -->
    <g style="fill: #e377c2" transform="translate(319.47243 470.242948) scale(0.18 -0.18)">
     <use xlink:href="#DejaVuSans-47"/>
     <use xlink:href="#DejaVuSans-41" x="77.490234"/>
     <use xlink:href="#DejaVuSans-54" x="138.148438"/>
     <use xlink:href="#DejaVuSans-50" x="199.232422"/>
     <use xlink:href="#DejaVuSans-32" x="259.535156"/>
    </g>
   </g>
   <g id="text_31">
    <!-- UDPG -->
    <g style="fill: #7f7f7f" transform="translate(475.560962 498.507522) scale(0.18 -0.18)">
     <defs>
      <path id="DejaVuSans-55" d="M 556 4666 
L 1191 4666 
L 1191 1831 
Q 1191 1081 1462 751 
Q 1734 422 2344 422 
Q 2950 422 3222 751 
Q 3494 1081 3494 1831 
L 3494 4666 
L 4128 4666 
L 4128 1753 
Q 4128 841 3676 375 
Q 3225 -91 2344 -91 
Q 1459 -91 1007 375 
Q 556 841 556 1753 
L 556 4666 
z
" transform="scale(0.015625)"/>
      <path id="DejaVuSans-44" d="M 1259 4147 
L 1259 519 
L 2022 519 
Q 2988 519 3436 956 
Q 3884 1394 3884 2338 
Q 3884 3275 3436 3711 
Q 2988 4147 2022 4147 
L 1259 4147 
z
M 628 4666 
L 1925 4666 
Q 3281 4666 3915 4102 
Q 4550 3538 4550 2338 
Q 4550 1131 3912 565 
Q 3275 0 1925 0 
L 628 0 
L 628 4666 
z
" transform="scale(0.015625)"/>
     </defs>
     <use xlink:href="#DejaVuSans-55"/>
     <use xlink:href="#DejaVuSans-44" x="73.193359"/>
     <use xlink:href="#DejaVuSans-50" x="150.195312"/>
     <use xlink:href="#DejaVuSans-47" x="210.498047"/>
    </g>
   </g>
   <g id="text_32">
    <!-- NAD -->
    <g style="fill: #bcbd22" transform="translate(442.555469 504.175856) scale(0.18 -0.18)">
     <defs>
      <path id="DejaVuSans-4e" d="M 628 4666 
L 1478 4666 
L 3547 763 
L 3547 4666 
L 4159 4666 
L 4159 0 
L 3309 0 
L 1241 3903 
L 1241 0 
L 628 0 
L 628 4666 
z
" transform="scale(0.015625)"/>
     </defs>
     <use xlink:href="#DejaVuSans-4e"/>
     <use xlink:href="#DejaVuSans-41" x="74.804688"/>
     <use xlink:href="#DejaVuSans-44" x="143.212891"/>
    </g>
   </g>
   <g id="text_33">
    <!-- PCr -->
    <g style="fill: #17becf" transform="translate(262.958648 301.944638) scale(0.18 -0.18)">
     <defs>
      <path id="DejaVuSans-43" d="M 4122 4306 
L 4122 3641 
Q 3803 3938 3442 4084 
Q 3081 4231 2675 4231 
Q 1875 4231 1450 3742 
Q 1025 3253 1025 2328 
Q 1025 1406 1450 917 
Q 1875 428 2675 428 
Q 3081 428 3442 575 
Q 3803 722 4122 1019 
L 4122 359 
Q 3791 134 3420 21 
Q 3050 -91 2638 -91 
Q 1578 -91 968 557 
Q 359 1206 359 2328 
Q 359 3453 968 4101 
Q 1578 4750 2638 4750 
Q 3056 4750 3426 4639 
Q 3797 4528 4122 4306 
z
" transform="scale(0.015625)"/>
     </defs>
     <use xlink:href="#DejaVuSans-50"/>
     <use xlink:href="#DejaVuSans-43" x="60.302734"/>
     <use xlink:href="#DejaVuSans-72" x="130.126953"/>
    </g>
   </g>
   <g id="text_34">
    <!-- GPC -->
    <g style="fill: #aec7e8" transform="translate(198.678274 460.290988) scale(0.18 -0.18)">
     <use xlink:href="#DejaVuSans-47"/>
     <use xlink:href="#DejaVuSans-50" x="77.490234"/>
     <use xlink:href="#DejaVuSans-43" x="137.792969"/>
    </g>
   </g>
   <g id="text_35">
    <!-- GPE -->
    <g style="fill: #ffbb78" transform="translate(186.575769 475.657789) scale(0.18 -0.18)">
     <defs>
      <path id="DejaVuSans-45" d="M 628 4666 
L 3578 4666 
L 3578 4134 
L 1259 4134 
L 1259 2753 
L 3481 2753 
L 3481 2222 
L 1259 2222 
L 1259 531 
L 3634 531 
L 3634 0 
L 628 0 
L 628 4666 
z
" transform="scale(0.015625)"/>
     </defs>
     <use xlink:href="#DejaVuSans-47"/>
     <use xlink:href="#DejaVuSans-50" x="77.490234"/>
     <use xlink:href="#DejaVuSans-45" x="137.792969"/>
    </g>
   </g>
   <g id="text_36">
    <!-- Pin -->
    <g style="fill: #98df8a" transform="translate(158.010313 478.187074) scale(0.18 -0.18)">
     <use xlink:href="#DejaVuSans-50"/>
     <use xlink:href="#DejaVuSans-69" x="58.052734"/>
     <use xlink:href="#DejaVuSans-6e" x="85.835938"/>
    </g>
   </g>
   <g id="text_37">
    <!-- Pex -->
    <g style="fill: #ff9896" transform="translate(149.59387 493.200249) scale(0.18 -0.18)">
     <defs>
      <path id="DejaVuSans-78" d="M 3513 3500 
L 2247 1797 
L 3578 0 
L 2900 0 
L 1881 1375 
L 863 0 
L 184 0 
L 1544 1831 
L 300 3500 
L 978 3500 
L 1906 2253 
L 2834 3500 
L 3513 3500 
z
" transform="scale(0.015625)"/>
     </defs>
     <use xlink:href="#DejaVuSans-50"/>
     <use xlink:href="#DejaVuSans-65" x="56.677734"/>
     <use xlink:href="#DejaVuSans-78" x="116.451172"/>
    </g>
   </g>
   <g id="text_38">
    <!-- PC -->
    <g style="fill: #c5b0d5" transform="translate(127.03563 491.647099) scale(0.18 -0.18)">
     <use xlink:href="#DejaVuSans-50"/>
     <use xlink:href="#DejaVuSans-43" x="60.302734"/>
    </g>
   </g>
   <g id="text_39">
    <!-- PE -->
    <g style="fill: #c49c94" transform="translate(115.675047 462.611279) scale(0.18 -0.18)">
     <use xlink:href="#DejaVuSans-50"/>
     <use xlink:href="#DejaVuSans-45" x="60.302734"/>
    </g>
   </g>
  </g>
  <g id="text_40">
   <!-- AMARES Fitting Result -->
   <g transform="translate(293.8275 20.638125) scale(0.12 -0.12)">
    <defs>
     <path id="DejaVuSans-4d" d="M 628 4666 
L 1569 4666 
L 2759 1491 
L 3956 4666 
L 4897 4666 
L 4897 0 
L 4281 0 
L 4281 4097 
L 3078 897 
L 2444 897 
L 1241 4097 
L 1241 0 
L 628 0 
L 628 4666 
z
" transform="scale(0.015625)"/>
    </defs>
    <use xlink:href="#DejaVuSans-41"/>
    <use xlink:href="#DejaVuSans-4d" x="68.408203"/>
    <use xlink:href="#DejaVuSans-41" x="154.6875"/>
    <use xlink:href="#DejaVuSans-52" x="223.095703"/>
    <use xlink:href="#DejaVuSans-45" x="292.578125"/>
    <use xlink:href="#DejaVuSans-53" x="355.761719"/>
    <use xlink:href="#DejaVuSans-20" x="419.238281"/>
    <use xlink:href="#DejaVuSans-46" x="451.025391"/>
    <use xlink:href="#DejaVuSans-69" x="501.294922"/>
    <use xlink:href="#DejaVuSans-74" x="529.078125"/>
    <use xlink:href="#DejaVuSans-74" x="568.287109"/>
    <use xlink:href="#DejaVuSans-69" x="607.496094"/>
    <use xlink:href="#DejaVuSans-6e" x="635.279297"/>
    <use xlink:href="#DejaVuSans-67" x="698.658203"/>
    <use xlink:href="#DejaVuSans-20" x="762.134766"/>
    <use xlink:href="#DejaVuSans-52" x="793.921875"/>
    <use xlink:href="#DejaVuSans-65" x="858.904297"/>
    <use xlink:href="#DejaVuSans-73" x="920.427734"/>
    <use xlink:href="#DejaVuSans-75" x="972.527344"/>
    <use xlink:href="#DejaVuSans-6c" x="1035.90625"/>
    <use xlink:href="#DejaVuSans-74" x="1063.689453"/>
   </g>
  </g>
 </g>
 <defs>
  <clipPath id="p42e295d3f4">
   <rect x="45.07" y="13.399283" width="653.645" height="257.897998"/>
  </clipPath>
  <clipPath id="pbf1cce7fdf">
   <rect x="45.07" y="290.222002" width="653.645" height="257.897998"/>
  </clipPath>
 </defs>
</svg>
