<?xml version="1.0" encoding="UTF-8" standalone="no"?>
<!-- Created with Inkscape (http://www.inkscape.org/) -->

<svg
   width="500mm"
   height="500mm"
   viewBox="0 0 500 500"
   version="1.1"
   id="svg1"
   xml:space="preserve"
   xmlns="http://www.w3.org/2000/svg"
   xmlns:svg="http://www.w3.org/2000/svg"><defs
     id="defs1" /><g
     id="layer1"><path
       d="M 0,0 0.23667806,499.99997 H 499.99997 V 0.31264242 H 258.223 Z m 50.971049,5.4260254 c 0.15939,4.268115 0.330496,14.3812776 0.506429,23.7876956 H 28.29388 5.1107992 L 5.4797689,5.764506 27.571444,5.5950073 Z m 308.135711,0 c -0.51242,6.9292126 -2.25462,20.0643906 -5.36143,26.9074016 -2.10673,-0.233637 -4.86784,-0.771963 -11.36985,-2.216402 -7.67156,-1.704257 -32.23871,-7.686074 -32.15411,-8.146273 0.3372,-1.83336 2.09971,-5.76554 2.88458,-16.206246 l 23.00067,-0.1694987 z m 55.02662,0 22.54798,0.1689819 22.54746,0.1694987 0.36845,23.968046 -3.33055,0.377755 c -1.83174,0.207817 -10.56645,0.951181 -19.4107,1.652095 -8.84427,0.700914 -18.08648,1.451435 -20.53828,1.667599 l -4.45761,0.393257 c 0.77424,-9.797257 1.19073,-15.994493 2.27325,-28.3972326 z m -158.4911,5.168e-4 c -0.18385,3.986237 -0.18198,5.6409038 -0.91519,8.3938028 h -7.23987 c -8.61844,0 -22.38629,0.947846 -32.8104,2.258777 h -5.2e-4 c -4.14697,0.521518 -7.88259,1.118358 -7.87859,0.948262 0.1322,-6.082107 0.0352,-1.600725 0.0372,-11.262878 L 231.2386,5.5955241 Z m 208.83014,0 23.15518,0.1689819 7.21041,0.1689819 c -0.0984,13.789898 0.0491,9.659021 0.031,23.449215 h -7.32462 -23.07198 z m -359.36359,0.017053 h 22.2436 22.24361 c 0.97731,6.1592138 1.93336,10.9063938 3.21065,19.6928548 l -9.69139,1.077454 c -5.33017,0.592557 -13.30907,1.363201 -17.73122,1.712557 h -0.002 c -4.42209,0.349356 -10.10447,0.637271 -12.62766,0.640271 l -4.58783,0.0057 c -0.7313,-8.181279 -2.06762,-16.470329 -3.05821,-23.1288208 z m 49.63935,0 H 178.17 201.59131 c -0.12932,9.0924238 0.0564,4.2973357 -0.19068,12.4814088 -0.0194,0.642576 -10.90828,1.648831 -21.48293,3.24528 -10.57465,1.59645 -19.9218,3.00666 -20.77186,3.134176 -1.33749,0.200636 -1.598,-0.122612 -1.93476,-2.400371 -0.96198,-6.507259 -1.82405,-9.514156 -2.4629,-16.4604938 z m 105.57185,0 h 23.87864 23.87865 c -1.41645,17.7525368 -2.60901,14.9408578 -3.94136,14.8900478 -9.95337,-2.559568 -36.71733,-6.485361 -44.09137,-6.511231 -0.97816,-0.0034 0.15987,-4.0362448 0.27544,-8.3788168 z M 77.335331,5.5950073 c 17.430126,-0.136918 22.19828,0.02865 22.473564,0.6413045 1.217655,2.709928 2.380985,13.7943732 2.991545,19.2892622 l 0.4098,3.688147 H 79.767741 56.325244 C 56.20831,22.807306 55.77984,6.261298 55.77334,5.764506 Z M 364.15813,5.764506 h 22.36556 22.36608 c -0.18518,9.849061 -1.08935,26.847711 -2.42828,28.148669 -10.51003,0 -26.81048,0.836305 -39.21362,0.09457 -3.29191,-0.219602 -6.91825,-0.380532 -6.86005,-0.895035 1.29009,-11.392117 3.25653,-13.242975 3.77031,-27.348202 z M 244.74837,18.951298 h 9.44852 l -0.45682,9.460921 c -0.25113,5.203341 -0.63594,11.227133 -0.85525,13.386263 l -0.39894,3.925342 -6.74481,0.436666 c -3.70976,0.24011 -11.30697,1.136738 -16.88269,1.992126 -5.57575,0.855387 -12.89066,1.749012 -16.25534,1.985926 l -6.11745,0.430464 V 36.392611 22.216732 l 2.62154,-0.393258 c 1.442,-0.216145 3.40843,-0.51919 4.36976,-0.673344 6.22897,-0.998804 23.29588,-2.198832 31.27148,-2.198832 z m 17.32504,0.03256 c 8.75841,0.247269 39.76083,5.156976 41.73337,6.909139 0.42848,0.380615 -2.93285,22.018201 -4.06125,26.14259 -0.38745,1.416252 -1.6191,2.026429 -2.48564,1.23145 -1.27616,-1.170724 -24.5762,-5.699268 -36.26393,-7.048149 l -3.16932,-0.365869 0.23358,-4.310848 c 0.83843,-15.467758 1.35395,-21.973199 1.77095,-22.355741 0.19378,-0.177778 0.99104,-0.237896 2.24224,-0.202572 z m -60.4821,3.713985 v 13.591936 13.591418 l -2.62154,-0.434082 c -1.44201,-0.23885 -5.29631,-1.304675 -8.56485,-2.368331 -9.512,-3.09541 -9.08886,-3.110004 -9.08886,0.31781 0,6.09089 3.86705,12.850719 9.45834,16.534391 1.85295,1.220746 2.89364,2.312639 2.52595,2.649968 -0.9581,0.878955 -17.92157,6.181469 -24.2192,7.570597 -3.07627,0.678551 -5.76605,1.235768 -5.97689,1.238168 -0.21089,0.0025 -0.93632,-6.308259 -1.61231,-14.023951 -0.67601,-7.715692 -1.67324,-17.45701 -2.2164,-21.647257 -1.46455,-11.298482 -1.95302,-10.157319 4.73666,-11.067542 5.42954,-0.738762 31.47197,-4.828253 35.65674,-5.599141 z m 107.88644,4.820378 c 0.22773,-0.208911 6.65605,1.212277 14.28543,3.158464 7.62939,1.946191 17.16224,4.182489 21.18372,4.969205 4.02149,0.786714 7.66153,1.513192 8.08943,1.614372 0.80376,0.190074 -1.34359,15.32416 -3.59099,25.306466 -0.59567,2.645765 -1.27632,7.479904 -1.51257,10.743013 -0.2362,3.263108 -0.61812,5.912923 -0.84853,5.888013 -0.23041,-0.02492 -1.78194,-0.600512 -3.44785,-1.278992 -4.18014,-1.70245 -10.61212,-3.165698 -13.91595,-3.165698 -2.64616,0 -2.79487,-0.112239 -3.61735,-2.725932 -2.03693,-6.47269 -7.90843,-11.865151 -16.56901,-15.217159 -2.46053,-0.952326 -4.63312,-1.877914 -4.82813,-2.056722 -0.42709,-0.391791 4.18116,-26.693172 4.7718,-27.23503 z m -157.87563,2.801896 c 1.3115,-0.135212 1.49613,0.652294 2.97087,12.68398 2.43507,19.86649 3.48757,32.008379 2.83446,32.694129 -0.58218,0.611176 -24.92404,1.070222 -31.32419,0.590661 -1.73037,-0.129662 -5.69613,-0.406318 -8.8129,-0.614949 l -5.66684,-0.379305 -0.47904,-9.410795 c -0.26336,-5.175924 -0.92405,-14.450742 -1.46812,-20.610628 -0.54411,-6.159887 -0.92475,-11.253109 -0.84595,-11.318689 0.0789,-0.06557 5.17756,-0.445731 11.33006,-0.844393 9.32377,-0.604141 16.00195,-1.196158 31.46165,-2.790011 z M 5.1299194,33.703369 H 28.201896 c 21.450569,0 24.769365,0.244804 22.300965,1.644344 -0.424056,0.240431 -1.522121,1.917064 -2.440162,3.725871 -2.276053,4.484368 -2.370402,13.612948 -0.207222,20.058207 2.77762,8.276055 8.441833,17.736345 15.016138,25.081673 4.257526,4.756836 0.797806,1.94208 -18.225761,-14.829069 -3.453253,-3.044386 -6.512481,-5.535062 -6.798552,-5.535062 -0.931918,0 -2.518907,3.494183 -3.434932,7.562846 l -0.896586,3.982185 H 19.322852 5.1299194 V 54.549125 Z m 75.2000606,0 h 23.38049 v 1.443323 c 7e-5,0.793731 0.45399,6.927052 1.00872,13.629659 0.55472,6.702603 1.22456,15.433786 1.48828,19.402433 l 0.47956,7.21558 -2.36213,-0.0801 C 96.545026,75.049864 96.402742,74.970398 85.95651,65.069413 74.271625,53.994418 56.130648,34.919504 56.608431,34.210315 56.796124,33.931677 67.470812,33.703369 80.32998,33.703369 Z m 414.50803,0 v 41.605729 l -1.17615,0.02429 c -9.32492,0.01341 -20.10051,0.313977 -23.94583,0.66766 -9.57448,0.880656 -8.97597,0.959868 -8.52144,-1.124996 0.21599,-0.99075 0.89939,-8.423258 1.51877,-16.516305 0.6194,-8.093052 1.29105,-16.762945 1.49241,-19.266524 l 0.36587,-4.55166 10.54871,-0.419096 c 11.82691,-0.428369 19.71766,-0.419096 19.71766,-0.419096 z m -36.13526,1.548743 c 0.51917,0.476277 -0.84479,23.637827 -2.03295,34.521407 l -0.82166,7.527189 -2.50475,0.37207 c -9.67135,1.435951 -19.84163,3.35816 -32.25695,6.096786 -7.90416,1.743516 -14.8847,3.169832 -15.51223,3.169832 -0.88355,0 -1.07237,-0.46983 -0.83664,-2.08411 0.28244,-1.934716 1.99628,-13.903459 5.19917,-36.307862 0.72405,-5.064658 1.43192,-9.314295 1.57303,-9.443868 0.14125,-0.129563 7.16041,-0.822395 15.59801,-1.539441 8.43764,-0.717045 18.89859,-1.621808 23.24664,-2.01073 4.34809,-0.388927 8.10498,-0.524636 8.34833,-0.301273 z m -100.10035,3.261816 5.21777,0.320911 c 2.86953,0.176388 13.47591,0.320394 23.57014,0.320394 h 18.3534 l -0.005,1.92443 c -0.003,1.058306 -1.23093,10.438562 -2.72851,20.845239 -1.49756,10.406672 -2.92786,20.540245 -3.17862,22.518522 l -0.45579,3.59668 -5.3113,0.411861 h -10e-4 c -5.91381,0.45862 -7.34409,0.436423 -14.8885,-0.232027 -5.62355,-0.49827 -13.43985,-2.217508 -21.32376,-4.689636 l -4.89428,-1.534273 0.0615,-6.347417 c 0.0373,-3.853482 0.8036,-10.127616 1.95026,-15.968534 1.03883,-5.291529 2.28164,-12.218458 2.76159,-15.393376 z M 267.23433,54.50675 c 19.17936,0.0429 38.8457,12.184565 38.8457,40.09316 0,10.4837 -11.85443,32.78793 -22.46013,50.65686 0.003,-2.4e-4 0.009,-2.8e-4 0.0119,-5.2e-4 -12.35235,23.30012 -13.18512,40.0005 -19.19159,53.17091 -0.0651,0.21052 -0.40124,1.10563 -0.38706,1.1095 3.44587,0.98185 14.51458,5.10153 19.8298,7.38043 l 7.13238,3.05821 0.68213,-2.0283 c 1.58481,-4.71055 2.35923,-11.5142 2.0283,-17.81855 -0.38793,-7.39109 0.41154,-6.68353 1.5074,1.33428 0.71129,5.20396 0.42557,11.39316 -0.71158,15.41818 -1.0966,3.88141 -0.8561,4.3695 3.02875,6.15467 5.16774,2.37468 11.28078,5.78537 16.7132,9.32449 l 4.65346,3.03186 0.46302,-4.28501 c 0.58118,-5.37601 -0.65756,-18.60508 -2.41174,-25.75502 -2.37603,-9.68452 -0.73974,-6.33184 2.37815,4.87257 1.45211,5.21834 2.58389,15.38345 2.41794,21.71806 l -0.13436,5.1201 5.52628,4.27984 c 5.91874,4.58378 19.2946,16.90311 14.61513,13.46068 -1.53815,-1.1315 -6.7296,-5.06681 -11.53625,-8.74469 l -8.739,-6.68693 -0.57413,2.38435 c -3.41407,14.18486 -5.33169,19.35805 -9.8981,26.70225 l -3.1564,5.07617 3.89847,5.50716 c 4.40412,6.22199 8.13428,13.15003 11.51248,21.38164 1.26676,3.08673 2.50875,5.61206 2.76004,5.61206 0.8851,0 7.85319,-8.37824 11.13782,-13.39195 3.20716,-4.8954 5.78589,-11.18783 6.69571,-16.33802 0.24005,-1.35892 0.60899,-2.31298 0.81959,-2.11977 0.63186,0.57965 -1.14353,8.74754 -3.0179,13.88443 -2.14189,5.86996 -5.50428,11.05089 -10.91148,16.81448 l -4.09691,4.36717 1.52859,6.24872 c 1.10783,4.52986 1.58642,8.89623 1.73995,15.87034 0.17774,8.07331 0.11337,8.84724 -0.40153,4.81056 -0.96506,-7.56554 -2.03598,-13.32859 -3.6158,-19.45824 l -1.46089,-5.66787 -3.92689,3.48041 c -2.15978,1.91403 -8.80373,7.39275 -14.76396,12.17548 -5.96028,4.78267 -11.90779,9.72388 -13.21728,10.98021 l -2.38125,2.2841 1.94923,4.03593 c 2.65319,5.49292 12.6469,23.63701 13.8281,25.10596 0.89489,1.11285 1.34514,0.89733 7.20473,-3.45095 3.43763,-2.55097 7.48113,-5.68296 8.9855,-6.95979 l 2.73523,-2.3213 -1.58595,2.11873 c -0.87222,1.16532 -4.82349,4.7266 -8.78034,7.91425 l -7.1944,5.79603 3.97289,7.15822 c 4.80689,8.66137 12.06803,23.63106 11.6489,24.01558 -0.16645,0.1527 -3.03035,-4.73252 -6.36447,-10.85566 -3.33414,-6.12313 -7.154,-12.93419 -8.48837,-15.13603 -2.78818,-4.6008 -2.64237,-4.60518 -8.66045,0.26148 -3.96466,3.20618 -3.13557,1.92541 1.94716,-3.0086 l 2.98949,-2.90215 -8.09873,-14.92519 -8.09822,-14.92467 -5.35368,4.68602 c -5.38978,4.71775 -12.35947,9.72376 -16.88941,12.13105 l -2.44687,1.30069 2.44687,-1.79214 c 4.23053,-3.09819 20.97444,-18.41808 20.97444,-19.19056 0,-1.83429 -16.42935,-30.43121 -17.48318,-30.43121 -0.19796,0 -1.67871,1.51521 -3.29023,3.36723 -3.15261,3.62315 -20.28184,19.27378 -25.25169,23.07198 l -3.02721,2.31355 4.824,6.62957 c 5.56122,7.64058 5.96017,8.23257 5.56813,8.23257 -0.15913,0 -2.86045,-3.02195 -6.00325,-6.71535 l -5.71438,-6.71535 -3.74861,2.19987 c -3.77488,2.21529 -12.80712,5.84147 -13.33768,5.35471 -0.15705,-0.14403 1.97986,-1.4882 4.74906,-2.98742 2.76917,-1.4992 6.22818,-3.65405 7.68635,-4.78834 l 2.651,-2.0624 -4.69945,-5.45187 c -2.58489,-2.99854 -8.20872,-8.74152 -12.49743,-12.76201 l -7.79797,-7.30963 -5.18522,4.03128 c -5.71343,4.44167 -18.68704,12.52688 -19.25877,12.00237 -0.19909,-0.1826 3.67266,-3.38074 8.60361,-7.10706 4.93096,-3.72632 10.05255,-7.61825 11.38122,-8.64909 l 2.41535,-1.8743 -2.35231,-1.83348 c -4.63799,-3.6138 -17.59461,-12.15714 -23.40994,-15.43627 l -5.9247,-3.34088 -14.05082,11.27115 c -7.72786,6.1991 -13.94646,11.36637 -13.81931,11.48302 0.1271,0.11665 3.11185,1.09759 6.63267,2.17971 3.52083,1.08215 8.4727,2.8199 11.00398,3.86178 4.95957,2.04141 14.62093,7.05293 14.24615,7.38973 -0.1259,0.11312 -3.25327,-1.15789 -6.94944,-2.82463 -7.61981,-3.436 -25.68852,-8.71865 -27.75903,-8.11579 -2.45621,0.71517 -14.05571,12.39198 -18.32291,18.44539 -2.29821,3.26022 -4.17856,6.1288 -4.17856,6.37429 0,0.24551 4.48361,1.8127 9.96322,3.48247 5.47959,1.66977 13.87172,4.57734 18.6495,6.46162 4.77778,1.8843 8.75782,3.35632 8.84442,3.27112 0.0868,-0.0853 1.77222,-2.37482 3.74551,-5.08755 3.42944,-4.71466 14.78847,-15.28151 16.4052,-15.26211 0.42415,0.005 -0.37269,0.9434 -1.77095,2.08462 -5.93963,4.84786 -17.20325,19.66133 -15.37477,20.22048 2.19335,0.67071 12.25387,8.23453 16.19591,12.17651 6.19247,6.19238 8.14251,8.99296 3.40341,4.88808 -7.26426,-6.29203 -19.75931,-15.00632 -21.51703,-15.00632 -0.37669,0 -3.26391,4.11306 -6.41615,9.14001 -3.15221,5.02694 -7.55267,11.96077 -9.77873,15.40836 l -4.0473,6.26835 4.30723,2.66909 c 5.74658,3.56075 13.87221,9.58608 13.44983,9.97355 -0.186,0.17066 -1.53236,-0.54326 -2.99207,-1.58647 -4.09487,-2.92641 -14.35382,-8.5238 -15.55926,-8.4894 -0.59286,0.0169 -2.33606,1.64463 -3.87418,3.61683 -4.33255,5.55515 -10.88899,11.76859 -17.18499,16.28686 -3.15605,2.26489 -6.36677,4.57229 -7.13497,5.12734 -1.34554,0.97225 -1.21461,1.11207 3.56877,3.81992 2.73094,1.54599 4.83552,2.92953 4.67724,3.07475 -0.15826,0.14518 -2.64766,-0.92411 -5.53248,-2.3766 -2.88484,-1.4525 -5.59972,-2.64118 -6.03322,-2.64118 -0.43347,0 -3.60373,1.76905 -7.04454,3.93102 -6.594196,4.1434 -10.747291,7.97768 -13.786234,12.72843 h 5.17e-4 c -1.41592,2.21354 -1.9241,4.04647 -2.222087,8.01759 -0.359364,4.78886 -0.424755,4.96278 -0.939477,2.48978 -0.728051,-3.49812 0.489141,-9.35521 2.633948,-12.67262 2.337395,-3.6153 8.905223,-9.37489 14.565003,-12.77286 l 4.72012,-2.83394 -4.54287,-2.43757 c -2.498669,-1.34057 -6.195956,-3.84658 -8.216037,-5.56917 l -3.672644,-3.13211 5.59294,3.48196 c 6.184001,3.84948 10.933481,6.20375 12.513961,6.20375 3.34882,0 19.93107,-14.15239 26.13898,-22.30871 l 2.9962,-3.93671 -3.69538,-1.97198 c -4.82032,-2.57248 -24.59217,-11.54951 -25.42429,-11.54451 -0.35395,0.002 -1.18192,2.09528 -1.83968,4.65036 -1.19374,4.63706 -7.58059,17.13316 -9.5064,18.59938 -0.559282,0.42583 -0.05837,-0.96861 1.113627,-3.09852 2.123513,-3.85916 7.141683,-18.02389 7.141683,-20.15897 0,-0.79468 -1.27847,-1.54987 -4.36976,-2.58227 -6.546685,-2.18641 -17.641764,-7.51126 -22.098909,-10.60556 l -3.944462,-2.73833 -0.213424,5.23895 c -0.22358,5.49317 0.827536,18.46009 1.673283,20.64164 0.340316,0.87813 0.266531,1.0743 -0.238745,0.632 -1.402571,-1.22782 -3.099118,-10.95997 -3.396175,-19.48356 l -0.299207,-8.57984 -3.061311,-3.53984 c -1.683668,-1.94704 -3.746057,-4.72493 -4.583183,-6.17275 -1.708064,-2.95412 -1.219623,-2.51234 4.105692,3.71347 1.69172,1.97783 3.280565,3.59616 3.530534,3.59616 0.250031,0 0.845631,-2.48353 1.32395,-5.51852 0.966757,-6.13402 5.233904,-18.7066 8.125603,-23.94169 l 1.878438,-3.40031 -1.719275,-1.6893 c -0.945581,-0.92913 -3.272063,-3.99862 -5.16971,-6.82078 -4.621794,-6.87333 -4.536713,-6.73447 -4.121196,-6.73447 0.200619,0 1.596881,1.65975 3.102653,3.68815 1.505812,2.02844 4.041302,4.98681 5.634798,6.57427 l 2.897498,2.88613 1.557528,-1.8805 c 0.856463,-1.03425 3.816734,-4.64173 6.57841,-8.01709 2.761688,-3.37533 7.367222,-8.42075 10.23452,-11.21171 l 5.21312,-5.07463 -3.62407,-3.91862 c -3.93958,-4.26035 -7.413536,-8.73894 -8.740038,-11.26753 -0.691204,-1.31749 -0.560725,-1.26008 0.731739,0.32091 0.865167,1.05833 4.314879,4.50684 7.665679,7.66361 l 6.09265,5.7397 2.33578,-1.74356 c 1.28486,-0.95884 7.99945,-5.65677 14.92105,-10.44019 6.92161,-4.78344 12.58425,-8.91114 12.58425,-9.17257 0,-0.26143 -3.82977,-3.77269 -8.5106,-7.80262 -4.68082,-4.02992 -8.40067,-7.42753 -8.26667,-7.55044 0.25499,-0.23395 12.19763,8.04953 16.42793,11.39465 1.34585,1.06423 2.72705,1.94334 3.06907,1.95234 1.44621,0.0401 28.94411,-21.6689 28.81736,-22.75055 -0.0413,-0.35171 -2.27748,-1.96117 -4.96921,-3.57705 -2.69174,-1.61589 -5.36598,-3.47737 -5.94279,-4.13618 -0.64774,-0.73992 0.15427,-0.45638 2.09755,0.74104 1.73039,1.06627 4.87639,2.82765 6.99131,3.91449 l 3.84576,1.97611 9.16843,-6.51537 c 5.04273,-3.58353 11.96215,-8.36321 15.37632,-10.62157 l 6.20737,-4.10621 -4.53925,-1.53014 c -6.51263,-2.19541 -13.33267,-4.85326 -13.07052,-5.09374 0.12352,-0.11335 1.81761,0.34916 3.76462,1.02784 1.94702,0.6787 6.26202,1.93714 9.58908,2.79673 l 6.04925,1.56269 10.03763,-6.35413 c 12.31208,-7.79444 17.65868,-12.58045 20.94445,-18.74769 2.5123,-4.71545 5.34003,-12.81856 6.63267,-19.00608 0.33941,-1.62471 0.51828,-2.38034 0.57981,-1.99109 0.0615,0.38925 0.006,1.92321 -0.1235,4.87722 -0.67475,15.4232 -6.78318,23.91376 -26.20047,36.4169 -4.95747,3.19221 -8.21144,5.67696 -7.64605,5.8384 9.33735,2.66438 20.18015,6.07319 23.98459,7.54063 4.59442,1.77212 4.90549,1.81011 6.58254,0.80202 3.86422,-2.32277 12.75339,-11.11824 16.12615,-15.95665 l 3.57291,-5.12579 -3.66645,-1.14618 c -2.01661,-0.63042 -6.18364,-1.78208 -9.2599,-2.55902 -3.07625,-0.77691 -5.06164,-1.50807 -4.41213,-1.62471 0.64955,-0.11665 4.85292,0.66891 9.34103,1.74563 4.48815,1.0767 8.43065,1.80463 8.76071,1.61748 0.15515,-0.088 0.44003,-0.71727 0.70848,-1.28106 4.9535,-21.82896 0.32134,-32.88726 -4.75371,-41.537 -11.50338,-18.49864 -28.64218,-48.11906 -28.64218,-60.77252 0,-27.908595 19.66685,-40.050256 38.8462,-40.09316 z m -66.57474,15.236797 c 0.86283,0.160357 1.13815,1.645561 1.41696,7.650695 l 0.34572,7.451225 -8.61394,6.52415 c -4.73786,3.58818 -11.35297,8.296859 -14.69988,10.463963 v -5.2e-4 c -3.34691,2.16712 -7.95998,4.9064 -10.25106,6.08697 l -4.16563,2.14612 -0.41238,-6.91327 c -0.22699,-3.802404 -0.60837,-10.593262 -0.8475,-15.091072 l -0.43459,-8.177795 1.99316,-0.0015 c 3.46077,-0.0028 14.9235,-3.127315 24.93801,-6.797518 5.31347,-1.947333 10.14226,-3.450852 10.73113,-3.341398 z m 6.52518,1.068668 4.01991,0.447518 c 2.21105,0.245935 4.05717,0.48303 4.10207,0.5271 0.045,0.04402 -1.76388,2.210991 -4.01991,4.815726 l -4.10207,4.736145 V 76.07546 Z m 60.07179,9.157581 c -7.44142,0 -13.46533,5.83486 -13.46533,13.042614 0,7.20775 6.02384,13.04262 13.4431,13.04262 7.44142,0 13.48755,-5.83487 13.48755,-13.04262 0,-7.207754 -6.02391,-13.042614 -13.46532,-13.042614 z m -155.85561,0.485758 9.61337,0.516248 c 5.28735,0.283899 15.80117,0.468667 23.36395,0.410827 l 13.75058,-0.10542 0.38964,5.236373 c 1.13245,15.210518 1.24729,24.332858 0.31316,24.875998 -1.19074,0.69235 -10.9486,0.59346 -15.90497,-0.16123 -3.4284,-0.52201 -4.31002,-1.03906 -9.4387,-5.53764 -3.11133,-2.72907 -9.35376,-7.937207 -13.87203,-11.573457 l -8.215,-6.611483 V 83.98092 Z M 5.1299194,80.525834 H 19.000391 32.870862 l 0.75706,5.639966 c 2.217428,16.52196 13.941064,29.40005 36.494413,40.08748 2.899804,1.37413 5.403355,2.61544 5.563484,2.75848 1.258425,1.12364 -9.291111,-2.35267 -15.517399,-5.11338 -4.903508,-2.1742 -11.299091,-5.89027 -20.916036,-12.15275 -4.636356,-3.01914 -4.687728,-3.03458 -5.501473,-1.63969 -0.786635,1.34842 -0.611123,5.09497 0.47129,10.05985 l 0.447001,2.05052 H 19.899561 5.1299194 v -20.84524 z m 97.7263306,0 h 1.82522 c 1.35921,0 1.82572,0.327367 1.82572,1.282609 0,1.546676 0.052,1.54735 -2.00039,-0.02119 z m 380.53285,0.141077 c 3.85223,-0.06837 7.7834,-0.06479 11.44891,0.04961 0.18933,16.03191 0.15266,27.914829 0,40.293149 -5.38354,-0.64161 -9.78764,-0.66946 -18.82986,-1.09089 -4.99892,0.23562 -12.31389,0.94583 -16.25533,1.57871 -4.84753,0.77839 -7.16132,0.92521 -7.14892,0.45372 0.009,-0.38338 0.34347,-1.99579 0.74259,-3.58324 1.10131,-4.38036 6.23166,-32.666666 6.23166,-34.358627 0,-0.816107 0.25788,-1.629936 0.57309,-1.808675 0.83444,-0.473106 11.68118,-1.328636 23.23786,-1.533756 z m -31.50557,2.476334 c 1.64997,-0.179113 2.5827,-0.185919 2.66547,0.0016 0.28716,0.650348 -3.76466,23.341095 -5.88285,32.945275 -1.61577,7.32613 -2.28216,8.66006 -4.33875,8.68216 -0.50502,0.005 -7.58385,2.00894 -15.73082,4.45244 -8.14695,2.44352 -17.32974,5.024 -20.40599,5.73402 -5.93313,1.36935 -14.33246,2.42621 -14.33246,1.8035 0,-0.20466 1.41598,-5.62813 3.14658,-12.05197 2.97733,-11.05158 6.37116,-26.212905 6.797,-30.365075 l 0.19379,-1.894458 17.26199,-3.659209 c 14.27181,-3.025305 25.67613,-5.110895 30.62604,-5.648234 z m -92.7499,5.720581 c 0.13602,0 2.01281,0.557058 4.17081,1.238168 6.88862,2.17425 16.86055,3.351615 26.53481,3.132625 8.58308,-0.19427 8.91519,-0.153177 8.91419,1.107943 -0.002,2.40641 -3.40448,17.601028 -6.75773,30.181618 -2.98841,11.21182 -3.4587,12.43722 -4.74751,12.37392 -5.37957,-0.26428 -14.42549,-3.23581 -22.32164,-7.33288 -3.03041,-1.57241 -5.78322,-2.85874 -6.11745,-2.85874 -0.94983,0 -0.7867,-0.40258 2.15645,-5.32216 2.89855,-4.84506 4.89758,-11.17138 4.91598,-15.54892 0.0164,-4.126 -1.94178,-9.957187 -4.56923,-13.604337 -1.33423,-1.85204 -2.3148,-3.367237 -2.17868,-3.367237 z M 202.8393,91.088497 c 0.10945,0.09435 -0.13404,1.436427 -0.54105,2.982247 -0.40701,1.54582 -0.93622,6.618426 -1.17616,11.272696 l -0.43563,8.46253 -13.00644,12.08299 c -7.1533,6.64579 -13.99104,12.57497 -15.19494,13.17594 l -2.1885,1.09295 -1.43919,-5.28288 c -1.36673,-5.01595 -3.622,-16.68 -3.622,-18.73426 0,-0.527 1.49472,-1.65533 3.32125,-2.50734 5.85063,-2.72911 15.65266,-8.98126 24.99485,-15.943209 4.99894,-3.7253 9.17842,-6.696064 9.28781,-6.601664 z m 136.54774,17.173113 c 2.00048,0.0583 3.74553,0.20625 5.03483,0.4532 3.06373,0.58682 4.7231,1.36351 6.81716,3.19102 2.90136,2.53199 3.35202,4.26251 2.3306,8.94778 -0.24034,1.10241 -0.63365,1.97231 -0.87385,1.93321 -0.24033,-0.039 -2.841,-1.43325 -5.77897,-3.09852 -6.59114,-3.73594 -13.95383,-6.01841 -24.20989,-7.50445 l -7.86102,-1.13895 5.07256,-1.1529 c 5.16912,-1.17495 13.46711,-1.80544 19.46858,-1.63039 z m -194.13492,8.00003 c 0.47153,0.0157 1.12762,0.12219 1.98024,0.30127 1.63427,0.3433 5.22652,0.52472 7.98246,0.40308 l 5.01054,-0.22118 1.16014,6.91017 c 0.63791,3.80034 1.7649,9.23445 2.50475,12.07627 0.73988,2.84179 1.34514,5.43721 1.34514,5.76761 v 5.1e-4 c 0,0.73044 -7.68449,0.78791 -8.92297,0.0667 -0.48566,-0.28284 -1.53045,-2.65974 -2.32182,-5.28185 -1.52819,-5.06353 -5.89621,-14.13773 -8.28993,-17.22169 -1.61318,-2.07835 -1.86317,-2.84814 -0.44855,-2.80086 z m 55.69169,4.03179 c 0.22059,-5.1e-4 0.79854,6.42082 1.28416,14.26993 l 0.88315,14.27097 -6.09937,5.34851 c -3.35458,2.94152 -8.007,6.6215 -10.33839,8.17779 -2.3314,1.55628 -4.43598,2.82929 -4.67723,2.82929 -0.84869,0 -9.76892,-18.12966 -9.76892,-19.85461 0,-0.31093 1.17837,-1.2335 2.61845,-2.05 4.568,-2.58997 11.49248,-8.45135 18.70583,-15.83469 3.84535,-3.93595 7.17168,-7.1567 7.39232,-7.15719 z m 116.77271,0.10852 c 5.8732,-0.21004 13.7472,0.50027 18.46141,1.84175 2.69172,0.76596 7.18961,2.27326 9.99526,3.34967 4.00723,1.53739 4.99912,2.17603 4.624,2.97811 -2.40143,5.1344 -7.44328,19.98705 -8.13025,23.95099 -0.47381,2.73396 -1.0262,4.95103 -1.22783,4.92683 -0.20171,-0.0242 -3.04116,-1.77446 -6.3097,-3.88968 -4.78961,-3.09962 -26.07446,-13.55397 -30.10565,-14.7867 -1.29165,-0.39499 -1.76729,-8.92652 -0.70022,-12.56202 0.89736,-3.05718 2.36978,-3.98503 8.37779,-5.28133 1.32188,-0.28521 3.05746,-0.4576 5.01519,-0.52762 z m 156.88914,4.50464 c 5.76948,-0.17087 11.91114,0.23016 20.23235,1.20509 0.0103,16.93846 0.22694,21.87353 0,38.48964 -7.83614,-0.62027 -18.35417,-4.15333 -47.61518,2.2009 -1.88492,0.40933 -3.56771,0.94171 -3.80287,0.94671 -0.54981,0.009 0.85134,-8.1452 3.9672,-23.08334 3.77036,-18.07605 2.84006,-16.30616 9.21959,-17.53226 6.83223,-1.31311 12.22943,-2.05587 17.99891,-2.22674 z M 5.1299194,127.34778 H 20.533114 c 14.057857,0 15.436808,0.098 15.786116,1.12241 1.160091,3.40217 6.378225,12.0105 9.717236,16.03107 l 3.839043,4.62297 v 9.95702 9.95701 H 27.502714 5.1299194 v -20.84524 z m 440.2470306,2.15129 c 0.0726,0.0666 -0.94218,5.02176 -2.25516,11.01122 -1.31299,5.98947 -3.05734,14.93082 -3.87573,19.86958 -0.81842,4.93877 -1.53357,9.00925 -1.58957,9.04545 -1.47737,0.96187 -31.96535,11.53457 -35.85363,12.43335 v -0.002 c -3.02375,0.69897 -7.19574,1.27606 -9.27126,1.28106 l -3.77393,0.0114 0.41909,-12.02665 c 0.33769,-9.69705 2.54154,-27.99668 3.46129,-28.74037 0.0942,-0.0762 2.84531,-0.46302 6.11384,-0.85938 7.89865,-0.95789 16.41463,-3.0352 32.86001,-8.01604 7.4982,-2.27098 13.69235,-4.07463 13.76505,-4.00803 z m -89.5966,1.27848 c 0.40414,-0.14226 3.35041,1.18336 6.5474,2.94607 6.71241,3.70104 14.70751,6.6748 20.63234,7.67395 2.2737,0.38344 4.19879,0.77091 4.27829,0.86041 0.0794,0.0896 -0.45827,3.91478 -1.19528,8.50078 -0.73704,4.58599 -1.56122,13.71692 -1.83141,20.29075 l -0.49144,11.95224 -4.35684,-1.22887 c -4.94286,-1.39388 -11.28933,-5.12859 -24.16545,-14.22083 l -8.9178,-6.29729 0.42478,-3.32383 c 0.99892,-7.82144 7.24484,-26.50895 9.07541,-27.15338 z m -47.77796,14.59756 c 3.77602,1.02443 19.30513,8.75311 26.10848,13.17439 l 7.1081,4.61935 0.49144,5.01933 c 0.53431,5.46187 2.73238,15.48961 4.27416,19.49856 0.53259,1.38488 0.89967,2.51767 0.81597,2.51767 -0.9651,0 -21.95349,-20.57586 -26.16998,-25.6558 -5.94007,-7.15636 -13.4674,-17.87269 -13.4674,-19.17299 0,-0.15648 0.2998,-0.14686 0.83923,-5.1e-4 z m -140.73353,1.51308 2.58692,5.78363 c 1.42268,3.18101 3.65935,7.76135 4.97076,10.1787 1.31141,2.41734 2.2855,4.4761 2.16472,4.5744 -0.1208,0.0985 -1.88708,0.50211 -3.92482,0.89659 v 0.002 c -3.95091,0.76493 -8.25995,0.82267 -11.67629,0.15658 -1.97986,-0.386 -2.14142,-0.65701 -2.88871,-4.83537 -0.43543,-2.43457 -1.00424,-7.19516 -1.26401,-10.57919 l -0.47181,-6.15312 5.25136,-0.0119 z m -112.499076,6.1712 5.404321,3.55741 c 6.706465,4.41416 15.767196,8.49028 25.358142,11.40809 7.311325,2.22427 7.311325,2.5555 0,1.62832 -2.114919,-0.26821 -9.901583,-0.51649 -17.303853,-0.55139 l -13.45861,-0.063 v -7.9897 z m 148.217826,2.40296 -0.007,3.42046 c -0.0132,4.90711 -2.32219,14.48735 -4.39715,18.24385 h -0.003 c -2.82348,5.11158 -3.29592,5.22812 -6.88485,1.69653 -1.70466,-1.67742 -4.09035,-4.37619 -5.30149,-5.99705 l -2.20193,-2.9471 3.97909,-2.59829 c 2.18845,-1.42913 6.41723,-4.67275 9.39736,-7.20835 z m 17.29765,9.57719 c 0.0893,-0.0549 0.14095,0.0324 0.14625,0.27802 0.0588,2.73253 -3.19677,11.42595 -5.59656,14.94534 -2.68273,3.93438 -8.66523,9.68671 -11.49542,11.05307 -1.15363,0.55692 -3.67081,1.39705 -5.59346,1.86707 -5.34567,1.3068 -7.70318,1.00955 -2.97966,-0.37569 5.51651,-1.61781 10.19568,-4.51714 15.18253,-9.40769 4.94734,-4.85188 6.40133,-7.26523 8.72763,-14.48387 0.73124,-2.2691 1.34074,-3.71146 1.60869,-3.87625 z m 126.40417,2.80086 c 0.17068,-0.15658 2.12306,1.01988 4.33824,2.61431 15.05225,10.83431 21.96705,14.76713 29.12587,16.56488 l 4.223,1.0604 0.90485,6.67453 c 0.93806,6.91656 3.87737,21.79677 5.02243,25.42687 0.36016,1.14174 0.43548,2.20006 0.16795,2.3518 -1.13883,0.6457 -8.5888,-2.45919 -14.09268,-5.87303 -3.26852,-2.02736 -9.12075,-6.57198 -13.00489,-10.09964 -6.94358,-6.30641 -7.11013,-6.52908 -9.94874,-13.25604 -1.58791,-3.76291 -3.51656,-8.95811 -4.28553,-11.54503 -1.48248,-4.98704 -2.97091,-13.44164 -2.4505,-13.91905 z m 124.52212,0.11007 c 2.49384,-0.0877 5.01491,-0.0826 7.59333,0.0124 7.55143,0.27815 13.19499,1.80189 16.03313,2.6448 0.39649,20.44432 0.18645,36.23967 0,36.22777 -12.0933,-4.97215 -25.92334,-12.73139 -50.8801,-4.14084 l -6.18153,2.12804 0.36484,-2.01745 c 0.20076,-1.10957 1.23576,-8.27205 2.2996,-15.91634 l 1.93425,-13.89838 6.33139,-1.64847 c 7.78877,-2.02774 15.02357,-3.12827 22.50509,-3.39153 z M 179.4092,172.5259 c 1.06877,0.0873 1.83402,0.98308 4.16719,4.0411 1.82004,2.38546 4.32771,5.43552 5.57227,6.77788 2.59711,2.80124 2.43023,3.03904 -3.24011,4.61729 -9.90352,2.7565 -17.3334,-0.60676 -22.67769,-10.26501 l -2.12958,-3.84834 7.48585,-0.38137 c 4.11707,-0.20987 8.42926,-0.57387 9.58287,-0.80926 0.49296,-0.10056 0.88295,-0.16138 1.2392,-0.13229 z m -129.322335,0.98341 -0.42478,9.79113 c -0.424618,9.78632 -1.653035,18.31767 -3.731038,25.90695 l -1.103809,4.03024 -2.89388,0.31264 c -1.59184,0.17193 -6.829437,0.6243 -11.638566,1.00563 -4.809114,0.38133 -12.438189,0.87503 -16.954004,1.09709 l -8.2108686,0.40359 v -20.94342 -20.94343 l 8.2150026,-0.0388 c 4.518265,-0.0213 14.633795,-0.16998 22.478731,-0.33021 z m 12.992489,0.0863 3.879866,5.34902 c 6.235412,8.59714 14.396165,14.49264 23.991818,17.33228 2.048337,0.60613 3.670577,1.47176 3.670577,1.95854 0,1.60928 -3.608367,10.19017 -7.006808,16.66306 v -0.002 c -1.852107,3.52769 -3.796519,6.93783 -4.321183,7.57784 -0.918274,1.12008 -1.019219,1.11669 -2.694926,-0.0925 -6.09906,-4.40123 -16.524318,-7.92323 -25.941052,-8.76328 l -4.656047,-0.41497 0.648539,-2.03967 c 1.944848,-6.11502 3.55095,-17.12061 3.917591,-26.8428 l 0.403593,-10.69185 4.054016,-0.0171 z m 373.133296,1.43815 c 0.5216,-0.19075 0.46016,1.76412 -0.19895,6.32468 -0.52474,3.63062 -1.50756,11.05841 -2.18385,16.50597 l -1.22938,9.90482 -4.51446,2.53318 c -10.93504,6.13654 -18.81956,10.02611 -22.84976,11.27166 -2.38844,0.73813 -5.44145,1.34204 -6.7846,1.34204 -2.23178,0 -2.50261,-0.20748 -3.1409,-2.40554 -1.08459,-3.73524 -4.85063,-23.36338 -5.36298,-27.95126 l -0.45888,-4.11241 4.80642,-0.47181 c 6.72689,-0.66021 14.24251,-2.77795 28.69386,-8.08581 6.85755,-2.51872 12.80816,-4.70376 13.22348,-4.85552 z m -98.25033,12.92583 6.60941,6.41408 c 6.28224,6.09654 6.81593,6.84264 10.79108,15.07298 2.30017,4.76237 5.78946,13.07334 7.75353,18.46864 1.96403,5.39531 3.47073,10.04991 3.34811,10.34407 -0.12253,0.29414 -3.73681,-3.15554 -8.03155,-7.6662 l -7.80831,-8.20157 -2.10323,-7.91579 c -2.27031,-8.54585 -5.27992,-16.55335 -8.51989,-22.66787 z m -238.343594,10.83965 8.996864,0.032 c 4.94829,0.0176 8.77879,0.1998 8.51266,0.40463 -0.47573,0.36639 -6.00259,1.84654 -11.84475,3.1719 -3.42823,0.77776 -3.61313,1.44316 -1.4733,5.30045 2.39598,4.319 9.49863,10.23009 15.73082,13.09171 3.02491,1.38896 6.20006,2.6932 7.0559,2.89853 l 1.55598,0.37362 -1.29191,3.44475 c -1.84902,4.9304 -4.70622,9.95594 -7.86877,13.83947 -1.50815,1.85187 -3.12541,3.34449 -3.59358,3.31659 -4.82439,-0.28696 -14.5681,-5.94376 -24.622786,-14.29525 l -4.194576,-3.48454 3.968234,-6.95927 c 4.339903,-7.61134 7.903569,-15.43467 8.614461,-18.91099 z m 163.863904,2.20089 -1.25884,1.49707 c -0.69258,0.82349 -3.07889,3.80639 -5.30252,6.62854 -2.22365,2.82217 -6.45048,7.18995 -9.39323,9.70586 l -5.35057,4.5744 5.89524,2.40967 c 3.24252,1.32547 10.23494,4.66642 15.53859,7.42436 5.30366,2.75796 9.95799,4.93546 10.34252,4.83846 2.32373,-0.58575 16.43001,-22.27628 16.43001,-25.26357 0,-0.92929 -11.51062,-6.21124 -21.31602,-9.78132 z m 198.89225,2.87115 c 8.014,-0.41549 14.51603,1.53835 32.46313,8.4832 0.10056,15.41151 0,26.21416 0,38.62245 v 9.06198 c 0,0 -5.81214,-13.35778 -18.90892,-17.85318 -4.22486,-1.45015 -14.09419,-1.8147 -18.40663,-0.68006 -4.37933,1.15223 -3.08037,0.10248 3.13211,-2.53059 9.422,-3.99342 14.48619,-5.2601 22.52007,-5.63273 8.02607,-0.37227 8.10991,-0.44216 5.718,-4.74338 -4.84803,-8.71794 -14.99629,-12.94187 -26.03976,-10.83862 -5.13391,0.97775 -13.56024,4.84034 -20.44681,9.37307 -2.95465,1.94477 -5.51513,3.40468 -5.69061,3.24373 -0.17532,-0.16089 -0.091,-4.68503 0.18759,-10.05313 l 0.50643,-9.76013 4.26744,-1.77043 c 7.33484,-3.04297 13.7153,-4.56016 20.69796,-4.92218 z m -100.36183,8.14059 c 0.11355,0 1.58361,1.17141 3.26646,2.60294 7.20071,6.12527 20.31799,12.79043 25.17159,12.79043 0.66848,0 1.37767,0.50507 1.57613,1.12241 1.47092,4.57675 2.39193,20.30236 1.3901,23.73189 -0.79319,2.71521 -6.43203,1.15409 -15.00787,-4.15479 -5.17944,-3.20632 -5.29167,-3.33316 -6.1774,-7.01146 -1.4233,-5.91055 -5.46387,-17.79305 -8.05532,-23.68899 -1.30367,-2.96593 -2.2773,-5.39243 -2.16369,-5.39243 z m -68.38756,1.372 -4.36873,8.20054 c -3.59973,6.7573 -7.16111,11.92388 -12.22767,17.73948 -0.39419,0.45249 1.48198,1.9937 5.39605,4.43281 7.32943,4.56742 15.63657,10.72458 19.81481,14.68696 1.71431,1.62575 3.31007,2.95589 3.54604,2.95589 0.87137,0 6.32708,-9.51536 8.28993,-14.45855 2.75524,-6.93869 5.25373,-18.13174 4.28604,-19.20141 -1.15236,-1.27381 -14.08454,-9.05325 -19.6789,-11.83804 z m 138.31869,0.66043 c 0.11737,0.1171 0.0577,4.97505 -0.13281,10.79572 l -0.34675,10.58334 -4.75216,4.24677 c -5.43864,4.86063 -14.79603,10.78464 -19.92024,12.61111 -1.92265,0.68536 -4.5969,1.42967 -5.94279,1.65416 l -2.44687,0.40825 v -8.8191 c 0,-4.85033 -0.2571,-10.73135 -0.57103,-13.06897 l -0.57051,-4.24987 3.36724,-0.4563 c 4.96879,-0.67316 12.30375,-3.671 22.26014,-9.09816 4.86331,-2.65095 8.93848,-4.72409 9.05578,-4.60695 z m -224.24781,0.18087 c -1.07169,-0.37728 -13.36878,7.50492 -24.44399,15.66829 l -7.50187,5.5299 5.05499,2.18178 c 2.78031,1.20013 9.30247,3.85829 14.49369,5.90713 5.1912,2.04879 9.9449,3.73597 10.5637,3.75067 1.31438,0.0302 2.71022,-0.98829 18.74821,-13.6803 6.62817,-5.24538 11.78959,-9.75623 11.4701,-10.02471 -0.76824,-0.64554 -18.36646,-6.61138 -23.45232,-7.95042 -2.19682,-0.57839 -4.41622,-1.20054 -4.93251,-1.38234 z m -158.96136,4.02714 5.638932,0.36949 c 6.552909,0.42922 14.256894,2.65187 19.730062,5.69216 6.632418,3.68431 7.143119,1.93956 -6.296773,21.516 -6.59365,9.6043 -12.145886,17.43695 -12.338265,17.40565 -0.192262,-0.0313 -2.22871,-0.77914 -4.525306,-1.6614 -2.411983,-0.92656 -6.921951,-1.90337 -10.677901,-2.31303 -3.868855,-0.42201 -6.396579,-0.97686 -6.241996,-1.36994 0.142985,-0.36334 3.511196,-9.4306 7.485331,-20.14968 z m -6.743775,0.29662 c 0.690944,0.0858 0.892969,0.31036 0.892969,0.709 0,0.52913 -3.260168,9.72218 -7.244519,20.42925 l -7.244002,19.46754 -6.91379,1.08263 v -5.2e-4 c -3.802418,0.59523 -9.041706,1.28248 -11.6427003,1.52704 l -4.7289103,0.44493 0.1844849,-20.68711 0.1850016,-20.68659 4.8937581,-0.23203 c 4.676389,-0.22168 17.726447,-1.12815 27.791585,-1.93063 1.955499,-0.15592 3.135179,-0.20927 3.826123,-0.12351 z m 198.141915,6.14381 -12.74858,10.17561 c -7.01158,5.5966 -13.86843,11.0762 -15.23731,12.17652 l -2.48874,2.00039 4.53099,2.08205 c 5.06261,2.32637 18.05496,9.60556 23.40581,13.11341 1.92144,1.25964 3.72112,2.2903 3.99872,2.2903 0.27766,0 4.78388,-3.68 10.01386,-8.1778 5.22997,-4.4978 11.92534,-10.24871 14.87868,-12.77958 4.75594,-4.07561 5.24951,-4.7094 4.32066,-5.54695 -1.55055,-1.39812 -14.89701,-8.29668 -23.32209,-12.05456 z m -107.15419,0.6165 6.85075,0.12661 c 3.76778,0.0696 6.91865,0.18944 7.00215,0.26614 0.15236,0.13976 -2.97745,2.44783 -13.38988,9.87485 -6.736,4.80467 -7.9985,5.20385 -5.53041,1.74821 0.62099,-0.86944 2.01484,-3.92887 3.098,-6.79855 z m 218.15568,4.34134 3.33675,3.52744 c 1.83516,1.94023 5.86313,5.93057 8.95087,8.86715 l 5.61413,5.33921 -0.007,8.77156 c -0.005,4.82434 -0.42646,10.86381 -0.93689,13.4214 h -0.002 c -0.51042,2.55756 -1.13591,4.64503 -1.38958,4.64003 -0.79421,-0.0181 -7.44252,-8.99531 -11.86801,-16.02486 l -4.24005,-6.73447 0.53227,-5.45187 c 0.29226,-2.99855 0.41504,-7.90518 0.2713,-10.90372 z m -267.360425,1.71979 c 0.166725,-0.15297 2.439601,1.52372 5.050854,3.72587 7.069533,5.96198 12.199141,9.42616 17.119881,11.56106 2.42405,1.05171 4.25,2.12729 4.05764,2.39003 -0.19226,0.26277 -2.13592,1.57195 -4.31912,2.90938 -4.16314,2.5504 -22.521087,16.83606 -26.050088,20.27163 -1.129423,1.09949 -2.23927,1.99937 -2.466516,1.99937 -0.961408,0 -13.126879,-5.88838 -14.960844,-7.24142 l -2.001945,-1.47743 2.775025,-4.13877 c 3.915703,-5.84076 20.429823,-29.66459 20.795113,-29.99972 z m 90.537625,5.65651 c -0.54581,0 -24.31701,18.37178 -28.19776,21.79298 -1.24914,1.10118 -1.0698,1.26679 5.24361,4.84983 3.59536,2.04045 10.15475,5.53529 14.57688,7.76594 4.42212,2.23059 8.42749,4.06038 8.90024,4.06538 0.87333,0.01 17.09723,-13.70008 25.33075,-21.40541 l 4.51652,-4.22713 -5.2157,-2.08773 c -2.86868,-1.14828 -9.5573,-4.03752 -14.86318,-6.4208 -5.30588,-2.38327 -9.93687,-4.33306 -10.29136,-4.33306 z m 100.18407,5.13095 c -0.31337,0 -3.55253,2.76516 -7.19801,6.14484 -3.64546,3.3797 -10.43911,9.29816 -15.09676,13.15217 l -8.46821,7.00733 8.8625,8.17417 c 4.87444,4.49587 10.69117,10.29663 12.92583,12.89069 l 4.0628,4.71651 5.68079,-5.08806 c 3.1243,-2.79842 7.88281,-6.77916 10.57455,-8.84649 6.87416,-5.27955 17.82837,-15.20161 17.82837,-16.14837 0,-1.3859 -4.33383,-5.40468 -11.42153,-10.5916 -7.14606,-5.22963 -16.76157,-11.41119 -17.75033,-11.41119 z m -67.1618,8.77207 -4.79402,4.50205 c -2.63669,2.47615 -9.04099,8.18073 -14.2322,12.67727 -5.19119,4.4965 -9.53293,8.40529 -9.64851,8.68629 -0.11536,0.28098 3.81748,2.95515 8.73952,5.94227 4.92205,2.9871 11.78064,7.48496 15.24144,9.99526 3.4608,2.51031 6.4803,4.4967 6.71019,4.4142 0.22983,-0.0825 7.07849,-6.56058 15.21923,-14.39602 l 14.80116,-14.24616 -5.08134,-3.29076 c -6.07031,-3.93061 -15.90064,-9.30179 -22.31079,-12.19098 z m 166.78879,0.20723 c 0.14121,0 1.57173,0.82655 3.17913,1.83658 4.20795,2.6441 8.20187,4.40607 11.95276,5.27254 3.18842,0.73654 3.26306,0.80989 2.80758,2.75694 -1.42867,6.10717 -5.96949,15.12482 -9.02942,17.93224 -1.43603,1.31756 -6.77131,1.38621 -9.92549,0.12764 l -2.22312,-0.88728 0.96066,-3.3414 c 1.48458,-5.16294 2.63426,-14.86196 2.31201,-19.50424 -0.16025,-2.30597 -0.1752,-4.19302 -0.0341,-4.19302 z m 37.80234,4.81624 c 0.73778,0.67682 -9.37758,13.33479 -13.36352,16.72249 -2.45701,2.08829 -5.46476,4.31825 -6.68383,4.95577 l -2.2164,1.1591 2.4815,-4.53615 c 1.36484,-2.49489 3.1718,-6.98502 4.01526,-9.9782 1.52375,-5.40747 1.54768,-5.44205 3.77961,-5.44205 1.23542,0 4.37269,-0.70809 6.97167,-1.57355 2.59899,-0.86545 4.85612,-1.45384 5.01571,-1.30741 z m 58.17992,3.18947 c 3.91365,0.18585 8.0239,1.06306 12.15791,2.67477 2.32785,0.90753 6.02504,2.31442 8.25273,3.021 l 4.32221,1.37098 v 21.96817 c 0,18.68065 0.85511,21.96817 0,21.96817 -2.71479,0 -26.72456,2.89684 -39.35108,4.85448 -7.82602,1.21336 -14.48927,2.35307 -14.80685,2.53318 -0.31759,0.18007 -0.7377,-0.1816 -0.9338,-0.80409 -0.52242,-1.65847 -2.3757,-13.25625 -2.94348,-18.42109 l -0.49041,-4.46123 2.36936,1.83451 c 8.84393,6.84805 19.54467,5.08304 24.70702,-4.0752 1.13567,-2.01473 2.14522,-6.47506 1.46554,-6.47506 -0.25992,0 -1.94641,0.56993 -3.74809,1.26659 -7.03396,2.72004 -11.80839,2.70643 -14.51901,-0.0413 -2.07945,-2.10799 -1.92777,-12.06402 0.24081,-15.79903 3.96255,-6.82472 11.07207,-10.771 19.43551,-11.37192 1.25452,-0.0901 2.53707,-0.10484 3.84163,-0.0429 z m -327.30561,2.89853 c -0.64566,0 -25.06142,16.61358 -29.26384,19.91248 -1.01465,0.79546 -1.4216,1.52067 -1.00201,1.77922 0.38957,0.24008 2.57492,1.7544 4.85655,3.36568 5.46204,3.85724 11.38635,7.08788 19.33164,10.542 3.56981,1.55188 6.79339,2.83625 7.16338,2.85305 0.36998,0.0172 1.94272,-1.08611 3.4954,-2.45204 1.5527,-1.36588 7.69988,-6.30482 13.66015,-10.97504 5.96027,-4.67023 10.83654,-8.76835 10.83654,-9.10694 0,-0.33858 -4.24698,-2.79273 -9.43818,-5.45393 -5.19118,-2.66118 -11.5719,-6.10457 -14.1795,-7.65173 -2.60758,-1.54718 -5.06468,-2.81275 -5.46013,-2.81275 z m -110.776698,1.78387 6.304524,0.29611 c 5.624266,0.26404 12.352633,1.72297 13.836882,3.00033 0.297273,0.25585 -1.658945,4.62888 -4.347022,9.71827 -3.830826,7.2529 -9.369239,20.88133 -11.6458,28.65613 -0.165813,0.56636 -2.088827,0.8015 -6.548955,0.8015 -5.158874,0 -6.314343,-0.17683 -6.314343,-0.96635 0,-3.63591 3.896782,-23.2772 6.78925,-34.22013 z m -5.448247,0.99891 c 0.112919,0.10359 -0.109132,1.17922 -0.49351,2.39055 -1.346251,4.24277 -6.20015,27.27628 -7.045048,33.43207 l -0.852661,6.21512 -2.506824,0.34055 c -1.378543,0.18726 -4.315137,0.52659 -6.5262161,0.75396 l -4.0204265,0.41341 v -20.59874 c 0,-11.32925 0.123531,-20.59875 0.2738851,-20.59875 0.1504367,0 4.9291735,-0.57059 10.6195065,-1.26814 5.690322,-0.69758 10.438426,-1.18366 10.551294,-1.08003 z m 279.675435,0.91777 -4.47673,4.54494 c -2.46217,2.49955 -8.31291,7.55582 -13.00179,11.23601 -4.6889,3.68022 -10.51266,8.55007 -12.94133,10.82208 l -4.41575,4.13101 4.8581,7.82743 c 2.67216,4.30512 6.54708,11.13111 8.61085,15.1691 2.06376,4.03799 4.07878,7.3438 4.47776,7.3458 0.39899,0.002 2.28691,-1.46534 4.19509,-3.2613 1.90819,-1.79596 8.6605,-7.3922 15.00529,-12.43593 6.3448,-5.04376 12.31343,-9.93847 13.26327,-10.87685 l 1.72703,-1.70584 -2.00195,-5.40898 c -2.63556,-7.12131 -7.99132,-17.30135 -12.04422,-22.89421 z m 48.59135,1.44694 c 0.071,-0.006 0.29081,0.294 0.72399,0.89555 0.48836,0.67817 2.84473,3.62289 5.23637,6.54327 l 4.34857,5.30975 -1.0852,2.43655 c -0.59669,1.34022 -2.23848,4.2356 -3.64888,6.43423 -1.41036,2.19867 -2.72166,4.00148 -2.91403,4.00648 -0.19223,0.005 -0.37049,-3.23727 -0.39429,-7.20473 -0.0384,-6.17756 -0.79071,-12.44674 -2.09703,-17.47594 -0.16256,-0.62575 -0.24052,-0.93881 -0.1695,-0.94516 z m -112.97398,3.1595 -4.1119,3.70313 c -2.26176,2.03701 -9.15632,8.53657 -15.32103,14.44305 l -11.20861,10.73887 8.292,7.93957 c 4.56056,4.36683 10.17941,10.27276 12.48657,13.12427 2.30723,2.85155 4.38728,5.19673 4.62246,5.21363 0.73409,0.0493 23.19396,-20.60389 27.04589,-24.87032 l 3.66025,-4.05401 -1.23404,-1.94924 c -2.12405,-3.35494 -9.89749,-11.49514 -17.20773,-18.02009 z m -184.394432,0.031 c 0.342673,0 2.328201,0.93814 4.412133,2.08463 2.083946,1.1465 5.504193,2.79432 7.60057,3.66231 2.096396,0.86799 3.926122,1.64682 4.065902,1.73012 0.139727,0.0833 -1.624428,2.25899 -3.919658,4.83537 -6.957381,7.80953 -13.815502,18.05174 -16.665649,24.8884 -0.661796,1.58745 -1.391957,3.05946 -1.62264,3.2706 -0.230554,0.21114 -1.677681,-0.28971 -3.215824,-1.11259 -1.538129,-0.82288 -3.816275,-1.67644 -5.06274,-1.89704 -2.704901,-0.4789 -2.736134,-0.21366 1.347721,-11.48509 2.866669,-7.91199 11.948921,-25.97671 13.060185,-25.97671 z m 311.901892,12.2468 2.43086,0.93224 c 1.33714,0.51253 3.38519,0.93173 4.55114,0.93173 1.16596,0 2.11977,0.26181 2.11977,0.58188 0,1.15872 -6.90858,6.2139 -12.13363,8.87852 -2.93991,1.49928 -5.50215,2.72593 -5.69371,2.72593 -0.19153,0 0.71623,-1.37067 2.01694,-3.04632 1.3007,-1.67563 3.34216,-4.83722 4.53667,-7.02541 z m -259.24567,2.77502 c -0.95208,0.2947 -2.61,1.69807 -5.86993,4.86121 -5.556049,5.39112 -11.675391,12.45293 -15.479159,17.86299 l -1.961638,2.79053 1.629358,1.59938 c 4.492814,4.41038 12.228479,8.8033 23.652299,13.43174 6.40494,2.59499 7.33942,2.63673 8.83409,0.39429 5.61231,-8.42013 9.20393,-12.82899 14.72262,-18.07228 3.53511,-3.35868 6.36642,-6.12235 6.29212,-6.14175 -0.0743,-0.0195 -2.4909,-0.97213 -5.37022,-2.11666 -6.99172,-2.77925 -13.99647,-6.50715 -19.86907,-10.57352 -2.65599,-1.83908 -5.27994,-3.63199 -5.83065,-3.98477 -0.19365,-0.12404 -0.43247,-0.14939 -0.74982,-0.0512 z m 318.08446,4.33979 3.04891,0.20102 0.50436,7.37578 c 0.27744,4.05683 1.09967,10.50343 1.82728,14.32522 0.93114,4.89093 1.09267,7.00171 0.54467,7.12825 -4.93317,1.13929 -12.11922,3.4966 -16.74472,5.49269 -3.13923,1.3547 -7.04479,3.22248 -8.67906,4.15065 l -2.97139,1.68723 v -4.72891 c 0,-5.88918 -1.10825,-11.54973 -2.8882,-14.75052 -1.35378,-2.43426 -1.35398,-2.46278 0.0279,-4.24315 0.76517,-0.98579 4.37076,-4.40567 8.01243,-7.59953 7.71701,-6.76812 12.65559,-9.34562 17.31781,-9.03873 z M 32.549951,311.37169 c 1.755496,0.0385 2.502044,0.31749 2.298568,0.85886 -0.165726,0.44097 -0.952976,6.23228 -1.749247,12.8695 -1.525125,12.71192 -2.880809,20.35627 -4.598686,25.93485 l -1.036629,3.36776 h -6.347933 c -5.762441,0 -6.647224,0.0537 -6.210474,-0.96532 1.96203,-4.57781 5.519016,-21.35326 7.007324,-34.62217 0.434636,-3.87483 0.847464,-7.09741 0.917774,-7.16081 0.180747,-0.16323 6.620597,-0.35057 9.719303,-0.28267 z m -14.692126,0.58963 -0.392224,2.4598 c -0.215647,1.35277 -1.102691,8.73734 -1.33997,11.03033 -0.237278,2.29299 -4.020417,20.31605 -5.897315,24.32462 -1.8768984,4.00856 -4.7526812,4.72942 -4.7526812,4.72942 L 5.1299194,333.79978 v -20.38842 l 2.2722128,-0.32298 c 1.2497512,-0.17756 4.1135808,-0.50394 6.3639528,-0.72502 z m 380.301335,0.13643 c 1.21216,-0.0739 2.18445,4.95735 2.47323,12.80025 l 0.31885,8.6589 -2.06551,1.28313 c -1.13613,0.70555 -6.22354,4.60155 -11.30525,8.65838 -5.08173,4.05685 -9.55235,7.48138 -9.9348,7.60987 -0.76986,0.25843 -0.29937,-5.13566 1.20975,-13.86788 l 0.91519,-5.29632 5.64151,-5.58312 c 3.10274,-3.07049 7.13766,-7.52946 8.96638,-9.90896 1.82876,-2.37947 3.52987,-4.33965 3.78065,-4.35425 z m -358.067034,0.40256 c 0.596534,-0.60285 7.256278,1.84959 8.372099,3.08301 0.515443,0.56974 0.326829,2.38718 -0.641821,6.18309 -2.277535,8.92531 -2.995861,17.50329 -2.180229,26.03252 0.397919,4.16116 0.727805,7.78196 0.730705,8.04653 0.0081,0.53943 -0.183347,0.52974 -3.138826,-0.16019 -1.153597,-0.2693 -4.09778,-0.52364 -6.542237,-0.56534 -3.937545,-0.0672 -4.388465,-0.20433 -3.955831,-1.19838 1.420268,-3.26339 3.972337,-16.74713 5.311304,-28.06134 0.834965,-7.05536 1.75523,-13.06727 2.044836,-13.3599 z m 45.085104,0.96479 c -1.483925,1.36138 -7.654032,17.69024 -9.083683,24.03988 -1.693135,7.51981 -1.546702,8.21277 2.272729,10.77299 4.869037,3.26378 15.548613,8.5814 21.34185,10.62674 2.777974,0.9808 5.217894,1.81203 5.421894,1.84743 0.20408,0.0353 1.57047,-3.4714 3.03599,-7.79281 1.46552,-4.32141 4.20352,-11.02231 6.0849,-14.89056 1.88141,-3.86826 3.18979,-7.23843 2.90731,-7.48946 -0.28248,-0.251 -3.50061,-1.6409 -7.1515,-3.08871 -8.30846,-3.29493 -14.870384,-6.85252 -20.333124,-11.0231 -2.332169,-1.78053 -4.355461,-3.13166 -4.496366,-3.0024 z m 268.72933,0.0145 c 0.32626,-0.47189 0.78304,3.96621 1.05007,10.19731 h 5.2e-4 c 0.25997,6.0682 0.36118,11.13517 0.22479,11.2603 -0.3961,0.36338 -1.8781,-13.21831 -1.865,-17.09457 0.006,-1.9402 0.27188,-3.90349 0.58962,-4.36304 z m 138.58379,1.79783 h 2.34766 v 8.8191 c 0.22145,11.33966 0.33206,20.59192 0,31.42237 l -18.56476,0.36845 v 5.2e-4 c -12.0662,0.20289 -22.76703,0.55611 -23.77942,0.78496 -1.01239,0.2288 -2.00474,0.17225 -2.20504,-0.12557 -0.66863,-0.99384 -6.03887,-19.68888 -7.73441,-26.92549 l -1.67328,-7.1422 7.4259,-1.33222 c 13.977,-2.50771 39.28516,-5.86992 44.18335,-5.86992 z m -57.02184,8.59947 c 0.36309,0.1873 0.51856,0.63057 0.71313,1.45676 0.53958,2.29129 7.81159,28.92848 8.39226,30.74076 0.39975,1.24754 -0.1338,1.4814 -6.95048,3.04839 -8.08021,1.85746 -15.28369,4.31852 -22.78828,7.78557 -2.67407,1.23541 -5.01467,2.24638 -5.20175,2.24638 -1.07116,0 -3.77615,-14.17794 -4.35477,-22.82548 -0.67523,-10.09141 -0.58045,-10.2974 6.39186,-13.95832 5.90631,-3.10121 17.57522,-7.59816 21.83846,-8.41603 1.02563,-0.19675 1.59647,-0.26533 1.95957,-0.078 z m -314.69139,7.43521 c -0.3337,0 -4.98992,9.46945 -7.0962,14.43167 -2.76984,6.52553 -5.728,15.20483 -5.37384,15.76752 0.12951,0.20568 3.94644,1.87884 8.48166,3.71812 4.53527,1.83924 11.07731,4.88672 14.53813,6.77219 3.46078,1.88545 6.60677,3.36304 6.9913,3.28404 0.38453,-0.0791 3.15873,-4.16065 6.16448,-9.07025 3.00577,-4.9096 7.30576,-11.72519 9.55601,-15.14533 2.98228,-4.53284 3.87026,-6.384 3.27474,-6.83007 -1.92525,-1.44205 -14.82245,-6.29407 -25.20467,-9.48211 -6.17177,-1.89513 -11.27091,-3.44578 -11.33161,-3.44578 z m 253.56592,3.85971 -0.37155,2.07894 c -0.92566,5.1808 -1.78697,12.35411 -1.78697,14.88178 v 2.76831 l -5.41879,2.57452 c -2.98013,1.41597 -7.12685,3.0357 -9.21546,3.59926 -5.59622,1.50994 -6.14783,1.40976 -5.83065,-1.05988 0.62688,-4.88145 1.64684,-10.93455 2.34817,-13.93455 0.55816,-2.3876 1.07255,-3.22306 1.98438,-3.22306 2.40921,0 9.49452,-2.62589 13.85858,-5.13612 z m -173.91083,2.76262 c 0.10327,-0.0948 3.24441,1.04636 6.97994,2.53576 l 6.79183,2.70785 1.3901,3.40599 c 1.954,4.78654 2.74163,8.24572 2.76003,12.14758 l -5.1e-4,5.2e-4 c 0.009,1.85204 -0.21856,3.33159 -0.50695,3.28869 -6.38288,-0.95209 -9.68584,-1.21714 -13.28549,-1.0666 -2.40413,0.1006 -4.36701,0.0385 -4.36201,-0.13798 0.005,-0.17639 0.4774,-1.73733 1.05006,-3.46904 1.32938,-4.01928 1.33865,-12.09809 0.0186,-16.12201 -0.56272,-1.71524 -0.93885,-3.19606 -0.83561,-3.29076 z m 199.36871,1.81229 0.17363,2.35697 c 0.91751,12.46148 2.94098,24.95829 4.70514,29.05817 0.34849,0.80985 -1.56721,2.20218 -8.50697,6.18257 -4.92619,2.82548 -10.59786,5.89093 -12.60388,6.81199 -2.00603,0.92107 -3.78091,1.67431 -3.94395,1.67431 -0.82274,0 -2.72868,-12.22903 -3.04891,-19.56263 l -0.36432,-8.33799 5.50251,-3.94911 c 3.02617,-2.17207 8.33333,-6.2636 11.79411,-9.09195 z m -66.42179,2.60708 c 0.092,-0.1004 1.54583,0.10922 3.23081,0.4656 1.68504,0.35639 5.37876,0.65453 8.20777,0.66353 4.34923,0.0133 5.07922,0.16905 4.7284,1.00769 -0.56081,1.34084 -2.47182,12.1851 -2.69855,15.31431 -0.22737,3.13693 -0.87289,3.26532 -7.94525,1.58078 l -2.86907,-0.68368 -1.41077,-9.08265 c -0.77581,-4.99554 -1.33544,-9.16523 -1.24334,-9.26558 z m -112.48047,3.71037 c 0.19729,0 1.99009,0.68282 3.98425,1.51722 4.43288,1.85473 12.32355,4.30431 19.92799,6.1867 5.50341,1.36234 5.72117,1.4889 6.44301,3.74809 0.41087,1.28599 0.93389,5.15225 1.16272,8.59173 h 5.2e-4 c 0.23555,3.54175 0.14423,6.24744 -0.21032,6.24044 -0.34434,-0.007 -3.6147,-1.26058 -7.26778,-2.78587 -6.43698,-2.68765 -12.6791,-4.75 -18.59989,-6.14485 l -2.86856,-0.67593 -0.38861,-5.97431 c -0.2137,-3.28594 -0.87276,-7.0381 -1.46503,-8.33851 -0.59231,-1.3004 -0.9157,-2.36471 -0.7183,-2.36471 z m 35.4521,11.12438 c 1.07469,-0.98592 25.64288,19.7036 25.64288,21.59455 h -0.001 c 0,1.47774 -8.51599,0.33513 -19.05155,-2.55592 l -5.41879,-1.48673 -0.016,-5.83943 c -0.009,-3.21173 -0.33449,-7.10428 -0.72296,-8.65012 -0.38829,-1.54582 -0.58344,-2.92391 -0.43253,-3.06235 z M 9.4278483,359.53361 H 25.499736 l -0.479041,1.44332 c -0.895593,2.69925 -5.250687,11.01142 -7.466211,14.2503 -1.214269,1.7751 -4.196846,5.59434 -6.628019,8.48733 -2.4311974,2.89298 -4.7297641,5.43576 -5.1082155,5.6503 -0.4439067,0.25166 -0.6883301,-14.72054 -0.6883301,-14.72054 v -12.72119 z m 23.8104327,0.15658 c 1.26763,-0.0903 4.821983,0.19823 7.898226,0.6413 l 5.59294,0.80564 0.212391,4.1491 c 0.50386,9.85558 -3.024806,18.71103 -10.298597,25.84442 -4.705694,4.61486 -9.360877,7.63884 -14.537614,9.44335 h -5.16e-4 c -3.739719,1.30348 -8.911797,2.00513 -11.032402,1.49655 -1.9649078,-0.47125 -5.9452599,-3.32354 -5.9267699,-4.24625 0.00877,-0.42302 2.2050304,-3.01093 4.8808389,-5.75107 7.784215,-7.97144 14.366001,-17.53001 18.567859,-26.96632 2.218581,-4.98239 2.457456,-5.26106 4.643644,-5.41672 z m 461.599729,0.30954 c -0.012,19.02025 -0.0983,27.40161 0,41.86618 h -7.97109 c -19.0539,0 -20.45009,-0.0777 -20.75584,-1.15032 -0.1803,-0.6325 -3.40473,-9.65222 -7.16545,-20.04374 l -6.83783,-18.89342 2.512,-0.4842 c 1.38143,-0.2663 11.94989,-0.66658 23.4859,-0.88936 z m -123.73715,0.81649 c 0.0933,0 0.38106,3.39145 0.63976,7.53649 0.25867,4.14503 1.04534,10.21675 1.74769,13.49272 0.7024,3.27597 1.08624,6.06414 0.8537,6.196 -0.2326,0.13189 -2.46506,0.72963 -4.96094,1.32808 -2.49591,0.59843 -6.95996,1.44746 -9.92032,1.88723 l -5.38262,0.79995 -0.69867,-2.98948 c -1.03753,-4.43817 -2.32227,-16.65848 -2.05413,-19.53938 l 0.23409,-2.51302 4.4943,-0.83716 c 2.47177,-0.46055 6.83024,-1.8555 9.68571,-3.09955 2.85549,-1.24404 5.26813,-2.26188 5.36143,-2.26188 z m 75.58867,1.45521 c 0.324,0.35341 14.28698,38.47477 14.28698,39.00589 0,0.32366 -1.80882,0.59296 -4.01991,0.59996 -5.1659,0.0151 -16.89245,1.54622 -24.44398,3.19154 -3.24773,0.70761 -5.99109,1.28674 -6.09627,1.28674 -0.35051,0 -10.73728,-20.76872 -12.95942,-25.91263 -1.20394,-2.78696 -2.03029,-5.44689 -1.83606,-5.91127 0.41772,-0.99863 10.06588,-5.54437 16.44602,-7.74836 4.11792,-1.42251 18.30402,-4.85942 18.62264,-4.51187 z m -244.42281,3.44578 c 4.68028,-0.37735 13.583,0.26888 14.43168,1.04748 0.77451,0.71052 -2.95804,9.2614 -7.3427,16.8212 l -4.09226,7.05538 -11.44943,0.38913 c -6.29715,0.21394 -13.49437,0.61515 -15.99386,0.89193 l -4.54442,0.50333 8.73952,-8.26823 c 4.80667,-4.54759 10.30206,-10.47388 12.21165,-13.16974 l 3.47163,-4.90203 z m 135.07755,0.57051 c 0.12755,-0.10583 2.15212,0.0956 4.49895,0.44803 l 4.26744,0.64131 0.42994,7.1422 c 0.37755,6.26786 1.0865,11.388 2.25413,16.28221 0.29624,1.2417 0.0567,1.44332 -1.71669,1.44332 -2.32413,0 -1.70981,1.41181 -7.07502,-16.24965 -1.58981,-5.23331 -2.78641,-9.60165 -2.65875,-9.70742 z m -114.45193,1.23972 c 0.27397,-0.0297 0.60224,0.0224 1.02422,0.11007 4.74023,0.9849 16.41556,4.88568 21.95267,7.33443 l 6.17378,2.73007 -0.41703,2.30063 c -0.22937,1.26526 -1.7278,6.12463 -3.33002,10.79883 -1.60218,4.67416 -3.24869,8.48011 -3.65921,8.45581 -0.41051,-0.0236 -2.16235,-0.46511 -3.89279,-0.98082 -5.00124,-1.49052 -22.3675,-5.28042 -26.3927,-5.75985 -2.0188,-0.24043 -3.67058,-0.6235 -3.67058,-0.85163 0,-0.22804 1.98757,-4.0153 4.41679,-8.41602 2.42921,-4.40068 5.00278,-9.79759 5.71954,-11.99307 0.9187,-2.81377 1.25342,-3.63934 2.07533,-3.72845 z m 183.60326,9.36738 0.64492,1.5565 c 2.1872,5.27751 6.28845,13.92872 9.96219,21.01474 2.33353,4.50097 4.11459,8.27016 3.95789,8.37571 -0.15675,0.10552 -5.51641,1.70249 -11.90986,3.54914 -6.39341,1.84664 -12.74229,3.52403 -14.1087,3.72742 l -2.48461,0.37 -3.09955,-5.68905 c -3.32945,-6.10994 -8.19279,-17.0315 -8.17159,-18.35186 0.007,-0.4433 3.08806,-2.33331 6.84661,-4.19974 3.75856,-1.86645 9.42773,-4.95913 12.5982,-6.87296 z m -149.35367,2.67529 c 0.0898,-0.092 1.55002,0.28668 3.24424,0.8413 5.08594,1.66491 14.03113,3.45592 17.8754,3.57911 3.60463,0.11537 3.60855,0.1177 3.33881,2.10013 -0.14851,1.09164 -0.61484,5.44833 -1.03663,9.68157 -0.42179,4.2332 -0.93591,8.34627 -1.14256,9.14002 -0.20655,0.79372 -0.73459,1.41541 -1.17357,1.38131 -5.18354,-0.40348 -27.18322,-4.59179 -28.24893,-5.37797 -0.10116,-0.0746 0.57806,-1.99269 1.50947,-4.26279 0.9314,-2.27007 2.5435,-7.00471 3.58221,-10.52132 1.03872,-3.51659 1.96156,-6.46946 2.05156,-6.56136 z m -187.266092,1.15756 4.080371,3.78271 c 3.972806,3.683 4.07103,3.8586 3.727421,6.65541 -0.441132,3.59039 -3.770337,8.67083 -10.316683,15.74529 -2.731076,2.95143 -5.771279,6.84796 -6.756176,8.6589 -0.984899,1.81092 -2.923121,4.37497 -4.307231,5.69785 -1.384121,1.32287 -2.7672,2.40553 -3.073714,2.40553 -0.306498,0 -0.557589,-4.05841 -0.557589,-9.01857 v -9.01857 l 4.959904,-5.25239 c 5.733699,-6.07208 9.452472,-11.53849 11.090796,-16.30288 z m 217.124212,3.66024 2.80965,2.48512 c 3.56665,3.15481 10.06285,10.42285 13.40125,14.99288 l 2.5771,3.52743 -4.03179,0.41135 c -2.2174,0.22627 -7.12039,0.44301 -10.89546,0.48111 -6.23011,0.0632 -6.82982,-0.0338 -6.49625,-1.05265 0.20213,-0.61734 0.70169,-4.29735 1.11001,-8.1778 0.4083,-3.88047 0.91842,-8.31811 1.13379,-9.86141 z m 89.22918,7.9623 2.23707,5.73764 c 1.23046,3.15567 3.79197,8.65418 5.69216,12.21889 1.90021,3.56474 3.36528,6.5557 3.25614,6.6461 -0.10921,0.0906 -2.71562,0.64221 -5.7919,1.22577 -3.07624,0.58356 -8.63457,1.23486 -12.35222,1.44746 l -6.75927,0.38602 -3.2551,-9.43612 c -1.79025,-5.18998 -3.42691,-10.40819 -3.63699,-11.59567 -0.36968,-2.08986 -0.29509,-2.17179 2.32389,-2.56987 5.3081,-0.80685 13.23366,-2.44044 15.73909,-3.24373 z m -179.28931,3.14245 c 1.66665,-0.005 2.88021,0.0562 3.47317,0.19275 l 1.81953,0.41858 -2.71095,4.00337 c -1.49092,2.20174 -4.72159,7.3223 -7.17941,11.37915 l -4.46846,7.3763 -6.25026,0.7555 c -3.43756,0.41566 -11.96916,1.20978 -18.95905,1.76424 -11.57271,0.91806 -31.68747,1.38909 -31.68747,0.74207 0,-0.14632 1.65176,-1.36207 3.67058,-2.70164 2.01878,-1.3396 9.68993,-6.6818 17.0465,-11.87111 l 13.37541,-9.43509 9.14828,-1.02577 c 8.64308,-0.96906 17.72216,-1.58256 22.72213,-1.59835 z m 149.48906,1.24178 h 1.6645 c 1.3763,0 1.79166,0.47164 2.40089,2.72593 0.4052,1.49926 2.11843,6.62247 3.80752,11.38484 1.6891,4.76238 3.02176,8.68391 2.96106,8.71471 -0.0606,0.0307 -0.86171,-0.11871 -1.77974,-0.33228 -1.39978,-0.32574 -1.97552,-1.31844 -3.56826,-6.14949 -1.04461,-3.1684 -2.70593,-8.14169 -3.69228,-11.05204 z m -137.98227,0.12351 c 2.92315,-0.40935 30.85925,5.32373 33.64911,6.90552 0.70269,0.39841 0.41516,1.71868 -1.30897,6.01307 -1.215,3.02619 -2.94618,8.18468 -3.84731,11.46338 -1.2939,4.70765 -1.91738,6.00059 -2.96571,6.14846 -0.73006,0.1031 -1.48024,0.0474 -1.66656,-0.1235 -0.18628,-0.17092 -1.85821,-0.38248 -3.71554,-0.47078 -2.70843,-0.12862 -3.88119,-0.58193 -5.9247,-2.28823 -5.74343,-4.79554 -16.83944,-7.92741 -24.6972,-6.97115 -1.85345,0.22566 -3.36982,0.2827 -3.36982,0.12661 0,-0.15606 2.79822,-4.85623 6.21822,-10.44484 4.45101,-7.27342 6.61908,-10.21721 7.62848,-10.35854 z m 39.42447,8.34109 4.65139,1.24799 c 6.16994,1.65529 16.17781,3.54618 21.67413,4.09535 l 4.43746,0.44339 -0.37569,2.01434 c -0.20667,1.10787 -0.76374,6.12739 -1.23817,11.15436 -0.47444,5.02695 -1.04413,9.10348 -1.26556,9.05888 -0.22155,-0.0446 -2.6051,-0.32874 -5.29683,-0.63097 -9.25985,-1.03968 -28.61944,-3.8701 -29.44213,-4.30465 -1.02742,-0.5427 0.70458,-7.15492 4.3403,-16.56746 z m 233.147,1.47485 c 6.54122,-0.0416 13.27598,0.25427 13.81983,1.06143 0,17.21184 -0.0889,24.55732 0,40.95254 h -18.41696 l -0.34882,-2.08463 c -0.19198,-1.14649 -0.5448,-4.24887 -0.78393,-6.89467 -0.71159,-7.87128 -4.91418,-27.32474 -6.92826,-32.06988 -0.23073,-0.54365 6.11693,-0.92317 12.65814,-0.96479 z m -18.29397,0.0181 2.22622,7.51117 c 2.54324,8.58207 4.86885,20.67435 5.55263,28.87266 l 0.46768,5.61206 H 455.2363 439.50186 l -0.44649,-3.92173 c -1.00402,-8.81246 -4.75092,-21.24791 -9.85883,-32.71996 -0.38035,-0.85426 0.40023,-1.23282 4.29638,-2.08515 6.97195,-1.52524 17.2502,-2.86467 23.63835,-3.08043 z m -415.362243,2.22932 c 0.229076,0 0.416512,8.94717 0.416512,19.88303 v 19.88354 H 26.454199 5.1299194 v -19.36781 -19.36781 l 2.2722128,2.01745 c 3.0319868,2.69205 6.7254988,4.02048 12.3889078,4.45605 8.167765,0.62819 18.656688,-1.95354 25.138517,-6.18773 1.108834,-0.72434 2.203319,-1.31672 2.43241,-1.31672 z m 258.109313,1.89084 c 2.43619,-0.009 4.03978,0.0631 4.27364,0.21808 1.12496,0.74567 6.94687,11.72611 7.80004,14.71176 l 0.68264,2.39004 -4.06693,-0.39016 c -5.14838,-0.49365 -7.07658,-0.0387 -10.07587,2.37712 -2.05191,1.65275 -3.26037,2.02729 -8.22792,2.55126 -3.2025,0.33779 -7.78933,0.61708 -10.19266,0.61908 -4.07231,0.005 -4.36768,-0.0932 -4.35168,-1.43815 0.0225,-1.80333 1.194,-13.26758 1.75959,-17.22014 l 0.42219,-2.94917 12.70827,-0.60203 c 3.56381,-0.16882 6.8325,-0.25879 9.26869,-0.26769 z m 117.46104,1.95751 c 2.57433,0 9.59003,20.27085 11.15488,32.23007 l 0.48266,3.68815 h -7.96334 -7.96282 l -0.85525,-4.97076 c -1.68465,-9.79191 -7.54455,-17.08002 -16.01711,-19.92126 -2.23753,-0.75035 -4.44972,-1.92995 -4.91649,-2.62155 -0.76271,-1.13022 -0.62114,-1.30312 1.39836,-1.7079 1.23583,-0.24769 7.06028,-1.85567 12.9434,-3.57343 5.88312,-1.71774 11.16423,-3.12332 11.73571,-3.12332 z m -364.185001,12.65401 0.41031,3.17551 c 0.885413,6.85824 6.308851,14.4198 12.8757,17.95033 1.656401,0.89052 3.011703,1.73566 3.011703,1.87844 0,0.14286 -5.033889,0.25993 -11.186398,0.25993 H 52.672237 v -8.6403 -8.63978 l 3.037541,-2.99207 z M 386.456,429.55879 c 0.11604,-0.16498 1.01142,0.10002 2.71611,0.75345 2.75086,1.05444 6.40194,4.75321 7.87394,7.97677 0.5981,1.30974 1.2719,4.18552 1.49758,6.39031 0.33993,3.31988 0.22862,4.00854 -0.64905,4.00854 -0.7412,0 -1.19658,-0.94666 -1.51516,-3.14968 -0.62498,-4.32224 -4.81722,-11.77149 -7.96334,-14.15056 -1.41284,-1.06839 -2.07612,-1.66385 -1.96008,-1.82883 z m -186.04756,0.75861 c 0.1357,-0.12448 1.75193,0.24402 3.59151,0.81907 2.52161,0.78823 3.88429,1.74498 5.53713,3.88762 2.5524,3.30882 5.2502,9.36427 5.302,11.90005 0.0262,1.28308 -0.30686,1.76372 -1.22214,1.76372 -0.95829,0 -1.61455,-1.10872 -2.75384,-4.65036 -1.76167,-5.47638 -4.74507,-9.82131 -8.21035,-11.95793 -1.36989,-0.84462 -2.37985,-1.63783 -2.24431,-1.76217 z m 28.53831,1.43661 c 0.14368,-0.11094 1.4666,-0.0644 2.93987,0.10387 l 2.67891,0.30592 -0.48679,6.81922 c -0.26756,3.74997 -0.56377,6.89817 -0.65836,6.99596 -0.0946,0.0977 -0.3635,-1.10335 -0.59738,-2.66909 -0.23391,-1.56571 -1.26063,-4.76086 -2.28152,-7.10034 -1.02089,-2.33945 -1.73846,-4.34446 -1.59473,-4.45554 z m 10.61847,1.4087 2.86184,0.42529 c 10.63421,1.58108 25.25623,3.52072 29.1543,3.86747 l 4.61935,0.41134 0.46871,7.49515 c 0.25775,4.12234 0.65814,8.86586 0.88935,10.54148 0.23128,1.67566 0.14365,3.02301 -0.1943,2.99361 -0.33794,-0.0292 -7.37861,-1.44963 -15.64608,-3.15691 -8.26746,-1.70729 -16.84049,-3.43596 -19.05155,-3.84111 l -4.02042,-0.73639 v -3.06286 c 0,-1.68465 0.20679,-5.73462 0.4594,-8.99997 z m -57.65901,3.33881 h 2.0438 c 3.18546,0 6.11086,3.93179 6.91121,9.28884 0.63753,4.2669 -1.24744,3.92122 -2.76934,-0.50798 -0.64359,-1.87304 -2.29855,-4.6149 -3.67781,-6.09317 z m 117.31377,0.83664 c 0.11058,0.10145 -0.13902,2.06691 -0.55449,4.36718 -0.65574,3.63028 -0.56085,4.88799 0.71934,9.53223 0.81115,2.94273 1.61823,5.48211 1.79369,5.64307 0.17546,0.16094 2.66549,-0.60348 5.53299,-1.6986 4.44502,-1.69761 13.76883,-4.16447 14.14487,-3.74241 0.0659,0.074 0.33821,2.33219 0.60514,5.0183 0.47098,4.73895 0.43724,4.89579 -1.13844,5.28288 -3.16859,0.77843 -21.31577,0.27572 -29.0468,-0.8046 -4.3157,-0.60304 -7.96328,-1.22443 -8.10597,-1.3808 -0.52066,-0.57095 -2.0053,-20.41849 -1.5751,-21.05711 0.24386,-0.36089 0.84833,-0.51563 1.34308,-0.34158 0.49482,0.17418 4.31517,0.0197 8.48992,-0.34313 4.17477,-0.3629 7.68103,-0.57703 7.79177,-0.47543 z m 36.95588,12.87467 c 2.41547,0.19313 5.47086,0.59722 9.7901,1.26245 6.15255,0.94758 12.0518,1.71756 13.10928,1.71256 4.58384,-0.0244 0.9889,1.15122 -12.24008,4.00234 -7.7841,1.67762 -15.43,3.22052 -16.99069,3.42925 l -2.83756,0.37982 -0.66611,-5.15886 -0.66611,-5.15886 4.5527,-0.46457 c 1.75776,-0.17934 3.53301,-0.19726 5.94847,-0.004 z m -147.16828,3.28559 -5.1e-4,20.68504 v 20.68504 h -20.97443 -20.97443 l 0.002,-10.42262 c 10e-4,-5.73247 0.20707,-14.96078 0.45786,-20.50676 l 0.45578,-10.08362 20.5171,-0.17828 z m 210.4006,0.14262 0.19637,8.26668 c 0.10796,4.54674 0.10452,13.82294 -0.007,20.61373 l -0.20308,12.34705 h -16.41192 -16.41192 l 0.185,-18.74356 0.18552,-18.74304 6.64197,-1.50378 c 4.52588,-1.02451 9.69774,-1.62025 16.23364,-1.87017 z m -257.41943,0.0176 c 0.28842,-0.0882 0.51138,1.57156 0.49558,3.68815 -0.0159,2.11662 -0.0947,11.42485 -0.17467,20.68504 l -0.14624,16.8367 H 120.83965 99.515373 V 474.34366 453.81881 H 120.4898 c 11.53602,0 21.21056,-0.0719 21.49895,-0.1602 z m -136.8588306,0.1602 h 21.3242796 21.32428 v 20.52485 20.52484 H 26.454199 5.1299194 v -20.52484 z m 47.5423176,0 h 20.97443 20.974948 v 20.52485 20.52484 H 73.646667 52.672237 v -20.52484 z m 141.429093,0 h 13.72629 c 13.01424,0 24.9916,0.82842 26.06663,1.80299 0.27023,0.24499 0.71312,9.17603 0.98392,19.84634 l 0.49248,19.40036 -20.55999,-5.1e-4 h -20.55998 l -0.0744,-20.52433 z m 210.59335,0 h 15.14946 15.14895 l 0.26975,4.65036 c 0.1482,2.55759 0.34573,11.79381 0.43873,20.52485 l 0.16898,15.87448 h -15.58768 l -15.58819,-5.1e-4 v -20.52433 z m 35.10793,0 h 15.83056 15.83056 v 20.52485 20.52484 h -15.38097 -15.38149 v -16.58245 c 0,-9.12022 -0.20198,-18.35596 -0.44907,-20.52433 z m 36.55384,0 h 18.48156 v 41.04762 l -18.48156,0.002 v -20.52484 z m -235.99179,2.56574 c 1.1323,0 15.78288,2.85733 30.79243,6.00531 l 6.99131,1.46606 0.43873,6.68693 c 0.24129,3.67787 0.47752,10.65598 0.52452,15.50655 l 0.0858,8.8191 H 260.05546 240.91348 L 240.46906,484.125 c -0.24442,-5.90889 -0.63509,-14.56754 -0.86816,-19.24172 -0.38518,-7.72137 -0.31536,-8.4987 0.76378,-8.4987 z m 121.05669,2.56573 c 0.15174,0 0.27595,8.0816 0.27595,17.95911 v 17.95911 h -17.47903 -17.47852 v -14.34796 -14.34796 l 4.36976,-0.78032 c 2.40333,-0.42906 10.14428,-2.05406 17.20256,-3.61114 7.05825,-1.55705 12.95761,-2.83084 13.10928,-2.83084 z m -78.04898,6.02134 7.52564,0.91777 c 4.13925,0.50476 12.79562,0.95387 19.23655,0.99787 l 11.71091,0.0806 v 13.95005 13.95057 h -18.4645 -18.46503 l -0.3886,-5.29166 c -0.21368,-2.91031 -0.56066,-9.63718 -0.77153,-14.94845 z"
       style="baseline-shift:baseline;display:inline;overflow:visible;vector-effect:none;fill:#5683a9;fill-opacity:1;enable-background:accumulate;stop-color:#000000;stop-opacity:1"
       id="path5" /><path
       d="m 267.23433,54.50675 c -19.17935,0.0429 -38.8462,12.184565 -38.8462,40.09316 0,12.65346 17.1388,42.27388 28.64218,60.77252 -1.13191,-1.92918 -2.28397,-3.74447 -3.35535,-5.5299 3.51296,-4.41396 23.28228,-4.10248 29.94494,-4.58576 10.6057,-17.86893 22.46013,-40.17316 22.46013,-50.65686 0,-27.908595 -19.66634,-40.050256 -38.8457,-40.09316 z m 0.0222,25.463046 c 7.44141,0 13.46532,5.83486 13.46532,13.042614 0,7.20775 -6.04613,13.04262 -13.48755,13.04262 -7.41926,0 -13.4431,-5.83487 -13.4431,-13.04262 0,-7.207754 6.02391,-13.042614 13.46533,-13.042614 z"
       style="baseline-shift:baseline;display:inline;overflow:visible;vector-effect:none;fill:#ffffff;fill-opacity:0;enable-background:accumulate;stop-color:#000000;stop-opacity:1"
       id="path3" /><path
       d="m 283.63178,145.25625 c -6.65313,0.48429 -26.44215,0.17017 -29.95682,4.58628 5.98221,9.96916 14.49793,20.72406 7.7897,48.51332 1.12238,1.33092 1.9564,-4.35192 2.40864,1.3162 6.54982,-13.3582 7.0172,-30.38205 19.75848,-54.4158 z"
       style="baseline-shift:baseline;display:inline;overflow:visible;vector-effect:none;fill:#ffffff;fill-opacity:0;enable-background:accumulate;stop-color:#000000;stop-opacity:1"
       id="path2" /></g></svg>
